<svg width="325" height="82" viewBox="0 0 325 82" fill="none" xmlns="http://www.w3.org/2000/svg">
<path d="M163.262 77.8285L164.469 77.6742C165.247 77.5584 165.363 77.3653 165.363 76.438V59.7518L163.302 59.5975V55.8121H182.365V62.4943L177.463 62.8031V61.2197C177.463 60.4472 177.152 60.1768 176.49 60.1768H172.055V66.009H180.809V70.6442H172.055V77.1332H176.957C177.618 77.1332 177.929 76.9016 177.929 76.0903V74.1591L182.832 74.5064V81.4978H163.262V77.8285Z" fill="#242422"/>
<path d="M185.055 77.8285L186.222 77.7127C186.883 77.6354 187.156 77.4423 187.156 76.6698V59.7518L185.094 59.5975V55.8121H196.221C203.963 55.8121 208.903 59.5975 208.903 67.7861C208.903 77.8284 202.873 81.498 196.376 81.498H185.055V77.8285ZM193.847 76.8244H196.026C199.955 76.8244 202.173 74.5066 202.173 68.4039C202.173 61.606 199.294 60.37 196.026 60.37H193.847V76.8244Z" fill="#242422"/>
<path d="M232.083 73.5799C232.083 78.7944 227.881 82 221.773 82C215.043 82 211.424 79.2576 211.424 73.039V59.7518L209.362 59.5975V55.8121H220.334V59.5202L219.049 59.6359C218.388 59.7133 218.116 59.8675 218.116 60.7563V73.2707C218.116 76.361 219.789 77.2492 222.201 77.2492C224.535 77.2492 225.975 76.0521 225.975 73.4254V59.7133L224.146 59.5587V55.8121H234.222V59.4813L233.055 59.5975C232.355 59.6745 232.083 59.8676 232.083 60.7562V73.5799Z" fill="#242422"/>
<path d="M236.913 66.6658C236.913 65.8545 236.679 65.5845 235.979 65.5071L234.656 65.3913V61.7602H242.826V64.2711H242.904C243.838 62.7647 245.627 61.2197 248.662 61.2197C252.28 61.2197 254.536 63.0351 254.536 67.786V77.79L256.443 77.9446V81.498H246.6V77.9448L247.378 77.8674C247.806 77.8286 248 77.6743 248.04 77.095V69.0994C248.04 67.2836 247.651 66.2798 245.939 66.2798C244.305 66.2798 243.371 67.6317 243.371 69.3312V77.79L245.005 77.9058V81.4981H234.695V78.0216L236.018 77.9058C236.757 77.8674 236.913 77.5969 236.913 76.7087V66.6658Z" fill="#242422"/>
<path d="M266.327 77.7515L268.388 77.9058V81.498H257.651V78.0216L259.013 77.9058C259.752 77.8285 259.907 77.5969 259.907 76.6313V66.6658C259.907 65.8545 259.674 65.5845 258.974 65.5071L257.651 65.3914V61.7603H266.327V77.7515ZM262.592 52.7607C264.848 52.7607 266.404 54.0741 266.404 56.0437C266.404 58.0911 264.848 59.5202 262.592 59.5202C260.296 59.5202 258.857 58.0911 258.857 56.1599C258.857 54.2672 260.335 52.7607 262.592 52.7607H262.592Z" fill="#242422"/>
<path d="M271.772 66.6658C271.772 65.8545 271.539 65.5845 270.839 65.5071L269.516 65.3913V61.7602H277.686V64.2711H277.764C278.697 62.7647 280.487 61.2197 283.521 61.2197C287.14 61.2197 289.396 63.0351 289.396 67.786V77.79L291.302 77.9446V81.498H281.46V77.9448L282.238 77.8674C282.666 77.8286 282.86 77.6743 282.899 77.095V69.0994C282.899 67.2836 282.51 66.2798 280.798 66.2798C279.164 66.2798 278.231 67.6317 278.231 69.3312V77.79L279.864 77.9058V81.4981H269.555V78.0216L270.877 77.9058C271.617 77.8674 271.772 77.5969 271.772 76.7087V66.6658Z" fill="#242422"/>
<path d="M301.879 61.2197C304.952 61.2197 311.099 62.0695 311.099 71.1463C311.099 78.6782 307.17 82 301.295 82C295.46 82 292.153 78.8328 292.153 71.7645C292.153 63.4598 297.638 61.2197 301.879 61.2197ZM304.369 71.7257C304.369 67.6702 303.746 65.8934 301.607 65.8934C299.584 65.8934 298.844 67.7087 298.844 71.0305C298.844 74.5066 299.195 77.2879 301.607 77.2879C303.591 77.2879 304.369 75.4337 304.369 71.7257Z" fill="#242422"/>
<path d="M13.5071 6.23376L21.8479 29.2847H22.0971L30.6869 6.23376H41.7041L43.8206 47.3297H33.7366L32.492 25.8237H32.3051L25.645 43.189H18.1134L11.5153 26.1945H11.3287L10.0837 47.3297H0L2.36528 6.23376H13.5071Z" fill="#2196F3"/>
<path d="M47.4478 32.9304C47.4478 22.0541 53.174 14.7616 64.3159 14.7616C66.4946 14.7616 71.3498 15.3181 76.3292 17.2336V40.6553L77.0138 47.3295H68.2372L67.7396 44.4248L67.428 44.3633C65.7477 46.7732 63.1955 48.3185 59.6476 48.3185C50.0619 48.3186 47.4478 40.9025 47.4478 32.9304ZM66.0589 37.38V22.4867C65.1452 22.141 64.1731 21.9731 63.1956 21.9922C59.0873 21.9922 57.7181 26.8744 57.7181 32.1889C57.7181 36.9474 58.5896 40.9025 62.1998 40.9025C64.6274 40.9025 66.0589 39.1723 66.0589 37.38Z" fill="#2196F3"/>
<path d="M81.3518 36.5148V4.37988H91.809V15.7507H99.5894V23.7228H91.809V36.0822C91.809 39.4813 93.4274 40.5317 95.5434 40.5317C96.7348 40.4666 97.8906 40.1054 98.9048 39.4813L101.208 46.0318C99.2781 47.3296 95.7926 48.3186 92.3066 48.3186C82.0987 48.3186 81.3518 42.3242 81.3518 36.5148Z" fill="#2196F3"/>
<path d="M101.387 32.3744C101.387 23.4134 106.802 14.7617 117.384 14.7617C123.92 14.7617 128.277 17.9134 128.277 24.4642C128.277 33.363 118.567 35.2787 111.969 35.6498C112.404 38.307 114.334 40.6554 118.131 40.6554C121.119 40.6554 123.857 39.2956 125.787 37.9981L128.588 44.7956C128.277 45.1049 123.546 48.3185 116.637 48.3185C105.744 48.3186 101.387 41.7677 101.387 32.3744ZM119.314 24.5261C119.314 22.9812 118.318 21.9922 116.762 21.9922C113.649 21.9922 111.72 24.8969 111.533 29.1609C114.894 28.9753 119.314 27.5541 119.314 24.5261Z" fill="#2196F3"/>
<path d="M131.169 15.7507H139.697L140.382 19.026C142.311 16.4302 144.863 14.7616 148.972 14.7616C152.644 14.7616 155.507 16.0594 157.188 18.8404C159.055 16.3684 161.732 14.7616 165.716 14.7616C171.878 14.7616 175.55 18.2226 175.55 25.762V47.3295H165.155V27.4923C165.155 24.7114 164.844 22.672 162.292 22.672C159.927 22.672 158.869 24.588 158.869 27.2453V47.3297H148.474V27.4923C148.474 24.7732 148.225 22.672 145.673 22.672C143.183 22.672 142.187 24.588 142.187 27.3071V47.3297H131.854V22.0541L131.169 15.7507Z" fill="#2196F3"/>
<path d="M179.171 32.9304C179.171 22.0541 184.898 14.7616 196.039 14.7616C198.218 14.7616 203.073 15.3181 208.053 17.2336V40.6553L208.737 47.3295H199.961L199.463 44.4248L199.152 44.3633C197.471 46.7732 194.919 48.3185 191.371 48.3185C181.786 48.3186 179.171 40.9025 179.171 32.9304ZM197.782 37.38V22.4867C196.869 22.141 195.897 21.9731 194.919 21.9922C190.811 21.9922 189.442 26.8744 189.442 32.1889C189.442 36.9474 190.313 40.9025 193.923 40.9025C196.351 40.9025 197.782 39.1723 197.782 37.38H197.782Z" fill="#2196F3"/>
<path d="M213.076 36.5148V4.37988H223.533V15.7507H231.313V23.7228H223.533V36.0822C223.533 39.4813 225.151 40.5317 227.267 40.5317C228.459 40.4666 229.614 40.1054 230.629 39.4813L232.932 46.0318C231.002 47.3296 227.516 48.3186 224.03 48.3186C213.822 48.3186 213.076 42.3242 213.076 36.5148Z" fill="#2196F3"/>
<path d="M234.816 6.66623C234.816 3.8853 236.932 1.53699 240.294 1.53699C243.593 1.53699 245.833 3.8853 245.833 6.66623C245.833 9.50904 243.593 11.7955 240.294 11.7955C236.932 11.7955 234.816 9.63243 234.816 6.66623ZM245.585 15.7506V47.3295H235.127V15.7507L245.585 15.7506Z" fill="#2196F3"/>
<path d="M260.902 4.37988V21.4978H261.15C263.205 17.6045 266.441 14.7618 271.856 14.7618C276.961 14.7618 280.384 17.4808 280.384 22.7338C280.384 27.7397 277.77 31.4474 273.786 33.8576L281.505 47.3296H269.554L263.889 36.5148C262.9 36.6664 261.902 36.7491 260.902 36.7622V47.3296H250.444V4.37988H260.902ZM270.052 25.2677C270.052 23.4135 269.118 22.4249 267.064 22.4249C263.889 22.4249 261.213 25.8237 260.839 31.4474C267.126 30.9529 270.052 28.3576 270.052 25.2677Z" fill="#2196F3"/>
<path d="M310.983 26.5034C309.905 26.8739 308.768 27.0454 307.629 27.0096C305.286 26.958 302.961 26.6011 300.713 25.9482V37.38C300.713 39.1724 299.281 40.9025 296.854 40.9025C293.243 40.9025 292.372 36.9475 292.372 32.1889C292.372 28.751 292.946 25.496 294.463 23.6244C292.917 22.9011 291.45 22.0216 290.085 20.9997C289.132 20.3128 288.314 19.4594 287.669 18.4811C283.979 21.663 282.101 26.7084 282.101 32.9306C282.101 40.9026 284.716 48.3187 294.301 48.3187C297.849 48.3187 300.401 46.7734 302.082 44.3638L302.393 44.4253L302.891 47.33H311.667L310.983 40.6558V26.5034Z" fill="#2196F3"/>
<path d="M319.423 17.0452L316.846 17.1543L314.085 25.023C313.804 25.1171 313.548 25.2737 313.338 25.4808C313.127 25.688 312.967 25.9401 312.87 26.2181L312.659 26.817C312.489 27.3021 312.52 27.8344 312.745 28.2968C312.97 28.7593 313.371 29.114 313.86 29.283C314.348 29.452 314.884 29.4213 315.35 29.1978C315.816 28.9743 316.173 28.5762 316.344 28.0912L316.554 27.4923C316.651 27.2143 316.684 26.9179 316.648 26.6256C316.613 26.3333 316.511 26.053 316.349 25.806L319.423 17.0452Z" fill="#242422"/>
<path d="M300.732 17.8364L290.667 9.19507L288.415 15.6124C288.381 15.6757 288.353 15.7415 288.329 15.8091C287.565 17.9863 292.223 21.5768 298.733 23.8282C305.243 26.0796 311.14 26.1395 311.904 23.9622C311.927 23.8945 311.946 23.8251 311.959 23.7547L314.237 17.2647L300.732 17.8364Z" fill="#242422"/>
<path d="M301.211 16.4703L283.201 1.00722L306.99 0L325 15.4631L301.211 16.4703Z" fill="#242422"/>
</svg>