<svg 
 xmlns="http://www.w3.org/2000/svg"
 xmlns:xlink="http://www.w3.org/1999/xlink"
 width="76px" height="76px">
<path fill-rule="evenodd"  fill="rgb(140, 181, 50)"
 d="M75.307,38.604 L70.811,43.105 L69.576,41.869 L72.581,38.860 L63.768,38.860 L63.755,39.152 C63.487,45.116 61.117,50.837 57.080,55.260 L56.883,55.476 L65.572,64.174 L65.572,59.514 L67.318,59.514 L67.318,66.284 C67.318,66.766 66.926,67.158 66.445,67.158 L59.683,67.158 L59.683,65.410 L64.337,65.410 L55.649,56.712 L55.434,56.908 C51.015,60.950 45.301,63.323 39.343,63.591 L39.052,63.604 L39.052,72.427 L42.057,69.418 L43.292,70.655 L38.796,75.155 C38.631,75.321 38.412,75.412 38.179,75.412 C37.946,75.412 37.727,75.321 37.561,75.155 L33.065,70.655 L34.300,69.418 L37.306,72.428 L37.306,63.604 L37.015,63.591 C31.057,63.323 25.342,60.950 20.924,56.908 L20.709,56.712 L12.020,65.410 L16.674,65.410 L16.674,67.158 L9.913,67.158 C9.431,67.158 9.040,66.766 9.040,66.284 L9.040,59.514 L10.786,59.514 L10.786,64.174 L19.474,55.476 L19.278,55.260 C15.241,50.837 12.871,45.116 12.602,39.152 L12.589,38.860 L3.776,38.860 L6.781,41.869 L5.547,43.105 L1.051,38.604 C0.886,38.440 0.795,38.220 0.795,37.986 C0.795,37.754 0.886,37.534 1.051,37.368 L5.547,32.867 L6.781,34.104 L3.776,37.112 L12.589,37.112 L12.602,36.821 C12.871,30.857 15.241,25.136 19.278,20.712 L19.474,20.497 L10.786,11.799 L10.786,16.458 L9.040,16.458 L9.040,9.689 C9.040,9.207 9.431,8.815 9.913,8.815 L16.674,8.815 L16.674,10.563 L12.020,10.563 L20.709,19.261 L20.924,19.065 C25.342,15.023 31.057,12.650 37.015,12.381 L37.306,12.368 L37.306,3.545 L34.300,6.554 L33.065,5.318 L37.561,0.817 C37.727,0.652 37.946,0.561 38.179,0.561 C38.413,0.561 38.632,0.652 38.796,0.817 L43.292,5.318 L42.057,6.554 L39.052,3.545 L39.052,12.368 L39.343,12.381 C45.301,12.650 51.015,15.023 55.434,19.065 L55.649,19.261 L64.337,10.563 L59.683,10.563 L59.683,8.815 L66.445,8.815 C66.926,8.815 67.318,9.207 67.318,9.689 L67.318,16.458 L65.572,16.458 L65.572,11.799 L56.883,20.497 L57.080,20.712 C61.117,25.136 63.487,30.857 63.755,36.821 L63.768,37.112 L72.582,37.112 L69.576,34.104 L70.811,32.867 L75.307,37.368 C75.647,37.709 75.647,38.264 75.307,38.604 ZM61.995,37.112 L61.978,36.792 C61.706,31.316 59.528,26.059 55.845,21.988 L55.630,21.751 L52.051,25.335 L50.816,24.099 L54.397,20.515 L54.159,20.300 C50.092,16.613 44.841,14.433 39.372,14.160 L39.052,14.144 L39.052,21.174 L37.306,21.174 L37.306,14.144 L36.986,14.160 C31.517,14.433 26.265,16.613 22.198,20.300 L21.961,20.515 L25.542,24.099 L24.306,25.335 L20.727,21.751 L20.512,21.988 C16.829,26.059 14.651,31.317 14.379,36.792 L14.363,37.112 L21.386,37.112 L21.386,38.860 L14.363,38.860 L14.379,39.181 C14.651,44.655 16.830,49.913 20.512,53.984 L20.727,54.222 L24.306,50.637 L25.542,51.874 L21.961,55.458 L22.198,55.673 C26.265,59.359 31.516,61.540 36.986,61.813 L37.306,61.829 L37.306,54.798 L39.052,54.798 L39.052,61.829 L39.372,61.813 C44.842,61.540 50.093,59.359 54.159,55.673 L54.397,55.458 L50.816,51.874 L52.051,50.637 L55.630,54.222 L55.845,53.984 C59.528,49.914 61.706,44.657 61.978,39.181 L61.995,38.860 L54.972,38.860 L54.972,37.112 L61.995,37.112 ZM38.179,49.472 C31.853,49.472 26.706,44.320 26.706,37.986 C26.706,31.653 31.853,26.500 38.179,26.500 C44.505,26.500 49.651,31.653 49.651,37.986 C49.651,44.320 44.505,49.472 38.179,49.472 ZM38.179,28.249 C32.816,28.249 28.452,32.617 28.452,37.986 C28.452,43.356 32.816,47.724 38.179,47.724 C43.542,47.724 47.905,43.356 47.905,37.986 C47.905,32.617 43.542,28.249 38.179,28.249 ZM38.179,43.577 C35.100,43.577 32.595,41.069 32.595,37.986 C32.595,34.904 35.100,32.396 38.179,32.396 C41.258,32.396 43.763,34.904 43.763,37.986 C43.763,41.069 41.258,43.577 38.179,43.577 ZM38.179,34.144 C36.063,34.144 34.341,35.868 34.341,37.986 C34.341,40.105 36.063,41.829 38.179,41.829 C40.295,41.829 42.017,40.105 42.017,37.986 C42.017,35.868 40.295,34.144 38.179,34.144 Z"/>
</svg>