<svg 
 xmlns="http://www.w3.org/2000/svg"
 xmlns:xlink="http://www.w3.org/1999/xlink"
 width="62px" height="63px">
<path fill-rule="evenodd"  fill="rgb(140, 181, 50)"
 d="M45.986,21.650 L43.958,23.678 C39.575,28.062 39.575,35.194 43.958,39.577 L45.986,41.605 C50.206,39.501 55.353,40.306 58.725,43.679 C63.034,47.987 63.034,54.998 58.725,59.307 C54.416,63.616 47.406,63.616 43.097,59.307 C39.724,55.934 38.919,50.787 41.023,46.568 L38.996,44.540 C34.612,40.157 27.480,40.157 23.096,44.540 L21.069,46.568 C23.172,50.787 22.367,55.934 18.995,59.306 C14.686,63.616 7.675,63.616 3.367,59.307 C-0.942,54.998 -0.942,47.987 3.367,43.679 C6.740,40.306 11.886,39.501 16.106,41.605 L18.133,39.577 C22.517,35.194 22.517,28.062 18.133,23.678 L16.105,21.650 C11.886,23.754 6.740,22.949 3.367,19.577 C-0.942,15.268 -0.942,8.257 3.367,3.949 C7.676,-0.360 14.686,-0.360 18.995,3.949 C22.368,7.321 23.173,12.468 21.069,16.687 L23.096,18.715 C27.480,23.098 34.612,23.098 38.996,18.715 L41.023,16.687 C38.920,12.468 39.725,7.321 43.097,3.949 C47.406,-0.360 54.416,-0.360 58.725,3.949 C63.033,8.257 63.033,15.268 58.725,19.577 C55.352,22.949 50.206,23.754 45.986,21.650 ZM44.346,58.058 C47.966,61.678 53.856,61.678 57.476,58.058 C61.096,54.438 61.096,48.547 57.476,44.927 C54.786,42.237 50.752,41.493 47.318,42.937 L52.768,48.387 L55.447,45.708 C55.792,45.363 56.351,45.363 56.696,45.708 C57.041,46.053 57.041,46.611 56.696,46.957 L53.935,49.717 C54.580,50.810 54.581,52.178 53.939,53.272 L56.696,56.029 C57.041,56.374 57.041,56.933 56.696,57.278 C56.351,57.623 55.792,57.623 55.447,57.278 L52.691,54.521 C51.596,55.163 50.229,55.162 49.135,54.517 L46.375,57.278 C46.030,57.623 45.471,57.623 45.126,57.278 C44.781,56.933 44.781,56.374 45.126,56.029 L47.805,53.350 L42.355,47.900 C40.911,51.335 41.655,55.368 44.346,58.058 ZM4.616,44.927 C0.996,48.547 0.996,54.438 4.616,58.058 C8.236,61.678 14.126,61.678 17.746,58.058 C20.437,55.368 21.181,51.334 19.737,47.899 L14.287,53.350 L16.966,56.029 C17.311,56.374 17.311,56.933 16.966,57.278 C16.621,57.622 16.062,57.622 15.717,57.278 L12.957,54.517 C11.863,55.162 10.496,55.163 9.401,54.521 L6.645,57.278 C6.300,57.623 5.741,57.623 5.396,57.278 C5.051,56.933 5.051,56.374 5.396,56.029 L8.153,53.272 C7.511,52.178 7.512,50.810 8.157,49.717 L5.396,46.957 C5.051,46.611 5.051,46.053 5.396,45.708 C5.741,45.363 6.300,45.363 6.645,45.708 L9.324,48.387 L14.774,42.936 C11.339,41.493 7.306,42.237 4.616,44.927 ZM17.747,5.197 C14.126,1.577 8.236,1.577 4.616,5.197 C0.996,8.818 0.996,14.708 4.616,18.328 C7.306,21.019 11.339,21.762 14.774,20.319 L9.324,14.869 L6.645,17.548 C6.300,17.893 5.741,17.893 5.396,17.548 C5.051,17.203 5.051,16.644 5.396,16.299 L8.157,13.539 C7.512,12.445 7.511,11.078 8.153,9.983 L5.396,7.227 C5.051,6.881 5.051,6.323 5.396,5.978 C5.741,5.633 6.300,5.633 6.645,5.978 L9.401,8.734 C10.496,8.092 11.863,8.094 12.957,8.738 L15.717,5.978 C16.062,5.633 16.621,5.633 16.966,5.978 C17.311,6.323 17.311,6.881 16.966,7.226 L14.287,9.905 L19.737,15.356 C21.181,11.921 20.437,7.888 17.747,5.197 ZM40.244,19.964 C35.172,25.036 26.920,25.036 21.848,19.964 L12.409,10.525 C11.729,9.845 10.623,9.845 9.943,10.525 C9.263,11.205 9.263,12.310 9.943,12.990 L19.382,22.429 C24.454,27.501 24.454,35.754 19.382,40.826 L9.943,50.265 C9.263,50.945 9.263,52.051 9.943,52.731 C10.623,53.411 11.729,53.411 12.409,52.731 L21.848,43.292 C26.920,38.220 35.172,38.220 40.244,43.292 L49.683,52.731 C50.363,53.411 51.469,53.411 52.149,52.731 C52.829,52.051 52.829,50.945 52.149,50.265 L42.710,40.826 C37.638,35.754 37.638,27.501 42.710,22.429 L52.149,12.990 C52.829,12.310 52.829,11.204 52.149,10.524 C51.469,9.845 50.363,9.845 49.683,10.524 L40.244,19.964 ZM57.476,5.197 C53.856,1.577 47.966,1.577 44.346,5.197 C41.655,7.888 40.911,11.921 42.355,15.356 L47.805,9.905 L45.126,7.227 C44.781,6.882 44.781,6.323 45.126,5.978 C45.471,5.633 46.030,5.633 46.375,5.978 L49.135,8.738 C50.229,8.093 51.596,8.092 52.691,8.734 L55.447,5.978 C55.792,5.633 56.351,5.633 56.696,5.978 C57.041,6.323 57.041,6.881 56.696,7.227 L53.939,9.983 C54.582,11.078 54.580,12.445 53.935,13.538 L56.696,16.299 C57.041,16.644 57.041,17.203 56.696,17.548 C56.351,17.893 55.792,17.893 55.447,17.548 L52.768,14.869 L47.318,20.319 C50.752,21.762 54.786,21.019 57.476,18.328 C61.096,14.708 61.096,8.818 57.476,5.197 ZM26.710,35.963 C24.320,33.573 24.320,29.683 26.710,27.292 C29.101,24.901 32.991,24.901 35.382,27.292 C37.772,29.683 37.772,33.572 35.381,35.963 C32.991,38.354 29.101,38.354 26.710,35.963 ZM34.133,28.540 C32.431,26.838 29.661,26.838 27.959,28.541 C26.257,30.243 26.257,33.012 27.959,34.715 C29.661,36.417 32.431,36.417 34.133,34.715 C35.835,33.012 35.835,30.243 34.133,28.540 ZM29.917,32.756 C29.295,32.134 29.295,31.122 29.918,30.499 C30.540,29.877 31.552,29.877 32.174,30.499 C32.797,31.121 32.797,32.134 32.174,32.756 C31.552,33.378 30.540,33.378 29.917,32.756 ZM10.421,12.524 C10.001,12.104 10.001,11.421 10.420,11.002 C10.840,10.583 11.522,10.583 11.942,11.002 C12.361,11.422 12.361,12.104 11.942,12.523 C11.522,12.943 10.840,12.943 10.421,12.524 ZM10.420,52.253 C10.001,51.834 10.001,51.151 10.420,50.732 C10.840,50.313 11.522,50.313 11.942,50.732 C12.361,51.152 12.361,51.834 11.942,52.253 C11.522,52.673 10.840,52.673 10.420,52.253 ZM51.672,50.732 C52.091,51.152 52.091,51.834 51.672,52.253 C51.252,52.673 50.570,52.673 50.150,52.253 C49.731,51.834 49.731,51.151 50.150,50.732 C50.570,50.313 51.252,50.313 51.672,50.732 ZM51.672,11.002 C52.091,11.421 52.091,12.104 51.672,12.524 C51.252,12.943 50.570,12.943 50.150,12.523 C49.731,12.104 49.731,11.422 50.150,11.002 C50.570,10.582 51.252,10.582 51.672,11.002 Z"/>
</svg>