<svg 
 xmlns="http://www.w3.org/2000/svg"
 xmlns:xlink="http://www.w3.org/1999/xlink"
 width="77px" height="77px">
<path fill-rule="evenodd"  fill="rgb(140, 181, 50)"
 d="M75.037,28.708 L73.639,28.077 C76.618,21.113 75.057,12.904 69.699,7.537 C66.245,4.079 61.433,2.095 56.497,2.095 C53.958,2.095 51.502,2.598 49.191,3.591 L48.560,2.191 C51.069,1.108 53.737,0.560 56.495,0.560 C61.840,0.560 67.048,2.707 70.785,6.449 C76.591,12.264 78.277,21.165 75.037,28.708 ZM52.722,17.134 C53.607,16.532 54.645,16.214 55.722,16.214 C57.144,16.214 58.480,16.767 59.481,17.770 C61.282,19.574 61.551,22.418 60.120,24.534 L59.947,24.790 L70.463,35.308 L69.919,35.853 C66.174,39.604 61.290,41.587 55.798,41.587 C55.797,41.587 55.798,41.587 55.797,41.587 C53.651,41.587 51.455,41.275 49.268,40.659 L49.057,40.599 L45.203,44.459 L44.119,43.373 L47.349,40.139 L45.208,37.995 L41.978,41.230 L40.895,40.144 L44.124,36.910 L40.371,33.151 L37.142,36.385 L36.058,35.300 L39.287,32.066 L37.147,29.921 L33.917,33.156 L32.833,32.070 L36.687,28.210 L36.628,27.999 C34.416,20.125 36.159,12.592 41.409,7.334 L41.952,6.791 L52.466,17.308 L52.722,17.134 ZM58.395,18.858 C57.682,18.143 56.731,17.750 55.718,17.750 C55.126,17.750 54.535,17.889 54.008,18.154 L53.545,18.387 L58.869,23.712 L59.100,23.248 C59.834,21.779 59.550,20.015 58.395,18.858 ZM39.106,13.178 C36.809,17.882 36.626,23.550 38.590,29.139 L38.619,29.219 L48.051,38.667 L48.131,38.694 C50.679,39.592 53.244,40.047 55.754,40.047 C58.727,40.047 61.523,39.417 64.063,38.174 L64.534,37.944 L39.336,12.707 L39.106,13.178 ZM41.696,9.271 C41.213,9.822 40.760,10.413 40.312,11.082 L40.140,11.337 L65.903,37.138 L66.158,36.967 C66.831,36.513 67.428,36.056 67.984,35.567 L68.283,35.304 L41.958,8.971 L41.696,9.271 ZM33.384,40.149 L37.137,43.907 L38.751,42.291 L62.407,65.983 L51.633,76.774 L27.976,53.082 L29.591,51.465 L25.838,47.706 L24.224,49.324 L0.568,25.631 L11.343,14.840 L34.999,38.532 L33.384,40.149 ZM32.297,41.237 L30.154,43.384 L33.907,47.142 L36.050,44.996 L32.297,41.237 ZM38.749,44.464 L34.991,48.228 L37.132,50.372 L40.890,46.608 L38.749,44.464 ZM41.973,47.694 L38.216,51.457 L40.357,53.601 L44.114,49.838 L41.973,47.694 ZM45.198,50.923 L41.440,54.687 L43.581,56.831 L47.339,53.067 L45.198,50.923 ZM48.423,54.153 L44.665,57.916 L46.806,60.060 L50.563,56.296 L48.423,54.153 ZM51.647,57.382 L47.890,61.145 L50.030,63.290 L53.788,59.526 L51.647,57.382 ZM54.872,60.611 L51.114,64.375 L53.255,66.519 L57.013,62.756 L54.872,60.611 ZM60.237,65.985 L58.097,63.841 L54.338,67.605 L56.479,69.749 L60.237,65.985 ZM51.635,74.600 L55.393,70.836 L53.252,68.693 L49.494,72.456 L51.635,74.600 ZM48.410,71.371 L52.168,67.607 L50.027,65.463 L46.270,69.227 L48.410,71.371 ZM45.186,68.141 L48.944,64.378 L46.803,62.234 L43.045,65.998 L45.186,68.141 ZM41.961,64.912 L45.719,61.149 L43.579,59.004 L39.820,62.768 L41.961,64.912 ZM38.737,61.683 L42.495,57.918 L40.354,55.775 L36.596,59.538 L38.737,61.683 ZM35.512,58.452 L39.270,54.689 L37.129,52.545 L33.372,56.309 L35.512,58.452 ZM32.287,55.223 L36.046,51.460 L33.905,49.316 L30.147,53.079 L32.287,55.223 ZM30.678,50.377 L32.821,48.230 L29.068,44.471 L26.925,46.618 L30.678,50.377 ZM24.226,47.150 L27.984,43.386 L25.843,41.242 L22.085,45.006 L24.226,47.150 ZM21.002,43.920 L24.759,40.156 L22.619,38.013 L18.861,41.776 L21.002,43.920 ZM17.777,40.691 L21.535,36.927 L19.394,34.783 L15.636,38.547 L17.777,40.691 ZM14.553,37.461 L18.310,33.697 L16.170,31.553 L12.412,35.317 L14.553,37.461 ZM11.328,34.232 L15.086,30.468 L12.945,28.324 L9.187,32.087 L11.328,34.232 ZM8.103,31.002 L11.861,27.239 L9.720,25.094 L5.962,28.858 L8.103,31.002 ZM2.738,25.629 L4.879,27.773 L8.637,24.009 L6.496,21.865 L2.738,25.629 ZM11.340,17.013 L7.582,20.777 L9.723,22.921 L13.481,19.157 L11.340,17.013 ZM14.565,20.243 L10.807,24.006 L12.948,26.151 L16.706,22.387 L14.565,20.243 ZM17.789,23.472 L14.031,27.236 L16.172,29.380 L19.930,25.616 L17.789,23.472 ZM21.014,26.702 L17.256,30.466 L19.397,32.609 L23.155,28.846 L21.014,26.702 ZM24.238,29.931 L20.480,33.695 L22.621,35.839 L26.379,32.075 L24.238,29.931 ZM27.463,33.161 L23.705,36.924 L25.846,39.069 L29.604,35.305 L27.463,33.161 ZM30.688,36.390 L26.930,40.154 L29.070,42.298 L32.828,38.535 L30.688,36.390 ZM18.856,48.240 L15.626,51.474 L17.767,53.618 L20.996,50.384 L22.080,51.470 L18.851,54.704 L22.604,58.463 L25.833,55.228 L26.917,56.314 L23.688,59.548 L25.829,61.692 L29.058,58.458 L30.142,59.543 L25.826,63.866 L13.456,51.477 L17.772,47.155 L18.856,48.240 ZM56.550,11.217 C55.637,11.217 54.728,11.349 53.845,11.610 L53.357,10.152 C54.402,9.838 55.477,9.679 56.558,9.679 C59.481,9.679 62.240,10.829 64.326,12.918 C67.219,15.816 68.260,19.994 67.087,23.904 L65.632,23.415 C66.619,20.064 65.719,16.489 63.240,14.006 C61.444,12.208 59.068,11.217 56.550,11.217 ZM66.469,10.772 C63.812,8.111 60.288,6.646 56.544,6.646 C54.821,6.646 53.131,6.959 51.515,7.577 L50.932,6.156 C52.737,5.461 54.625,5.108 56.550,5.108 C60.701,5.108 64.609,6.733 67.555,9.684 C71.933,14.068 73.295,20.567 71.076,26.337 L69.657,25.754 C71.639,20.559 70.407,14.715 66.469,10.772 Z"/>
</svg>