<svg 
 xmlns="http://www.w3.org/2000/svg"
 xmlns:xlink="http://www.w3.org/1999/xlink"
 width="73px" height="73px">
<path fill-rule="evenodd"  fill="rgb(140, 181, 50)"
 d="M71.730,37.341 L69.223,37.341 C68.764,54.671 54.760,68.674 37.430,69.134 L37.430,71.641 C37.430,72.125 37.037,72.518 36.554,72.518 C36.070,72.518 35.677,72.125 35.677,71.641 L35.677,69.134 C18.348,68.674 4.344,54.671 3.884,37.341 L1.378,37.341 C0.894,37.341 0.501,36.949 0.501,36.465 C0.501,35.981 0.894,35.588 1.378,35.588 L3.884,35.588 C4.344,18.259 18.348,4.255 35.677,3.796 L35.677,1.289 C35.677,0.805 36.070,0.413 36.554,0.413 C37.037,0.413 37.430,0.805 37.430,1.289 L37.430,3.796 C54.760,4.255 68.764,18.259 69.223,35.588 L71.730,35.588 C72.214,35.588 72.606,35.981 72.606,36.465 C72.606,36.949 72.214,37.341 71.730,37.341 ZM65.008,35.588 L67.470,35.588 C67.012,19.226 53.793,6.007 37.430,5.549 L37.430,8.011 C37.430,8.494 37.037,8.887 36.554,8.887 C36.070,8.887 35.677,8.494 35.677,8.011 L35.677,5.549 C19.314,6.007 6.096,19.226 5.638,35.588 L8.100,35.588 C8.584,35.588 8.976,35.981 8.976,36.465 C8.976,36.949 8.584,37.341 8.100,37.341 L5.638,37.341 C6.096,53.704 19.314,66.923 35.677,67.381 L35.677,64.919 C35.677,64.435 36.070,64.043 36.554,64.043 C37.037,64.043 37.430,64.435 37.430,64.919 L37.430,67.381 C53.793,66.923 67.012,53.704 67.470,37.341 L65.008,37.341 C64.524,37.341 64.131,36.949 64.131,36.465 C64.131,35.981 64.524,35.588 65.008,35.588 ZM36.554,58.554 C24.374,58.554 14.465,48.645 14.465,36.465 C14.465,24.285 24.374,14.376 36.554,14.376 C40.323,14.376 44.046,15.343 47.317,17.171 C47.740,17.407 47.891,17.942 47.655,18.364 C47.419,18.788 46.884,18.938 46.462,18.702 C43.451,17.019 40.024,16.129 36.554,16.129 C25.340,16.129 16.218,25.251 16.218,36.465 C16.218,47.678 25.340,56.801 36.554,56.801 C47.767,56.801 56.890,47.678 56.890,36.465 C56.890,32.994 56.001,29.569 54.318,26.558 C54.081,26.136 54.233,25.602 54.656,25.366 C55.077,25.131 55.611,25.280 55.848,25.704 C57.677,28.974 58.643,32.696 58.643,36.465 C58.643,48.645 48.734,58.554 36.554,58.554 ZM36.554,47.951 C30.220,47.951 25.068,42.798 25.068,36.465 C25.068,30.132 30.220,24.979 36.554,24.979 C42.888,24.979 48.040,30.132 48.040,36.465 C48.040,42.798 42.888,47.951 36.554,47.951 ZM36.554,26.732 C31.187,26.732 26.821,31.098 26.821,36.465 C26.821,41.832 31.187,46.198 36.554,46.198 C41.921,46.198 46.287,41.832 46.287,36.465 C46.287,31.098 41.921,26.732 36.554,26.732 ZM36.554,40.804 C34.161,40.804 32.215,38.858 32.215,36.465 C32.215,34.072 34.161,32.125 36.554,32.125 C38.946,32.125 40.893,34.072 40.893,36.465 C40.893,38.858 38.946,40.804 36.554,40.804 ZM36.554,33.878 C35.128,33.878 33.968,35.039 33.968,36.465 C33.968,37.891 35.128,39.051 36.554,39.051 C37.980,39.051 39.140,37.891 39.140,36.465 C39.140,35.039 37.980,33.878 36.554,33.878 ZM55.368,22.491 C55.368,22.491 55.367,22.491 55.366,22.491 L52.089,22.482 L52.080,25.759 C52.079,26.242 51.686,26.633 51.204,26.633 C51.203,26.633 51.202,26.633 51.201,26.633 C50.717,26.632 50.326,26.238 50.327,25.754 L50.336,22.477 L47.058,22.468 C46.574,22.467 46.183,22.073 46.184,21.589 C46.185,21.106 46.578,20.715 47.060,20.715 C47.061,20.715 47.062,20.715 47.063,20.715 L50.340,20.724 L50.349,17.446 C50.350,16.963 50.743,16.572 51.226,16.572 C51.226,16.572 51.227,16.572 51.228,16.572 C51.712,16.573 52.104,16.967 52.102,17.451 L52.094,20.729 L55.371,20.737 C55.855,20.739 56.246,21.132 56.245,21.616 C56.244,22.100 55.851,22.491 55.368,22.491 Z"/>
</svg>