<svg 
 xmlns="http://www.w3.org/2000/svg"
 xmlns:xlink="http://www.w3.org/1999/xlink"
 width="47px" height="47px">
<path fill-rule="evenodd"  fill="rgb(255, 255, 255)"
 d="M23.788,46.169 C11.073,46.169 0.766,35.863 0.766,23.148 C0.766,10.433 11.073,0.126 23.788,0.126 C36.503,0.126 46.810,10.433 46.810,23.148 C46.810,35.863 36.503,46.169 23.788,46.169 ZM23.788,2.613 C12.465,2.613 3.254,11.825 3.254,23.148 C3.254,34.471 12.465,43.682 23.788,43.682 C35.111,43.682 44.322,34.471 44.322,23.148 C44.322,11.825 35.111,2.613 23.788,2.613 ZM25.010,34.259 L22.566,34.259 L22.566,24.370 L12.677,24.370 L12.677,21.926 L22.566,21.926 L22.566,12.036 L25.010,12.036 L25.010,21.926 L34.899,21.926 L34.899,24.370 L25.010,24.370 L25.010,34.259 Z"/>
</svg>