<svg version="1.2" xmlns="http://www.w3.org/2000/svg" viewBox="0 0 25 11" width="25" height="11">
	<title>Artboard 1</title>
	<defs>
		<clipPath clipPathUnits="userSpaceOnUse" id="cp1">
			<path d="m-1137-459h1920v1080h-1920z"/>
		</clipPath>
	</defs>
	<style>
		.s0 { fill: #717177 } 
	</style>
	<g id="Artboard 1" clip-path="url(#cp1)">
		<g id="Home-2">
			<path id="-e- arr" class="s0" d="m23 6q0 0.3-0.2 0.5l-3.5 3.3q-0.2 0.2-0.5 0.2-0.3 0-0.5-0.2c-0.3-0.3-0.3-0.7 0-1l2.2-2.1h-17.8c-0.4 0-0.7-0.3-0.7-0.7 0-0.4 0.3-0.7 0.7-0.7h17.8l-2.2-2.1c-0.3-0.3-0.3-0.7 0-1 0.3-0.3 0.7-0.3 1 0l3.5 3.3q0.2 0.2 0.2 0.5z"/>
		</g>
	</g>
</svg>