<svg width="23" height="16" viewBox="0 0 23 16" fill="none" xmlns="http://www.w3.org/2000/svg">
<path fill-rule="evenodd" clip-rule="evenodd" d="M0 8.00014C0 7.80611 0.0790615 7.6208 0.210594 7.48127L7.3255 0.215012C7.60653 -0.0720339 8.0615 -0.0713072 8.34181 0.215012C8.62284 0.501331 8.62284 0.966419 8.34181 1.25274L2.45309 7.26617H22.2812C22.678 7.26617 23 7.59464 23 8.00014C23 8.40563 22.678 8.7341 22.2812 8.7341H2.45381L8.34181 14.7475C8.62284 15.0339 8.62213 15.4989 8.34181 15.7853C8.06078 16.0716 7.60581 16.0716 7.3255 15.7853L0.210594 8.519C0.0761871 8.38165 0.0021553 8.19271 0 8.00014Z" fill="black"/>
</svg>
