<svg width="15" height="15" viewBox="0 0 15 15" fill="none" xmlns="http://www.w3.org/2000/svg">
<g clip-path="url(#clip0_36_21)">
<path fill-rule="evenodd" clip-rule="evenodd" d="M14.5349 7.27152C14.5349 7.15024 14.4849 7.03442 14.4018 6.94721L9.90552 2.40551C9.72793 2.22609 9.44041 2.22655 9.26326 2.40551C9.08566 2.58447 9.08566 2.87517 9.26326 3.05413L12.9846 6.81276H0.454215C0.203488 6.81276 0 7.01806 0 7.27152C0 7.52497 0.203488 7.73027 0.454215 7.73027H12.9842L9.26326 11.4889C9.08566 11.6679 9.08612 11.9586 9.26326 12.1375C9.44086 12.3165 9.72838 12.3165 9.90552 12.1375L14.4018 7.59582C14.4867 7.50998 14.5335 7.39188 14.5349 7.27152Z" fill="white"/>
</g>
<defs>
<clipPath id="clip0_36_21">
<rect width="14.5349" height="14.5349" fill="white"/>
</clipPath>
</defs>
</svg>
