<svg width="18" height="14" viewBox="0 0 18 14" fill="none" xmlns="http://www.w3.org/2000/svg">
<path fill-rule="evenodd" clip-rule="evenodd" d="M18 7.00505C18 6.85487 17.9381 6.71143 17.8352 6.60343L12.267 0.978991C12.0471 0.756803 11.691 0.757366 11.4716 0.978991C11.2517 1.20062 11.2517 1.56062 11.4716 1.78224L16.0802 6.43693H0.5625C0.252 6.43693 0 6.69118 0 7.00505C0 7.31893 0.252 7.57318 0.5625 7.57318H16.0796L11.4716 12.2279C11.2517 12.4495 11.2522 12.8095 11.4716 13.0311C11.6916 13.2527 12.0476 13.2527 12.267 13.0311L17.8352 7.40668C17.9404 7.30037 17.9983 7.15412 18 7.00505Z" fill="white"/>
</svg>
