<svg width="11" height="11" viewBox="0 0 11 11" fill="none" xmlns="http://www.w3.org/2000/svg">
<g clip-path="url(#clip0_41_6704)">
<path fill-rule="evenodd" clip-rule="evenodd" d="M9.67625 1H9.13883V0.5C9.13883 0.225 8.89699 0 8.60141 0C8.30582 0 8.06398 0.225 8.06398 0.5V1H2.68974V0.5C2.68974 0.225 2.4479 0 2.15232 0C1.85674 0 1.6149 0.225 1.6149 0.5V1H1.07747C0.486306 1 0.00262451 1.45 0.00262451 2V10C0.00262451 10.55 0.486306 11 1.07747 11H9.67625C10.2674 11 10.7511 10.55 10.7511 10V2C10.7511 1.45 10.2674 1 9.67625 1ZM9.13883 10H1.6149C1.31931 10 1.07747 9.775 1.07747 9.5V3.5H9.67625V9.5C9.67625 9.775 9.43441 10 9.13883 10Z" fill="#A2A2A2"/>
</g>
<defs>
<clipPath id="clip0_41_6704">
<rect width="10.7485" height="11" fill="white" transform="translate(0.00262451)"/>
</clipPath>
</defs>
</svg>
