<svg width="65" height="60" viewBox="0 0 65 60" fill="none" xmlns="http://www.w3.org/2000/svg">
<path d="M64.43 31.3599L59.1 24.5499C58.8409 24.2461 58.519 24.0021 58.1564 23.8348C57.7939 23.6675 57.3993 23.5808 57 23.5808C56.6007 23.5808 56.2062 23.6675 55.8436 23.8348C55.4811 24.0021 55.1591 24.2461 54.9 24.5499L49.57 31.3599C49.3547 31.6356 49.1957 31.9511 49.1023 32.2883C49.0088 32.6255 48.9827 32.9778 49.0254 33.3251C49.0682 33.6724 49.1789 34.0079 49.3512 34.3124C49.5236 34.6169 49.7542 34.8845 50.03 35.0999C50.3058 35.3152 50.6213 35.4742 50.9585 35.5676C51.2957 35.6611 51.648 35.6872 51.9953 35.6445C52.3426 35.6017 52.6781 35.491 52.9826 35.3187C53.2871 35.1463 53.5547 34.9156 53.77 34.6399L53.96 34.3899C53.0437 39.6996 50.3673 44.5465 46.3616 48.1503C42.3559 51.7542 37.2541 53.9052 31.8774 54.2572C26.5006 54.6092 21.1619 53.1416 16.7206 50.0907C12.2793 47.0399 8.99383 42.5832 7.39312 37.4383C5.79241 32.2933 5.96958 26.7593 7.89612 21.7273C9.82266 16.6953 13.3865 12.4579 18.0138 9.69742C22.6412 6.9369 28.0629 5.81384 33.4061 6.50903C38.7493 7.20421 43.7031 9.6772 47.47 13.5299C47.9737 13.9906 48.6348 14.2409 49.3174 14.2293C49.9999 14.2178 50.6521 13.9452 51.1399 13.4676C51.6277 12.9901 51.9141 12.3438 51.9401 11.6616C51.9662 10.9795 51.73 10.3133 51.28 9.79987C46.6221 5.03869 40.4833 2.00344 33.8721 1.19282C27.2609 0.382206 20.5706 1.84443 14.9004 5.33926C9.23019 8.83408 4.91735 14.1536 2.67048 20.4239C0.423601 26.6942 0.376325 33.5423 2.53642 39.843C4.69651 46.1437 8.93549 51.5223 14.5569 55.0951C20.1783 58.6678 26.8478 60.2223 33.4695 59.503C40.0913 58.7838 46.2714 55.8336 50.9946 51.1371C55.7178 46.4407 58.7031 40.2774 59.46 33.6599L60.23 34.6599C60.665 35.2168 61.3034 35.5782 62.0047 35.6644C62.7061 35.7507 63.4131 35.5548 63.97 35.1199C64.527 34.6849 64.8883 34.0465 64.9746 33.3451C65.0609 32.6438 64.865 31.9368 64.43 31.3799V31.3599Z" fill="#101010"/>
<path d="M30.33 11.6699C29.6254 11.6726 28.9503 11.9537 28.452 12.4519C27.9538 12.9502 27.6727 13.6253 27.67 14.3299V30.3299C27.667 30.5393 27.694 30.7481 27.75 30.9499C27.79 31.1465 27.8609 31.3355 27.96 31.5099C28.0288 31.6852 28.1268 31.8475 28.25 31.9899C28.25 31.9899 28.31 32.0699 28.33 32.0899C28.4419 32.2217 28.5695 32.3393 28.71 32.4399L28.82 32.5199L33 35.6699L39.4 40.4699C39.8593 40.82 40.4225 41.0066 41 40.9999C41.5587 40.9978 42.1027 40.8206 42.5553 40.493C43.0079 40.1655 43.3464 39.7043 43.5231 39.1743C43.6997 38.6443 43.7057 38.0722 43.5401 37.5386C43.3745 37.005 43.0457 36.5368 42.6 36.1999L41.75 35.5599L38.33 32.9999L34.79 30.3299L33 28.9999V14.3299C32.9974 13.6235 32.7149 12.947 32.2145 12.4484C31.714 11.9498 31.0364 11.6699 30.33 11.6699Z" fill="#101010"/>
</svg>
