<svg version="1.2" xmlns="http://www.w3.org/2000/svg" viewBox="0 0 28 28" width="28" height="28">
	<title>Artboard 1</title>
	<defs>
		<clipPath clipPathUnits="userSpaceOnUse" id="cp1">
			<path d="m-1262-474h1920v1080h-1920z"/>
		</clipPath>
	</defs>
	<style>
		.s0 { fill: #1e1e1f } 
	</style>
	<g id="Artboard 1" clip-path="url(#cp1)">
		<g id="Group 1">
			<g id="Group 2">
				<path id="-e- close" fill-rule="evenodd" class="s0" d="m19.6 10.8l-3.7 3.7 3.7 3.7-1.5 1.4-3.7-3.7-3.7 3.7-1.4-1.4 3.7-3.7-3.7-3.7 1.4-1.5 3.7 3.7 3.7-3.7zm7.3 3.7c0 6.9-5.6 12.5-12.4 12.5-6.9 0-12.5-5.6-12.5-12.5 0-6.9 5.6-12.5 12.5-12.5 6.8 0 12.4 5.6 12.4 12.5zm-2 0c0-5.7-4.7-10.4-10.4-10.4-5.8 0-10.4 4.7-10.4 10.4 0 5.7 4.6 10.4 10.4 10.4 5.7 0 10.4-4.7 10.4-10.4z"/>
			</g>
		</g>
	</g>
</svg>