<svg xmlns="http://www.w3.org/2000/svg" width="202.801" height="62.873" viewBox="0 0 202.801 62.873">
  <g id="Group_15" data-name="Group 15" transform="translate(329.824 252.359) rotate(180)" style="mix-blend-mode: normal;isolation: isolate">
    <rect id="Rectangle_2" data-name="Rectangle 2" width="201.301" height="0.276" transform="translate(127.773 251.333)" fill="#d9a53b" stroke="#d9a53b" stroke-width="1.5"/>
    <g id="Group_9" data-name="Group 9" transform="translate(236.53 201.891)">
      <g id="Group_8" data-name="Group 8" transform="translate(2.463 10.142)">
        <path id="Path_36" data-name="Path 36" d="M93.714,199.2c4.939-.223,9.5-.739,12.551,3.752,1.847,2.718,1.734,6.843,4.721,8.74-7.682,2.787-6.062-7.358-10.865-7.622,2.253,1.059,2.023,3.611,2.352,5.733.126.163.136.156.03-.02-4.113-1.9-3.628-5.965-6.378-9.166Z" transform="translate(-93.714 -197.927)" fill="#d9a53b"/>
        <path id="Path_37" data-name="Path 37" d="M94.255,198.67c8.7-.475,11.414,1.432,15.361,9.213,5.209,10.254,7.993-3.235,3.331-1.724-.188.331-.393.769-.539,1.051.185.111.092.606.1.784.542.094,1.254.507,1.692.554-.015.037-.247,1.071-.252,1.051-3.126,1.029-3.579-3.618-4.961-5.614a14.838,14.838,0,0,0-6.922-5.112Z" transform="translate(-92.917 -198.603)" fill="#d9a53b"/>
      </g>
      <path id="Path_38" data-name="Path 38" d="M92.718,207.974c1.89-4.894,3.045-9.576,7.721-11.933,3.841-1.932,8.557-1.306,12.539-1.415-3.554.4-7.229,2.607-7.677,6.225,3.611-2.827,9.245-2.968,13.664-1.553,5.045,1.613,7.914,7.19,13.412,8.345,5.018,1.054,11.191-1.608,9.658-7.387-2.154-8.119-11.562-1.316-5.951,1.293,2.278-2.612,4,1.8.866,2.4-3.319.638-5.983-3.762-5.251-6.148,2.1-6.863,12.789-1.734,13.155,3.861.351,5.3-8.112,9.537-12.816,9.307-6.69-.322-11.045-7.328-17.988-6.312,3.277.613,7.635,5.78,11.562,7.37-5.278,2.807-10-.329-14.3-2.978-5.97-3.685-10.392-2.446-16.145-2.824Z" transform="translate(-92.718 -194.502)" fill="#d9a53b"/>
    </g>
    <g id="Group_11" data-name="Group 11" transform="translate(176.632 201.891)">
      <g id="Group_10" data-name="Group 10" transform="translate(27.282 10.142)">
        <path id="Path_39" data-name="Path 39" d="M98.873,199.2c-4.936-.223-9.5-.739-12.546,3.752-1.847,2.718-1.734,6.843-4.721,8.74,7.677,2.787,6.062-7.358,10.865-7.622-2.256,1.059-2.023,3.611-2.354,5.733-.124.163-.134.156-.027-.02,4.113-1.9,3.626-5.965,6.378-9.166Z" transform="translate(-76.473 -197.927)" fill="#d9a53b"/>
        <path id="Path_40" data-name="Path 40" d="M100.594,198.67c-8.7-.475-11.409,1.432-15.361,9.213-5.206,10.254-7.991-3.235-3.329-1.724.188.331.393.769.537,1.051-.185.111-.092.606-.1.784-.542.094-1.254.507-1.694.554.017.037.247,1.071.255,1.051,3.126,1.029,3.579-3.618,4.961-5.614a14.82,14.82,0,0,1,6.925-5.112Z" transform="translate(-79.53 -198.603)" fill="#d9a53b"/>
      </g>
      <path id="Path_41" data-name="Path 41" d="M120.649,207.974c-1.89-4.894-3.044-9.576-7.724-11.933-3.836-1.932-8.555-1.306-12.537-1.415,3.556.4,7.227,2.607,7.677,6.225-3.611-2.827-9.245-2.968-13.662-1.553-5.048,1.613-7.917,7.19-13.417,8.345-5.016,1.054-11.189-1.608-9.655-7.387,2.154-8.119,11.56-1.316,5.948,1.293-2.278-2.612-4,1.8-.863,2.4,3.319.638,5.983-3.762,5.251-6.148-2.1-6.863-12.789-1.734-13.157,3.861-.349,5.3,8.115,9.537,12.819,9.307,6.69-.322,11.043-7.328,17.985-6.312-3.277.613-7.632,5.78-11.56,7.37,5.278,2.807,10-.329,14.293-2.978,5.973-3.685,10.392-2.446,16.147-2.824Z" transform="translate(-68.499 -194.502)" fill="#d9a53b"/>
    </g>
    <g id="Group_12" data-name="Group 12" transform="translate(218.511 189.486)">
      <path id="Path_42" data-name="Path 42" d="M99.037,210.713c3.067-3.069,3.054-6.492,1.914-10.6-.893-3.2-3.965-7.452-7.892-6.811-3.19.524-6.841,5.693-3.759,8.419a2.642,2.642,0,0,0,4.214-.688c.957-2.3-1.143-2.53-2.095-.8a2.35,2.35,0,0,0-.663-.245c-1.355-6.116,7.786-4.422,7.988.69a3.107,3.107,0,0,0-3.851-.307c.9,3.111,6.351,5.364,3.764,8.77Z" transform="translate(-81.45 -183.953)" fill="#d9a53b"/>
      <path id="Path_43" data-name="Path 43" d="M92.585,198.305c-2.528-1.84-3.23-6.68-1.049-8.819,2.886,1.8,4.622,6.547,3.284,9.692a17.882,17.882,0,0,0-2.354-4.941c-.054.811-.517,2.75.143,3.814Z" transform="translate(-78.357 -189.486)" fill="#d9a53b"/>
      <path id="Path_44" data-name="Path 44" d="M93.327,196.38c-4.014.606-5.345-1.558-6.527-4.9,2.654-2.74,7.172,1.153,7.783,4a7.727,7.727,0,0,1-4.311-2.6,3.549,3.549,0,0,0,2.587,2.946Z" transform="translate(-83.417 -187.922)" fill="#d9a53b"/>
      <path id="Path_45" data-name="Path 45" d="M92.2,194.758c-2.221,2.179-4.152,2.468-6.678.663.91-3.153,4.684-2.322,6.5-1.192a8.629,8.629,0,0,0-3.314.492,2.867,2.867,0,0,0,3.213.27Z" transform="translate(-85.299 -183.992)" fill="#d9a53b"/>
      <path id="Path_46" data-name="Path 46" d="M90.423,196.274c-.88,1.9-3,3.561-4.991,2.674,1.224-2.79,1.786-4.083,5.253-3.67a3.889,3.889,0,0,0-2.644,1.964c.012,0-.015-.017-.02,0a8.061,8.061,0,0,0,2.908-.913Z" transform="translate(-85.432 -181.066)" fill="#d9a53b"/>
      <path id="Path_47" data-name="Path 47" d="M87.812,196.475c-.92,2.636-.257,5.95,3.054,5.852.552-2.129-.762-3.7-2.382-4.929a3.277,3.277,0,0,0,.747,2.3,3.066,3.066,0,0,1-1.462-2.708Z" transform="translate(-82.483 -179.19)" fill="#d9a53b"/>
      <path id="Path_48" data-name="Path 48" d="M93.615,199.559c-1.031-3.089-1.1-7.3,2.473-8.723,1.38,3.156,1.776,6.838-.925,9.089a9.169,9.169,0,0,0,.371-5.56,5.491,5.491,0,0,0-1.81,3.922Z" transform="translate(-74.282 -187.497)" fill="#d9a53b"/>
    </g>
    <g id="Group_13" data-name="Group 13" transform="translate(220.936 211.814)">
      <path id="Path_49" data-name="Path 49" d="M90.111,198.514c-3.064,3.067-3.052,6.492-1.914,10.593.9,3.2,3.965,7.454,7.892,6.814,3.193-.524,6.846-5.693,3.764-8.419a2.641,2.641,0,0,0-4.214.688c-.96,2.3,1.14,2.53,2.09.8a2.409,2.409,0,0,0,.663.245c1.36,6.116-7.786,4.422-7.988-.69a3.107,3.107,0,0,0,3.853.3c-.9-3.109-6.349-5.364-3.762-8.767Z" transform="translate(-84.819 -198.514)" fill="#d9a53b"/>
      <path id="Path_50" data-name="Path 50" d="M91.52,206.288c2.528,1.84,3.228,6.68,1.049,8.819-2.891-1.8-4.627-6.547-3.289-9.692a17.993,17.993,0,0,0,2.357,4.941c.054-.811.517-2.753-.143-3.814Z" transform="translate(-82.865 -188.348)" fill="#d9a53b"/>
      <path id="Path_51" data-name="Path 51" d="M92.407,205.975c4.012-.606,5.342,1.558,6.524,4.9-2.651,2.74-7.172-1.153-7.783-4a7.734,7.734,0,0,1,4.313,2.6,3.552,3.552,0,0,0-2.589-2.946Z" transform="translate(-79.436 -187.673)" fill="#d9a53b"/>
      <path id="Path_52" data-name="Path 52" d="M92.874,206.081c2.221-2.179,4.15-2.468,6.678-.663-.908,3.153-4.684,2.322-6.5,1.192a8.641,8.641,0,0,0,3.317-.492,2.87,2.87,0,0,0-3.215-.27Z" transform="translate(-76.894 -190.087)" fill="#d9a53b"/>
      <path id="Path_53" data-name="Path 53" d="M93.949,204.924c.878-1.9,3-3.561,4.993-2.673-1.227,2.787-1.788,4.083-5.256,3.668a3.874,3.874,0,0,0,2.641-1.961c-.007,0,.015.017.022,0a8.011,8.011,0,0,0-2.911.913Z" transform="translate(-76.06 -193.372)" fill="#d9a53b"/>
      <path id="Path_54" data-name="Path 54" d="M95.4,205.829c.918-2.634.257-5.948-3.054-5.849-.552,2.129.762,3.7,2.384,4.927a3.273,3.273,0,0,0-.749-2.293,3.071,3.071,0,0,1,1.462,2.708Z" transform="translate(-77.854 -196.357)" fill="#d9a53b"/>
      <path id="Path_55" data-name="Path 55" d="M89.96,204.675c1.031,3.089,1.1,7.3-2.473,8.723-1.38-3.156-1.776-6.838.923-9.089a9.168,9.168,0,0,0-.369,5.56,5.513,5.513,0,0,0,1.813-3.923Z" transform="translate(-86.413 -189.977)" fill="#d9a53b"/>
    </g>
  </g>
</svg>
