<svg width="48" height="51" viewBox="0 0 48 51" fill="none" xmlns="http://www.w3.org/2000/svg">
<mask id="mask0_57_160" style="mask-type:alpha" maskUnits="userSpaceOnUse" x="-1" y="-1" width="49" height="52">
<path d="M23.495 23.2734C22.0843 23.2732 20.7052 23.6911 19.5319 24.4748C18.3588 25.2584 17.4444 26.3723 16.9043 27.6757C16.3644 28.9791 16.2229 30.4132 16.498 31.7969C16.7732 33.1806 17.4525 34.4516 18.4501 35.4492C19.4477 36.4468 20.7187 37.1262 22.1024 37.4013C23.4861 37.6765 24.9203 37.5352 26.2237 36.9951C27.527 36.455 28.6409 35.5405 29.4246 34.3675C30.2082 33.1944 30.6262 31.815 30.6259 30.4043C30.6239 28.5137 29.8718 26.7013 28.5351 25.3643C27.1983 24.0275 25.3857 23.2755 23.495 23.2734ZM23.495 36.8913C22.2121 36.8916 20.9577 36.5113 19.8907 35.7988C18.8237 35.0861 17.9921 34.0732 17.5007 32.8879C17.0096 31.7026 16.8808 30.3982 17.131 29.1397C17.3811 27.8812 17.9988 26.7253 18.9058 25.8179C19.8132 24.9106 20.9689 24.2925 22.2274 24.042C23.4859 23.7916 24.7902 23.9199 25.9755 24.411C27.1611 24.9019 28.1742 25.7333 28.887 26.8002C29.6 27.867 29.9805 29.1211 29.9805 30.4043C29.9787 32.1239 29.295 33.7728 28.0791 34.9889C26.8632 36.2048 25.2148 36.889 23.495 36.8913Z" fill="white"/>
<path d="M34.4923 40.9004C36.0227 40.8984 37.49 40.2892 38.572 39.2069C39.654 38.1246 40.2627 36.6573 40.2643 35.1267V26.6211C40.261 23.8404 39.1547 21.1743 37.1886 19.2081C35.2222 17.2417 32.5563 16.1355 29.7754 16.1322H28.9864V13.8231C29.5739 13.6114 30.0822 13.2238 30.4417 12.713C30.8013 12.2022 30.9946 11.593 30.9954 10.9685V7.86548C30.9946 7.06066 30.6746 6.289 30.1054 5.72007C29.5364 5.15088 28.7648 4.83084 27.9602 4.83008H19.0284C18.2236 4.83084 17.4522 5.15088 16.883 5.72007C16.3141 6.289 15.9941 7.06066 15.993 7.86548V10.9685C15.9943 11.593 16.1879 12.202 16.5474 12.7125C16.9068 13.2233 17.4147 13.6109 18.002 13.8231V16.1322H8.06831C5.92927 16.1347 3.87847 16.9857 2.366 18.4982C0.853523 20.0107 0.00255011 22.0615 0 24.2005V35.1267C0.00178508 36.6573 0.610241 38.1246 1.69251 39.2069C2.77452 40.2892 4.2416 40.8984 5.77218 40.9004H34.4923ZM17.2842 10.9685V7.86548C17.2844 7.40289 17.4683 6.95942 17.7955 6.63224C18.1224 6.30532 18.5659 6.12146 19.0284 6.12095H27.9602C28.4226 6.12146 28.866 6.30532 29.1932 6.63224C29.5201 6.95942 29.704 7.40289 29.7045 7.86548V10.9685C29.704 11.4311 29.5201 11.8748 29.1932 12.202C28.8663 12.5294 28.4228 12.7135 27.9602 12.7145H19.0284C18.5659 12.7135 18.1224 12.5294 17.7952 12.202C17.4683 11.8748 17.2844 11.4311 17.2842 10.9685ZM19.2932 14.0054H27.6955V16.1322H19.2932V14.0054ZM1.61371 35.1267V24.2005C1.61371 22.4886 2.29383 20.8468 3.50411 19.6363C4.71465 18.426 6.35642 17.7459 8.06831 17.7459H9.86436C10.7487 18.2575 11.8573 19.1821 11.8573 20.5972C11.8573 21.8881 10.9989 22.8563 10.1709 23.7858L10.1683 23.7889C9.41094 24.6414 8.69615 25.446 8.69615 26.4436V39.2867H5.77218C4.66926 39.2854 3.61224 38.8468 2.83241 38.0667C2.05284 37.2869 1.61448 36.2294 1.61371 35.1267ZM9.34158 39.2867V26.4436C9.34158 25.69 9.94978 25.0058 10.6534 24.215L10.6564 24.2117C11.5222 23.2363 12.5027 22.1316 12.5027 20.5972C12.5027 19.3063 11.7961 18.3801 11.0165 17.7459H29.7754C32.1286 17.7485 34.3845 18.6843 36.0484 20.3483C37.7121 22.012 38.648 24.2681 38.6506 26.6211V35.1267C38.6498 36.2294 38.2114 37.2869 37.4319 38.0667C36.6523 38.8468 35.595 39.2854 34.4923 39.2867H29.0751C31.0017 38.0762 32.4823 36.2717 33.2935 34.1459C34.105 32.0204 34.2032 29.6883 33.573 27.5019C32.9432 25.3157 31.6194 23.3934 29.8014 22.025C27.9832 20.6569 25.7697 19.9171 23.4942 19.9171C21.219 19.9171 19.0052 20.6569 17.1873 22.025C15.3693 23.3934 14.0453 25.3157 13.4154 27.5019C12.7855 29.6883 12.8834 32.0204 13.6949 34.1459C14.5063 36.2717 15.9869 38.0762 17.9133 39.2867H9.34158ZM23.495 39.2867C21.7397 39.2867 20.0238 38.7662 18.5643 37.7911C17.1046 36.8159 15.9673 35.4297 15.2953 33.8081C14.6236 32.1862 14.4479 30.4019 14.7904 28.68C15.1329 26.9584 15.9783 25.3771 17.2194 24.136C18.4605 22.8946 20.0419 22.0495 21.7637 21.707C23.4853 21.3645 25.2699 21.5402 26.8915 22.2119C28.5131 22.8836 29.8993 24.0212 30.8745 25.4809C31.8497 26.9403 32.3704 28.6563 32.3704 30.4116C32.3661 32.764 31.4297 35.0191 29.766 36.6825C28.1025 38.346 25.8477 39.2826 23.495 39.2867Z" fill="white"/>
<path d="M34.4923 40.9004C36.0227 40.8984 37.49 40.2892 38.572 39.2069C39.654 38.1246 40.2627 36.6573 40.2643 35.1267V26.6211C40.261 23.8404 39.1547 21.1743 37.1886 19.2081C35.2222 17.2417 32.5563 16.1355 29.7754 16.1322H28.9864V13.8231C29.5739 13.6114 30.0822 13.2238 30.4417 12.713C30.8013 12.2022 30.9946 11.593 30.9954 10.9685V7.86548C30.9946 7.06066 30.6746 6.289 30.1054 5.72007C29.5364 5.15088 28.7648 4.83084 27.9602 4.83008H19.0284C18.2236 4.83084 17.4522 5.15088 16.883 5.72007C16.3141 6.289 15.9941 7.06066 15.993 7.86548V10.9685C15.9943 11.593 16.1879 12.202 16.5474 12.7125C16.9068 13.2233 17.4147 13.6109 18.002 13.8231V16.1322H8.06831C5.92927 16.1347 3.87847 16.9857 2.366 18.4982C0.853523 20.0107 0.00255011 22.0615 0 24.2005V35.1267C0.00178508 36.6573 0.610241 38.1246 1.69251 39.2069C2.77452 40.2892 4.2416 40.8984 5.77218 40.9004H34.4923ZM17.2842 10.9685V7.86548C17.2844 7.40289 17.4683 6.95942 17.7955 6.63224C18.1224 6.30532 18.5659 6.12146 19.0284 6.12095H27.9602C28.4226 6.12146 28.866 6.30532 29.1932 6.63224C29.5201 6.95942 29.704 7.40289 29.7045 7.86548V10.9685C29.704 11.4311 29.5201 11.8748 29.1932 12.202C28.8663 12.5294 28.4228 12.7135 27.9602 12.7145H19.0284C18.5659 12.7135 18.1224 12.5294 17.7952 12.202C17.4683 11.8748 17.2844 11.4311 17.2842 10.9685ZM19.2932 14.0054H27.6955V16.1322H19.2932V14.0054ZM1.61371 35.1267V24.2005C1.61371 22.4886 2.29383 20.8468 3.50411 19.6363C4.71465 18.426 6.35642 17.7459 8.06831 17.7459H9.86436C10.7487 18.2575 11.8573 19.1821 11.8573 20.5972C11.8573 21.8881 10.9989 22.8563 10.1709 23.7858L10.1683 23.7889C9.41094 24.6414 8.69615 25.446 8.69615 26.4436V39.2867H5.77218C4.66926 39.2854 3.61224 38.8468 2.83241 38.0667C2.05284 37.2869 1.61448 36.2294 1.61371 35.1267ZM9.34158 39.2867V26.4436C9.34158 25.69 9.94978 25.0058 10.6534 24.215L10.6564 24.2117C11.5222 23.2363 12.5027 22.1316 12.5027 20.5972C12.5027 19.3063 11.7961 18.3801 11.0165 17.7459H29.7754C32.1286 17.7485 34.3845 18.6843 36.0484 20.3483C37.7121 22.012 38.648 24.2681 38.6506 26.6211V35.1267C38.6498 36.2294 38.2114 37.2869 37.4319 38.0667C36.6523 38.8468 35.595 39.2854 34.4923 39.2867H29.0751C31.0017 38.0762 32.4823 36.2717 33.2935 34.1459C34.105 32.0204 34.2032 29.6883 33.573 27.5019C32.9432 25.3157 31.6194 23.3934 29.8014 22.025C27.9832 20.6569 25.7697 19.9171 23.4942 19.9171C21.219 19.9171 19.0052 20.6569 17.1873 22.025C15.3693 23.3934 14.0453 25.3157 13.4154 27.5019C12.7855 29.6883 12.8834 32.0204 13.6949 34.1459C14.5063 36.2717 15.9869 38.0762 17.9133 39.2867H9.34158ZM23.495 39.2867C21.7397 39.2867 20.0238 38.7662 18.5643 37.7911C17.1046 36.8159 15.9673 35.4297 15.2953 33.8081C14.6236 32.1862 14.4479 30.4019 14.7904 28.68C15.1329 26.9584 15.9783 25.3771 17.2194 24.136C18.4605 22.8946 20.0419 22.0495 21.7637 21.707C23.4853 21.3645 25.2699 21.5402 26.8915 22.2119C28.5131 22.8836 29.8993 24.0212 30.8745 25.4809C31.8497 26.9403 32.3704 28.6563 32.3704 30.4116C32.3661 32.764 31.4297 35.0191 29.766 36.6825C28.1025 38.346 25.8477 39.2826 23.495 39.2867Z" stroke="black"/>
<path d="M27.5905 11.728C27.8751 11.728 28.1483 11.615 28.3495 11.4138C28.5507 11.2126 28.6636 10.9395 28.6636 10.6549V8.178C28.6634 7.89366 28.5502 7.62106 28.3489 7.42037C28.1477 7.21942 27.8749 7.10645 27.5905 7.10645H19.398C19.1137 7.10645 18.8411 7.21942 18.6399 7.42037C18.4387 7.62106 18.3255 7.89366 18.325 8.178V10.6549C18.325 10.9395 18.4379 11.2126 18.6391 11.4138C18.8406 11.615 19.1134 11.728 19.398 11.728H27.5905ZM18.9704 10.6549V8.178C18.9709 8.06478 19.016 7.95665 19.0961 7.87658C19.1764 7.79676 19.2848 7.75213 19.398 7.75213H27.5905C27.7038 7.75213 27.8124 7.79676 27.8925 7.87658C27.9725 7.95665 28.0179 8.06478 28.0182 8.178V10.6549C28.0182 10.7684 27.9733 10.8773 27.893 10.9574C27.8129 11.0377 27.704 11.0826 27.5905 11.0826H19.398C19.2846 11.0826 19.1759 11.0377 19.0956 10.9574C19.0155 10.8773 18.9704 10.7684 18.9704 10.6549Z" fill="white"/>
<path d="M2.61259 16.3995C2.73627 16.4651 2.875 16.4967 3.01475 16.4911C3.1573 16.487 3.29628 16.4454 3.41741 16.3702C3.53854 16.295 3.63749 16.1892 3.7043 16.0632C5.90097 11.8246 9.3602 8.37356 13.6038 6.18683C13.7079 6.1445 13.8017 6.08075 13.8798 6.00017C13.9578 5.91933 14.018 5.82319 14.0567 5.71787C14.0953 5.61255 14.1116 5.50034 14.1044 5.38839C14.0973 5.27619 14.0669 5.16704 14.0152 5.06733C13.9634 4.96788 13.8912 4.88015 13.8038 4.81003C13.7161 4.7399 13.6148 4.68864 13.5064 4.65982C13.3978 4.63101 13.2846 4.62514 13.1736 4.64274C13.063 4.66008 12.9569 4.70063 12.8625 4.76132C8.3246 7.10309 4.62616 10.7969 2.27853 15.3318C2.18545 15.5185 2.16811 15.734 2.23033 15.9331C2.29255 16.132 2.42975 16.2993 2.61259 16.3995Z" fill="white"/>
<path d="M43.9593 13.9885C41.5512 10.2664 38.1488 7.29269 34.1378 5.40484C34.0449 5.35001 33.9419 5.31508 33.8351 5.30233C33.7282 5.28958 33.6201 5.29926 33.5171 5.33063C33.4143 5.36225 33.3189 5.41479 33.2376 5.48517C33.1562 5.55555 33.0904 5.64226 33.0443 5.73942C32.9984 5.83683 32.9731 5.94266 32.9703 6.05002C32.9675 6.15764 32.9871 6.26474 33.028 6.36419C33.0688 6.4639 33.13 6.55367 33.2075 6.62839C33.2853 6.70285 33.3776 6.76048 33.4786 6.7972C37.2757 8.59427 40.486 11.43 42.7378 14.9762C44.9898 18.5224 46.1909 22.6339 46.2026 26.8347C46.2026 39.0421 36.2727 48.9718 24.0671 48.9718C18.4642 48.9792 13.0687 46.8539 8.97577 43.0275C8.90208 42.9555 8.8146 42.8989 8.71872 42.8612C8.62283 42.8234 8.52032 42.8053 8.4173 42.8076C8.31427 42.8102 8.21278 42.8331 8.11868 42.8752C8.02483 42.9175 7.94017 42.978 7.86979 43.0535C7.7994 43.1287 7.74483 43.2174 7.70939 43.3141C7.67368 43.4107 7.65787 43.5138 7.66272 43.6168C7.66731 43.7196 7.69256 43.8205 7.73693 43.9136C7.7813 44.0067 7.84378 44.0901 7.92079 44.1587C12.2996 48.2524 18.0725 50.5266 24.0671 50.5189C37.1267 50.5189 47.7498 39.8946 47.7498 26.8347C47.7543 22.2764 46.4377 17.8142 43.9593 13.9885Z" fill="white"/>
<path d="M23.5054 2.66344L23.5049 1" stroke="white" stroke-width="2.5" stroke-linecap="round"/>
<path d="M19.9763 2.9937L19.6611 1.36035" stroke="white" stroke-width="2.5" stroke-linecap="round"/>
<path d="M16.5054 3.76974L15.8223 2.25293" stroke="white" stroke-width="2.5" stroke-linecap="round"/>
<path d="M27.1792 2.89066L27.4309 1.24609" stroke="white" stroke-width="2.5" stroke-linecap="round"/>
<path d="M30.5911 3.76337L31.1623 2.20117" stroke="white" stroke-width="2.5" stroke-linecap="round"/>
<path d="M8.53338 20.8209C8.53338 21.0713 8.38114 21.3291 8.07104 21.536C7.76248 21.7418 7.32157 21.8772 6.82175 21.8772C6.32192 21.8772 5.88101 21.7418 5.57244 21.536C5.26235 21.3291 5.11011 21.0713 5.11011 20.8209C5.11011 20.5707 5.26235 20.3127 5.57244 20.1059C5.88101 19.9003 6.32192 19.7646 6.82175 19.7646C7.32157 19.7646 7.76248 19.9003 8.07104 20.1059C8.38114 20.3127 8.53338 20.5707 8.53338 20.8209Z" stroke="black" stroke-width="2"/>
<path d="M14.5431 21.7737C15.1063 21.7737 15.5628 21.3172 15.5628 20.7541C15.5628 20.1909 15.1063 19.7344 14.5431 19.7344C13.98 19.7344 13.5234 20.1909 13.5234 20.7541C13.5234 21.3172 13.98 21.7737 14.5431 21.7737Z" stroke="black" stroke-width="2"/>
</mask>
<g mask="url(#mask0_57_160)">
<path d="M0 0.680889L0 50.5186H47.7496V0.680889H0Z" fill="url(#paint0_linear_57_160)"/>
</g>
<defs>
<linearGradient id="paint0_linear_57_160" x1="0" y1="25.5996" x2="47.7496" y2="25.5996" gradientUnits="userSpaceOnUse">
<stop stop-color="#926329"/>
<stop offset="0.5" stop-color="#FAF3A0"/>
<stop offset="1" stop-color="#926329"/>
</linearGradient>
</defs>
</svg>
