<svg width="73" height="76" viewBox="0 0 73 76" fill="none" xmlns="http://www.w3.org/2000/svg">
<mask id="mask0_53_101" style="mask-type:alpha" maskUnits="userSpaceOnUse" x="-1" y="-1" width="74" height="77">
<path d="M35.585 34.7354C33.4484 34.735 31.3596 35.368 29.5825 36.5549C27.8059 37.7418 26.4208 39.4289 25.6028 41.4029C24.7851 43.377 24.5708 45.5492 24.9875 47.6449C25.4043 49.7406 26.4332 51.6656 27.9441 53.1765C29.4551 54.6875 31.3801 55.7164 33.4758 56.1332C35.5715 56.5499 37.7437 56.3359 39.7177 55.5179C41.6918 54.6999 43.3789 53.3148 44.5658 51.5381C45.7527 49.7615 46.3857 47.6723 46.3853 45.5357C46.3822 42.6721 45.2432 39.9271 43.2186 37.9021C41.1939 35.8774 38.4486 34.7384 35.585 34.7354ZM35.585 55.3607C33.6419 55.3611 31.742 54.7852 30.126 53.7061C28.51 52.6266 27.2505 51.0924 26.5062 49.2972C25.7623 47.502 25.5672 45.5264 25.9461 43.6203C26.325 41.7142 27.2605 39.9634 28.6343 38.5892C30.0086 37.215 31.759 36.2787 33.6651 35.8995C35.5711 35.5202 37.5467 35.7145 39.3419 36.4583C41.1375 37.2019 42.6721 38.461 43.7516 40.077C44.8315 41.6926 45.4078 43.5921 45.4078 45.5357C45.4051 48.14 44.3696 50.6374 42.528 52.4794C40.6864 54.321 38.1898 55.3572 35.585 55.3607Z" fill="white"/>
<path d="M52.2414 61.4313C54.5592 61.4282 56.7816 60.5055 58.4204 58.8663C60.0592 57.2271 60.9812 55.0047 60.9835 52.6865V39.804C60.9785 35.5925 59.303 31.5544 56.3251 28.5765C53.3468 25.5983 49.3091 23.9228 45.0972 23.9178H43.9022V20.4204C44.7921 20.0998 45.5619 19.5127 46.1065 18.7391C46.6511 17.9655 46.9438 17.0428 46.945 16.0969V11.3972C46.9438 10.1782 46.4591 9.00946 45.597 8.14777C44.7353 7.28569 43.5666 6.80096 42.348 6.7998H28.8201C27.6012 6.80096 26.4328 7.28569 25.5707 8.14777C24.709 9.00946 24.2243 10.1782 24.2228 11.3972V16.0969C24.2247 17.0428 24.5178 17.9651 25.0624 18.7383C25.6066 19.512 26.376 20.099 27.2655 20.4204V23.9178H12.2201C8.98036 23.9216 5.87425 25.2105 3.58349 27.5013C1.29273 29.792 0.00386235 32.8981 0 36.1379V52.6865C0.00270365 55.0047 0.924259 57.2271 2.56344 58.8663C4.20224 60.5055 6.42425 61.4282 8.74244 61.4313H52.2414ZM26.1783 16.0969V11.3972C26.1786 10.6965 26.4571 10.0249 26.9527 9.52933C27.4478 9.03418 28.1195 8.75571 28.8201 8.75493H42.348C43.0483 8.75571 43.7199 9.03418 44.2155 9.52933C44.7106 10.0249 44.9891 10.6965 44.9899 11.3972V16.0969C44.9891 16.7975 44.7106 17.4696 44.2155 17.9651C43.7203 18.461 43.0486 18.7399 42.348 18.7414H28.8201C28.1195 18.7399 27.4478 18.461 26.9523 17.9651C26.4571 17.4696 26.1786 16.7975 26.1783 16.0969ZM29.221 20.6966H41.9471V23.9178H29.221V20.6966ZM2.4441 52.6865V36.1379C2.4441 33.5451 3.47419 31.0585 5.30726 29.225C7.14072 27.3919 9.62731 26.3619 12.2201 26.3619H14.9404C16.2798 27.1367 17.9588 28.5371 17.9588 30.6804C17.9588 32.6355 16.6587 34.102 15.4046 35.5098L15.4007 35.5145C14.2536 36.8057 13.171 38.0242 13.171 39.5352V58.9872H8.74244C7.07197 58.9852 5.47102 58.3209 4.28991 57.1394C3.10919 55.9583 2.44526 54.3566 2.4441 52.6865ZM14.1486 58.9872V39.5352C14.1486 38.3939 15.0697 37.3576 16.1354 36.1599L16.14 36.1549C17.4513 34.6775 18.9363 33.0043 18.9363 30.6804C18.9363 28.7252 17.8661 27.3224 16.6854 26.3619H45.0972C48.6614 26.3657 52.078 27.7832 54.5982 30.3034C57.118 32.8232 58.5355 36.2402 58.5394 39.804V52.6865C58.5382 54.3566 57.8743 55.9583 56.6936 57.1394C55.5128 58.3209 53.9115 58.9852 52.2414 58.9872H44.0366C46.9546 57.1537 49.1971 54.4207 50.4257 51.201C51.6547 47.9818 51.8034 44.4496 50.8491 41.1381C49.8951 37.8269 47.8901 34.9154 45.1366 32.8429C42.3828 30.7707 39.0303 29.6503 35.5839 29.6503C32.1379 29.6503 28.785 30.7707 26.0315 32.8429C23.278 34.9154 21.2727 37.8269 20.3187 41.1381C19.3647 44.4496 19.513 47.9818 20.742 51.201C21.971 54.4207 24.2135 57.1537 27.1311 58.9872H14.1486ZM35.585 58.9872C32.9266 58.9872 30.3276 58.1989 28.1172 56.7219C25.9064 55.2449 24.1837 53.1454 23.166 50.6893C22.1487 48.2328 21.8826 45.5303 22.4013 42.9225C22.92 40.315 24.2004 37.92 26.0802 36.0401C27.96 34.16 30.355 32.88 32.9629 32.3613C35.5703 31.8425 38.2732 32.1087 40.7293 33.126C43.1854 34.1433 45.285 35.8663 46.7619 38.0772C48.2389 40.2876 49.0276 42.8866 49.0276 45.545C49.021 49.108 47.6027 52.5235 45.0829 55.0429C42.5635 57.5623 39.1484 58.981 35.585 58.9872Z" fill="white"/>
<path d="M52.2414 61.4313C54.5592 61.4282 56.7816 60.5055 58.4204 58.8663C60.0592 57.2271 60.9812 55.0047 60.9835 52.6865V39.804C60.9785 35.5925 59.303 31.5544 56.3251 28.5765C53.3468 25.5983 49.3091 23.9228 45.0972 23.9178H43.9022V20.4204C44.7921 20.0998 45.5619 19.5127 46.1065 18.7391C46.6511 17.9655 46.9438 17.0428 46.945 16.0969V11.3972C46.9438 10.1782 46.4591 9.00946 45.597 8.14777C44.7353 7.28569 43.5666 6.80096 42.348 6.7998H28.8201C27.6012 6.80096 26.4328 7.28569 25.5707 8.14777C24.709 9.00946 24.2243 10.1782 24.2228 11.3972V16.0969C24.2247 17.0428 24.5178 17.9651 25.0624 18.7383C25.6066 19.512 26.376 20.099 27.2655 20.4204V23.9178H12.2201C8.98036 23.9216 5.87425 25.2105 3.58349 27.5013C1.29273 29.792 0.00386235 32.8981 0 36.1379V52.6865C0.00270365 55.0047 0.924259 57.2271 2.56344 58.8663C4.20224 60.5055 6.42425 61.4282 8.74244 61.4313H52.2414ZM26.1783 16.0969V11.3972C26.1787 10.6965 26.4571 10.0249 26.9527 9.52933C27.4478 9.03418 28.1195 8.75571 28.8201 8.75493H42.348C43.0483 8.75571 43.7199 9.03418 44.2155 9.52933C44.7106 10.0249 44.9891 10.6965 44.9899 11.3972V16.0969C44.9891 16.7975 44.7106 17.4696 44.2155 17.9651C43.7203 18.461 43.0486 18.7399 42.348 18.7414H28.8201C28.1195 18.7399 27.4478 18.461 26.9523 17.9651C26.4571 17.4696 26.1787 16.7975 26.1783 16.0969ZM29.221 20.6966H41.9471V23.9178H29.221V20.6966ZM2.4441 52.6865V36.1379C2.4441 33.5451 3.47419 31.0585 5.30726 29.225C7.14072 27.3919 9.62731 26.3619 12.2201 26.3619H14.9404C16.2798 27.1366 17.9588 28.5371 17.9588 30.6804C17.9588 32.6355 16.6587 34.102 15.4046 35.5098L15.4007 35.5145C14.2536 36.8057 13.171 38.0242 13.171 39.5352V58.9872H8.74244C7.07197 58.9852 5.47102 58.3209 4.28991 57.1394C3.10919 55.9583 2.44526 54.3566 2.4441 52.6865ZM14.1486 58.9872V39.5352C14.1486 38.3939 15.0697 37.3576 16.1354 36.1599L16.14 36.1549C17.4513 34.6775 18.9363 33.0043 18.9363 30.6804C18.9363 28.7252 17.8661 27.3224 16.6854 26.3619H45.0972C48.6614 26.3657 52.078 27.7832 54.5982 30.3034C57.118 32.8232 58.5355 36.2402 58.5394 39.804V52.6865C58.5382 54.3566 57.8743 55.9583 56.6936 57.1394C55.5128 58.3209 53.9115 58.9852 52.2414 58.9872H44.0366C46.9546 57.1537 49.1971 54.4207 50.4257 51.201C51.6547 47.9818 51.8034 44.4496 50.8491 41.1381C49.8951 37.8269 47.8901 34.9154 45.1366 32.8429C42.3828 30.7707 39.0302 29.6503 35.5839 29.6503C32.1379 29.6503 28.785 30.7707 26.0315 32.8429C23.278 34.9154 21.2727 37.8269 20.3187 41.1381C19.3647 44.4496 19.513 47.9818 20.742 51.201C21.971 54.4207 24.2135 57.1537 27.1311 58.9872H14.1486ZM35.585 58.9872C32.9266 58.9872 30.3276 58.1989 28.1172 56.7219C25.9064 55.2449 24.1837 53.1454 23.166 50.6893C22.1487 48.2328 21.8826 45.5303 22.4013 42.9225C22.92 40.315 24.2004 37.92 26.0802 36.0401C27.96 34.16 30.355 32.88 32.9629 32.3613C35.5703 31.8425 38.2732 32.1087 40.7293 33.126C43.1854 34.1433 45.2849 35.8663 46.7619 38.0772C48.2389 40.2876 49.0276 42.8866 49.0276 45.545C49.021 49.108 47.6027 52.5235 45.0829 55.0429C42.5635 57.5623 39.1484 58.981 35.585 58.9872Z" stroke="black"/>
<path d="M41.788 17.2488C42.219 17.2488 42.6327 17.0777 42.9374 16.7729C43.2421 16.4682 43.4132 16.0545 43.4132 15.6235V11.872C43.4129 11.4413 43.2414 11.0284 42.9366 10.7245C42.6319 10.4201 42.2186 10.249 41.788 10.249H29.3798C28.9491 10.249 28.5362 10.4201 28.2315 10.7245C27.9267 11.0284 27.7553 11.4413 27.7545 11.872V15.6235C27.7545 16.0545 27.9256 16.4682 28.2303 16.7729C28.5355 17.0777 28.9487 17.2488 29.3798 17.2488H41.788ZM28.7321 15.6235V11.872C28.7328 11.7005 28.8012 11.5367 28.9225 11.4155C29.0441 11.2946 29.2083 11.227 29.3798 11.227H41.788C41.9595 11.227 42.124 11.2946 42.2453 11.4155C42.3665 11.5367 42.4353 11.7005 42.4357 11.872V15.6235C42.4357 15.7954 42.3677 15.9603 42.246 16.0816C42.1248 16.2032 41.9598 16.2712 41.788 16.2712H29.3798C29.2079 16.2712 29.0434 16.2032 28.9217 16.0816C28.8004 15.9603 28.7321 15.7954 28.7321 15.6235Z" fill="white"/>
<path d="M3.95698 24.3236C4.1443 24.4229 4.35442 24.4708 4.56608 24.4623C4.78198 24.4561 4.99248 24.3931 5.17594 24.2792C5.3594 24.1652 5.50926 24.005 5.61046 23.8142C8.93749 17.3945 14.1768 12.1676 20.6041 8.85564C20.7617 8.79153 20.9038 8.69497 21.022 8.57292C21.1402 8.45048 21.2314 8.30487 21.2901 8.14535C21.3484 7.98584 21.3731 7.8159 21.3623 7.64634C21.3515 7.4764 21.3055 7.31109 21.2271 7.16007C21.1487 7.00944 21.0394 6.87657 20.9069 6.77036C20.7741 6.66414 20.6207 6.58651 20.4566 6.54286C20.292 6.49922 20.1205 6.49033 19.9525 6.51698C19.7849 6.54325 19.6242 6.60466 19.4813 6.69659C12.6083 10.2434 7.0067 15.838 3.45101 22.7064C3.31004 22.9892 3.28377 23.3155 3.37802 23.6172C3.47226 23.9184 3.68005 24.1718 3.95698 24.3236Z" fill="white"/>
<path d="M66.5797 20.672C62.9324 15.0345 57.7793 10.5306 51.7042 7.67133C51.5636 7.58829 51.4075 7.53538 51.2457 7.51607C51.0839 7.49676 50.9201 7.51143 50.7641 7.55894C50.6084 7.60683 50.464 7.6864 50.3408 7.793C50.2176 7.8996 50.1179 8.03092 50.048 8.17808C49.9785 8.32562 49.9402 8.48591 49.936 8.64851C49.9317 8.81151 49.9615 8.97372 50.0233 9.12435C50.0851 9.27537 50.1778 9.41133 50.2952 9.52449C50.413 9.63727 50.5528 9.72456 50.7058 9.78018C56.4568 12.502 61.3191 16.7969 64.7296 22.1679C68.1404 27.5389 69.9596 33.7662 69.9774 40.1286C69.9774 58.6177 54.9377 73.657 36.4514 73.657C27.9654 73.6682 19.7934 70.4493 13.5943 64.6538C13.4827 64.5449 13.3502 64.4591 13.205 64.402C13.0598 64.3448 12.9045 64.3174 12.7485 64.3209C12.5924 64.3247 12.4387 64.3595 12.2962 64.4232C12.1541 64.4873 12.0258 64.5789 11.9192 64.6932C11.8126 64.8071 11.73 64.9416 11.6763 65.0879C11.6222 65.2343 11.5983 65.3904 11.6056 65.5464C11.6126 65.7021 11.6508 65.855 11.718 65.996C11.7852 66.137 11.8798 66.2633 11.9965 66.3671C18.6285 72.5674 27.3721 76.0118 36.4514 76.0003C56.2312 76.0003 72.3206 59.9089 72.3206 40.1286C72.3276 33.2247 70.3335 26.4663 66.5797 20.672Z" fill="white"/>
<path d="M35.6009 3.51941L35.6001 1" stroke="white" stroke-width="2.5" stroke-linecap="round"/>
<path d="M30.2558 4.01974L29.7784 1.5459" stroke="white" stroke-width="2.5" stroke-linecap="round"/>
<path d="M24.9987 5.19576L23.964 2.89844" stroke="white" stroke-width="2.5" stroke-linecap="round"/>
<path d="M41.165 3.8629L41.5462 1.37207" stroke="white" stroke-width="2.5" stroke-linecap="round"/>
<path d="M46.3328 5.18541L47.198 2.81934" stroke="white" stroke-width="2.5" stroke-linecap="round"/>
<path d="M12.9246 31.0217C12.9246 31.4009 12.694 31.7914 12.2243 32.1047C11.757 32.4164 11.0892 32.6214 10.3322 32.6214C9.57516 32.6214 8.90736 32.4164 8.44002 32.1047C7.97035 31.7914 7.73977 31.4009 7.73977 31.0217C7.73977 30.6428 7.97035 30.2519 8.44002 29.9387C8.90736 29.6274 9.57516 29.4219 10.3322 29.4219C11.0892 29.4219 11.757 29.6274 12.2243 29.9387C12.694 30.2519 12.9246 30.6428 12.9246 31.0217Z" stroke="black" stroke-width="2"/>
<path d="M22.0266 32.4628C22.8796 32.4628 23.571 31.7714 23.571 30.9184C23.571 30.0655 22.8796 29.374 22.0266 29.374C21.1737 29.374 20.4822 30.0655 20.4822 30.9184C20.4822 31.7714 21.1737 32.4628 22.0266 32.4628Z" stroke="black" stroke-width="2"/>
</mask>
<g mask="url(#mask0_53_101)">
<path d="M0 0.516846L0 76H72.3206V0.516846H0Z" fill="white"/>
</g>
</svg>
