<svg width="46" height="48" viewBox="0 0 46 48" fill="none" xmlns="http://www.w3.org/2000/svg">
<mask id="mask0_57_118" style="mask-type:alpha" maskUnits="userSpaceOnUse" x="-1" y="-1" width="47" height="49">
<path d="M22.3999 21.7344C21.0549 21.7341 19.7401 22.1328 18.6215 22.8802C17.5031 23.6276 16.6312 24.69 16.1163 25.9331C15.6016 27.1763 15.4667 28.5441 15.729 29.8638C15.9913 31.1836 16.639 32.3958 17.5901 33.3472C18.5412 34.2987 19.753 34.9467 21.0722 35.2091C22.3914 35.4715 23.7587 35.3368 25.0013 34.8217C26.244 34.3065 27.3059 33.4343 28.0531 32.3155C28.8002 31.1967 29.1987 29.8811 29.1984 28.5356C29.1965 26.7324 28.4795 25.0038 27.205 23.7286C25.9306 22.4536 24.2024 21.7363 22.3999 21.7344ZM22.3999 34.7227C21.1767 34.7229 19.9808 34.3603 18.9635 33.6807C17.9463 33.0009 17.1535 32.0348 16.685 30.9043C16.2167 29.7738 16.0939 28.5298 16.3324 27.3295C16.5709 26.1292 17.1598 25.0266 18.0246 24.1613C18.8896 23.2959 19.9915 22.7063 21.1913 22.4675C22.3911 22.2286 23.6347 22.3509 24.7648 22.8194C25.8951 23.2876 26.861 24.0805 27.5405 25.0981C28.2203 26.1156 28.583 27.3117 28.583 28.5356C28.5814 30.1756 27.9295 31.7483 26.7703 32.9082C25.6111 34.0679 24.0395 34.7205 22.3999 34.7227Z" fill="white"/>
<path d="M32.8847 38.5463C34.3437 38.5443 35.7427 37.9633 36.7742 36.9311C37.8058 35.8988 38.3862 34.4993 38.3876 33.0395V24.9271C38.3845 22.275 37.3298 19.7321 35.4553 17.8569C33.5805 15.9814 31.0389 14.9263 28.3876 14.9231H27.6354V12.7208C28.1956 12.5189 28.6801 12.1492 29.0229 11.662C29.3657 11.1749 29.55 10.5938 29.5507 9.99813V7.03864C29.55 6.27103 29.2449 5.53501 28.7022 4.99242C28.1598 4.44953 27.4241 4.14428 26.6571 4.14355H18.1416C17.3742 4.14428 16.6388 4.44953 16.0961 4.99242C15.5538 5.53501 15.2486 6.27103 15.2477 7.03864V9.99813C15.2488 10.5938 15.4334 11.1746 15.7762 11.6615C16.1188 12.1487 16.6031 12.5184 17.163 12.7208V14.9231H7.69225C5.65291 14.9256 3.6977 15.7372 2.25572 17.1798C0.81374 18.6223 0.00243126 20.5783 0 22.6184V33.0395C0.00170188 34.4993 0.5818 35.8988 1.61362 36.9311C2.64521 37.9633 4.04391 38.5443 5.50314 38.5463H32.8847ZM16.4786 9.99813V7.03864C16.4788 6.59743 16.6541 6.17444 16.9661 5.86239C17.2777 5.55059 17.7005 5.37524 18.1416 5.37475H26.6571C27.0979 5.37524 27.5206 5.55059 27.8326 5.86239C28.1442 6.17444 28.3196 6.59743 28.32 7.03864V9.99813C28.3196 10.4393 28.1442 10.8626 27.8326 11.1746C27.5209 11.4869 27.0981 11.6625 26.6571 11.6635H18.1416C17.7005 11.6625 17.2777 11.4869 16.9658 11.1746C16.6541 10.8626 16.4788 10.4393 16.4786 9.99813ZM18.3939 12.8947H26.4047V14.9231H18.3939V12.8947ZM1.5385 33.0395V22.6184C1.5385 20.9857 2.18691 19.4198 3.34079 18.2652C4.49491 17.1109 6.06016 16.4623 7.69225 16.4623H9.40459C10.2477 16.9501 11.3046 17.8321 11.3046 19.1817C11.3046 20.4129 10.4863 21.3364 9.69683 22.2229L9.69438 22.2259C8.97232 23.0389 8.29084 23.8063 8.29084 24.7578V37.0072H5.50314C4.45163 37.006 3.44388 36.5876 2.7004 35.8436C1.95716 35.0998 1.53923 34.0912 1.5385 33.0395ZM8.90617 37.0072V24.7578C8.90617 24.0391 9.48606 23.3865 10.1568 22.6323L10.1598 22.6291C10.9852 21.6988 11.92 20.6452 11.92 19.1817C11.92 17.9505 11.2463 17.0672 10.503 16.4623H28.3876C30.6312 16.4647 32.7819 17.3573 34.3683 18.9443C35.9544 20.5311 36.8467 22.6829 36.8491 24.9271V33.0395C36.8484 34.0912 36.4305 35.0998 35.6872 35.8436C34.944 36.5876 33.936 37.006 32.8847 37.0072H27.72C29.5568 35.8526 30.9684 34.1315 31.7418 32.1041C32.5154 30.0768 32.609 27.8526 32.0082 25.7672C31.4077 23.682 30.1456 21.8486 28.4124 20.5435C26.6789 19.2386 24.5686 18.533 22.3992 18.533C20.23 18.533 18.1194 19.2386 16.3862 20.5435C14.6529 21.8486 13.3906 23.682 12.7901 25.7672C12.1896 27.8526 12.283 30.0768 13.0566 32.1041C13.8302 34.1315 15.2418 35.8526 17.0784 37.0072H8.90617ZM22.3999 37.0072C20.7265 37.0072 19.0905 36.5108 17.6991 35.5807C16.3074 34.6506 15.2231 33.3285 14.5824 31.7818C13.942 30.2349 13.7745 28.5331 14.1011 26.8908C14.4276 25.2489 15.2336 23.7407 16.4168 22.5569C17.6001 21.3729 19.1077 20.5668 20.7493 20.2402C22.3907 19.9136 24.0921 20.0812 25.6381 20.7218C27.1841 21.3624 28.5058 22.4475 29.4355 23.8397C30.3652 25.2316 30.8617 26.8682 30.8617 28.5423C30.8575 30.786 29.9648 32.9368 28.3786 34.5234C26.7927 36.1099 24.643 37.0033 22.3999 37.0072Z" fill="white"/>
<path d="M32.8847 38.5463C34.3437 38.5443 35.7427 37.9633 36.7742 36.9311C37.8058 35.8988 38.3861 34.4993 38.3876 33.0395V24.9271C38.3845 22.275 37.3298 19.7321 35.4553 17.8569C33.5805 15.9814 31.0389 14.9263 28.3876 14.9231H27.6354V12.7208C28.1956 12.5189 28.6801 12.1492 29.0229 11.662C29.3657 11.1749 29.55 10.5938 29.5507 9.99813V7.03864C29.55 6.27103 29.2449 5.53501 28.7022 4.99242C28.1598 4.44953 27.4241 4.14428 26.6571 4.14355H18.1416C17.3742 4.14428 16.6388 4.44953 16.0961 4.99242C15.5538 5.53501 15.2486 6.27103 15.2477 7.03864V9.99813C15.2488 10.5938 15.4334 11.1746 15.7762 11.6615C16.1188 12.1487 16.6031 12.5184 17.163 12.7208V14.9231H7.69225C5.65291 14.9256 3.6977 15.7372 2.25572 17.1798C0.81374 18.6223 0.00243126 20.5783 0 22.6184V33.0395C0.00170188 34.4993 0.5818 35.8988 1.61362 36.9311C2.64521 37.9633 4.04391 38.5443 5.50314 38.5463H32.8847ZM16.4786 9.99813V7.03864C16.4788 6.59743 16.6541 6.17444 16.9661 5.86239C17.2777 5.55059 17.7005 5.37524 18.1416 5.37475H26.6571C27.0979 5.37524 27.5206 5.55059 27.8326 5.86239C28.1442 6.17444 28.3196 6.59743 28.32 7.03864V9.99813C28.3196 10.4393 28.1442 10.8626 27.8326 11.1746C27.5209 11.4869 27.0981 11.6625 26.6571 11.6635H18.1416C17.7005 11.6625 17.2777 11.4869 16.9658 11.1746C16.6541 10.8626 16.4788 10.4393 16.4786 9.99813ZM18.3939 12.8947H26.4047V14.9231H18.3939V12.8947ZM1.5385 33.0395V22.6184C1.5385 20.9857 2.18691 19.4198 3.34079 18.2652C4.49491 17.1109 6.06016 16.4623 7.69225 16.4623H9.40459C10.2477 16.9501 11.3046 17.8321 11.3046 19.1817C11.3046 20.4129 10.4863 21.3364 9.69683 22.2229L9.69438 22.2259C8.97232 23.0389 8.29084 23.8063 8.29084 24.7578V37.0072H5.50314C4.45163 37.006 3.44388 36.5876 2.7004 35.8436C1.95716 35.0998 1.53923 34.0912 1.5385 33.0395ZM8.90617 37.0072V24.7578C8.90617 24.0391 9.48606 23.3865 10.1568 22.6323L10.1598 22.6291C10.9852 21.6988 11.92 20.6452 11.92 19.1817C11.92 17.9505 11.2463 17.0672 10.503 16.4623H28.3876C30.6312 16.4647 32.7819 17.3573 34.3683 18.9443C35.9544 20.5311 36.8467 22.6829 36.8491 24.9271V33.0395C36.8484 34.0912 36.4305 35.0998 35.6872 35.8436C34.944 36.5876 33.936 37.006 32.8847 37.0072H27.72C29.5568 35.8526 30.9684 34.1315 31.7418 32.1041C32.5154 30.0768 32.609 27.8526 32.0082 25.7672C31.4077 23.682 30.1456 21.8486 28.4124 20.5435C26.6789 19.2386 24.5686 18.533 22.3992 18.533C20.23 18.533 18.1194 19.2386 16.3862 20.5435C14.6529 21.8486 13.3906 23.682 12.7901 25.7672C12.1896 27.8526 12.283 30.0768 13.0566 32.1041C13.8302 34.1315 15.2418 35.8526 17.0784 37.0072H8.90617ZM22.3999 37.0072C20.7265 37.0072 19.0905 36.5108 17.6991 35.5807C16.3074 34.6506 15.2231 33.3285 14.5824 31.7818C13.942 30.2349 13.7745 28.5331 14.1011 26.8908C14.4276 25.2489 15.2336 23.7407 16.4168 22.5569C17.6001 21.3729 19.1077 20.5668 20.7493 20.2402C22.3907 19.9136 24.0921 20.0812 25.6381 20.7218C27.1841 21.3624 28.5058 22.4475 29.4355 23.8397C30.3652 25.2316 30.8617 26.8682 30.8617 28.5423C30.8575 30.786 29.9648 32.9368 28.3786 34.5234C26.7927 36.1099 24.643 37.0033 22.3999 37.0072Z" stroke="black"/>
<path d="M26.3045 10.7224C26.5759 10.7224 26.8362 10.6146 27.0281 10.4227C27.2199 10.2308 27.3276 9.97034 27.3276 9.69889V7.33646C27.3274 7.06531 27.2194 6.80528 27.0276 6.61387C26.8357 6.42221 26.5756 6.31445 26.3045 6.31445H18.4938C18.2228 6.31445 17.9629 6.42221 17.771 6.61387C17.5792 6.80528 17.4713 7.06531 17.4708 7.33646V9.69889C17.4708 9.97034 17.5785 10.2308 17.7703 10.4227C17.9624 10.6146 18.2226 10.7224 18.4938 10.7224H26.3045ZM18.0861 9.69889V7.33646C18.0866 7.22851 18.1297 7.12536 18.206 7.049C18.2826 6.97289 18.3859 6.93032 18.4938 6.93032H26.3045C26.4125 6.93032 26.516 6.97289 26.5924 7.049C26.6687 7.12536 26.712 7.22851 26.7122 7.33646V9.69889C26.7122 9.80714 26.6694 9.91098 26.5929 9.98733C26.5165 10.064 26.4127 10.1068 26.3045 10.1068H18.4938C18.3857 10.1068 18.2821 10.064 18.2055 9.98733C18.1292 9.91098 18.0861 9.80714 18.0861 9.69889Z" fill="white"/>
<path d="M2.49077 15.1778C2.60869 15.2403 2.74095 15.2705 2.87418 15.2651C3.01009 15.2612 3.14259 15.2216 3.25808 15.1498C3.37356 15.0781 3.4679 14.9771 3.53159 14.857C5.62589 10.8144 8.9239 7.52289 12.9697 5.43724C13.0689 5.39688 13.1584 5.3361 13.2328 5.2592C13.3072 5.18211 13.3646 5.09042 13.4015 4.98996C13.4382 4.88952 13.4538 4.7825 13.447 4.67573C13.4402 4.56871 13.4113 4.46461 13.3619 4.36951C13.3126 4.27466 13.2437 4.19099 13.1603 4.1241C13.0767 4.05721 12.9802 4.00833 12.8769 3.98084C12.7733 3.95336 12.6654 3.94776 12.5596 3.96454C12.4541 3.98108 12.3529 4.01976 12.2629 4.07765C7.93657 6.31114 4.41049 9.83424 2.17227 14.1594C2.08353 14.3375 2.067 14.543 2.12632 14.7329C2.18565 14.9227 2.31645 15.0822 2.49077 15.1778Z" fill="white"/>
<path d="M41.9103 12.8777C39.6144 9.32764 36.3707 6.49143 32.5465 4.69086C32.458 4.63857 32.3598 4.60525 32.2579 4.59309C32.1561 4.58093 32.053 4.59017 31.9547 4.62008C31.8568 4.65025 31.7659 4.70035 31.6883 4.76748C31.6107 4.83461 31.548 4.91732 31.504 5.00999C31.4602 5.1029 31.4362 5.2038 31.4335 5.30622C31.4308 5.40888 31.4495 5.511 31.4884 5.60588C31.5273 5.70095 31.5857 5.78656 31.6596 5.85783C31.7337 5.92885 31.8218 5.98385 31.918 6.01887C35.5382 7.73281 38.5989 10.4375 40.7457 13.8197C42.8927 17.2019 44.0379 21.1234 44.0491 25.13C44.0491 36.773 34.582 46.2436 22.9452 46.2436C17.6035 46.2507 12.4594 44.2236 8.5573 40.5741C8.48704 40.5055 8.40362 40.4515 8.31221 40.4155C8.2208 40.3795 8.12307 40.3622 8.02486 40.3644C7.92664 40.3669 7.82985 40.3888 7.74016 40.4289C7.65066 40.4693 7.56997 40.5269 7.50284 40.5989C7.43577 40.6707 7.38372 40.7553 7.34994 40.8475C7.31587 40.9397 7.30083 41.0379 7.30544 41.1362C7.30979 41.2342 7.33388 41.3305 7.37618 41.4193C7.41849 41.5081 7.47807 41.5876 7.55146 41.653C11.7262 45.5574 17.2301 47.7265 22.9452 47.7192C35.3962 47.7192 45.5241 37.5861 45.5241 25.13C45.5284 20.7824 44.2732 16.5265 41.9103 12.8777Z" fill="white"/>
<path d="M22.4099 2.07677L22.4094 0.490234" stroke="white" stroke-width="2.5" stroke-linecap="round"/>
<path d="M19.0453 2.39182L18.7448 0.833984" stroke="white" stroke-width="2.5" stroke-linecap="round"/>
<path d="M15.7362 3.13223L15.0848 1.68555" stroke="white" stroke-width="2.5" stroke-linecap="round"/>
<path d="M25.9124 2.29315L26.1523 0.724609" stroke="white" stroke-width="2.5" stroke-linecap="round"/>
<path d="M29.1653 3.12572L29.7099 1.63574" stroke="white" stroke-width="2.5" stroke-linecap="round"/>
<path d="M8.13574 19.3951C8.13574 19.634 7.99057 19.8799 7.69495 20.0771C7.40075 20.2734 6.98042 20.4026 6.50389 20.4026C6.02736 20.4026 5.60699 20.2734 5.31278 20.0771C5.01716 19.8799 4.87201 19.634 4.87201 19.3951C4.87201 19.1565 5.01716 18.9104 5.31278 18.7131C5.60699 18.5171 6.02736 18.3877 6.50389 18.3877C6.98042 18.3877 7.40075 18.5171 7.69495 18.7131C7.99057 18.9104 8.13574 19.1565 8.13574 19.3951Z" stroke="black" stroke-width="2"/>
<path d="M13.8652 20.3035C14.4021 20.3035 14.8374 19.868 14.8374 19.3309C14.8374 18.7938 14.4021 18.3584 13.8652 18.3584C13.3283 18.3584 12.8931 18.7938 12.8931 19.3309C12.8931 19.868 13.3283 20.3035 13.8652 20.3035Z" stroke="black" stroke-width="2"/>
</mask>
<g mask="url(#mask0_57_118)">
<path d="M0 0.185547V47.7191H45.5241V0.185547H0Z" fill="url(#paint0_linear_57_118)"/>
<path d="M0 0.185547V47.7191H45.5241V0.185547H0Z" fill="url(#paint1_linear_57_118)"/>
</g>
<defs>
<linearGradient id="paint0_linear_57_118" x1="0" y1="23.9522" x2="45.5241" y2="23.9522" gradientUnits="userSpaceOnUse">
<stop stop-color="#1FDAFE"/>
<stop offset="1" stop-color="#FD0FD4"/>
</linearGradient>
<linearGradient id="paint1_linear_57_118" x1="0" y1="23.9522" x2="45.5241" y2="23.9522" gradientUnits="userSpaceOnUse">
<stop stop-color="#1FDAFE"/>
<stop offset="1" stop-color="#FD0FD4"/>
</linearGradient>
</defs>
</svg>
