<svg xmlns="http://www.w3.org/2000/svg" width="26.25" height="26.25" viewBox="0 0 26.25 26.25">
  <defs>
    <style>
      .cls-1 {
        fill: #bfbfbf;
        fill-rule: evenodd;
      }
    </style>
  </defs>
  <path class="cls-1" d="M1616.98,36.968a13.124,13.124,0,1,0,13.12,13.124A13.12,13.12,0,0,0,1616.98,36.968Zm3.38,10.529-0.17,2.293h-2.35v7.964h-2.97V49.79h-1.59V47.5h1.59V45.958a4.06,4.06,0,0,1,.51-2.375,2.816,2.816,0,0,1,2.46-1.154,10.032,10.032,0,0,1,2.84.285l-0.4,2.347a5.34,5.34,0,0,0-1.28-.191,0.954,0.954,0,0,0-1.16.837V47.5h2.52Z" transform="translate(-1603.84 -36.969)"/>
</svg>
