<svg width="17" height="16" viewBox="0 0 17 16" fill="none" xmlns="http://www.w3.org/2000/svg">
<path d="M9.03908 3.31432V0.866737C9.03908 0.730363 8.98229 0.599575 8.8812 0.503144C8.7801 0.406713 8.64299 0.352539 8.50002 0.352539C8.35705 0.352539 8.21994 0.406713 8.11885 0.503144C8.01775 0.599575 7.96096 0.730363 7.96096 0.866737V3.31432C7.495 3.43133 7.08276 3.69221 6.7886 4.05623C6.49443 4.42025 6.3349 4.86693 6.3349 5.32655C6.3349 5.78616 6.49443 6.23284 6.7886 6.59687C7.08276 6.96089 7.495 7.22177 7.96096 7.33878V14.5787C7.96096 14.7151 8.01775 14.8458 8.11885 14.9423C8.21994 15.0387 8.35705 15.0929 8.50002 15.0929C8.64299 15.0929 8.7801 15.0387 8.8812 14.9423C8.98229 14.8458 9.03908 14.7151 9.03908 14.5787V7.33878C11.2025 6.81087 11.2025 3.8388 9.03908 3.31432ZM8.50002 6.37551C8.21877 6.36018 7.95432 6.24281 7.76088 6.04745C7.56745 5.85209 7.45968 5.59355 7.45968 5.32483C7.45968 5.05612 7.56745 4.79758 7.76088 4.60222C7.95432 4.40686 8.21877 4.28949 8.50002 4.27416C8.78127 4.28949 9.04573 4.40686 9.23916 4.60222C9.4326 4.79758 9.54036 5.05612 9.54036 5.32483C9.54036 5.59355 9.4326 5.85209 9.23916 6.04745C9.04573 6.24281 8.78127 6.36018 8.50002 6.37551Z" fill="black"/>
<path d="M16.2265 7.72271C16.2258 7.26149 16.0645 6.81358 15.7678 6.44935C15.4712 6.08512 15.0561 5.82522 14.5878 5.71048V0.866737C14.5878 0.730363 14.531 0.599575 14.4299 0.503144C14.3288 0.406713 14.1917 0.352539 14.0487 0.352539C13.9058 0.352539 13.7686 0.406713 13.6676 0.503144C13.5665 0.599575 13.5097 0.730363 13.5097 0.866737V5.71048C13.0437 5.82749 12.6315 6.08837 12.3373 6.45239C12.0431 6.81641 11.8836 7.2631 11.8836 7.72271C11.8836 8.18232 12.0431 8.62901 12.3373 8.99303C12.6315 9.35705 13.0437 9.61793 13.5097 9.73494V14.5787C13.5097 14.7151 13.5665 14.8458 13.6676 14.9423C13.7686 15.0387 13.9058 15.0929 14.0487 15.0929C14.1917 15.0929 14.3288 15.0387 14.4299 14.9423C14.531 14.8458 14.5878 14.7151 14.5878 14.5787V9.73494C15.0561 9.6202 15.4712 9.3603 15.7678 8.99607C16.0645 8.63184 16.2258 8.18393 16.2265 7.72271ZM14.0703 8.77167C13.7786 8.77167 13.4989 8.66116 13.2927 8.46444C13.0865 8.26772 12.9706 8.00091 12.9706 7.72271C12.9706 7.44451 13.0865 7.1777 13.2927 6.98098C13.4989 6.78426 13.7786 6.67375 14.0703 6.67375C14.3619 6.67556 14.6409 6.78782 14.8458 6.98583C15.0507 7.18383 15.1647 7.45136 15.1628 7.72957C15.1609 8.00777 15.0432 8.27385 14.8356 8.46929C14.628 8.66472 14.3476 8.77349 14.0559 8.77167H14.0703Z" fill="black"/>
<path d="M3.49031 9.4367V0.866737C3.49031 0.730363 3.43352 0.599575 3.33242 0.503144C3.23133 0.406713 3.09422 0.352539 2.95125 0.352539C2.80828 0.352539 2.67117 0.406713 2.57007 0.503144C2.46898 0.599575 2.41219 0.730363 2.41219 0.866737V9.4367C1.94778 9.55485 1.53728 9.81599 1.24446 10.1796C0.951647 10.5431 0.792908 10.9887 0.792908 11.4472C0.792908 11.9057 0.951647 12.3513 1.24446 12.7149C1.53728 13.0784 1.94778 13.3396 2.41219 13.4577V14.5787C2.41219 14.7151 2.46898 14.8458 2.57007 14.9423C2.67117 15.0387 2.80828 15.0929 2.95125 15.0929C3.09422 15.0929 3.23133 15.0387 3.33242 14.9423C3.43352 14.8458 3.49031 14.7151 3.49031 14.5787V13.4612C3.95627 13.3442 4.36851 13.0833 4.66267 12.7193C4.95684 12.3552 5.11637 11.9085 5.11637 11.4489C5.11637 10.9893 4.95684 10.5426 4.66267 10.1786C4.36851 9.81459 3.95627 9.55371 3.49031 9.4367ZM2.95125 12.5013C2.66999 12.486 2.40554 12.3686 2.21211 12.1733C2.01867 11.9779 1.91091 11.7194 1.91091 11.4506C1.91091 11.1819 2.01867 10.9234 2.21211 10.728C2.40554 10.5327 2.66999 10.4153 2.95125 10.4C3.2325 10.4153 3.49695 10.5327 3.69039 10.728C3.88382 10.9234 3.99159 11.1819 3.99159 11.4506C3.99159 11.7194 3.88382 11.9779 3.69039 12.1733C3.49695 12.3686 3.2325 12.486 2.95125 12.5013Z" fill="black"/>
</svg>
