<svg xmlns="http://www.w3.org/2000/svg" width="22.302" height="30" viewBox="0 0 22.302 30">
  <g id="Icon_core-location-pin" data-name="Icon core-location-pin" transform="translate(-5.626 -1.237)">
    <path id="Path_7" data-name="Path 7" d="M17.854,8.971a4.5,4.5,0,1,0,4.5,4.5,4.5,4.5,0,0,0-4.5-4.5Zm0,6.75a2.25,2.25,0,1,1,2.25-2.25,2.25,2.25,0,0,1-2.25,2.25Z" transform="translate(-1.078 -0.938)" fill="#3533cd"/>
    <path id="Path_8" data-name="Path 8" d="M24.661,4.5A11.151,11.151,0,0,0,7.433,18.473l7.752,11.9a1.9,1.9,0,0,0,3.182,0l7.752-11.9A11.151,11.151,0,0,0,24.661,4.5ZM24.4,17.354l-7.624,11.7-7.624-11.7a9.1,9.1,0,1,1,15.249,0Z" transform="translate(0 0)" fill="#3533cd"/>
  </g>
</svg>
