<svg width="111" height="175" viewBox="0 0 111 175" fill="none" xmlns="http://www.w3.org/2000/svg">
<path d="M108.114 102.955C101.786 105.18 94.9904 105.737 88.3836 104.574C81.7768 103.41 75.5811 100.564 70.3933 96.3106C57.1813 85.2215 53.039 66.9521 49.6685 50.0356L39.6992 0L60.5708 14.3714C75.5805 24.7065 90.9283 35.3727 101.321 50.3426C111.714 65.3124 116.25 85.7476 107.9 101.946" fill="#E6E6E6"/>
<path d="M106.33 163.534C108.443 148.146 110.615 132.561 109.133 117.009C107.817 103.197 103.603 89.7059 95.0243 78.6445C90.4706 72.7843 84.9296 67.7632 78.6504 63.8071C77.0131 62.7735 75.506 65.3685 77.1363 66.3975C88.001 73.264 96.4046 83.4034 101.135 95.3539C106.36 108.643 107.199 123.13 106.299 137.247C105.754 145.784 104.6 154.266 103.437 162.736C103.346 163.119 103.403 163.523 103.597 163.865C103.792 164.208 104.109 164.464 104.485 164.581C104.869 164.685 105.277 164.633 105.623 164.437C105.968 164.24 106.222 163.916 106.33 163.534Z" fill="#F2F2F2"/>
<path d="M85.9832 136.306C83.2689 140.431 79.5378 143.788 75.1495 146.053C70.7612 148.318 65.8636 149.414 60.9285 149.237C48.2453 148.635 37.6716 139.783 28.1533 131.379L0 106.522L18.6328 105.63C32.0324 104.989 45.7777 104.391 58.5404 108.523C71.3031 112.655 83.0735 122.6 85.4072 135.81" fill="#E6E6E6"/>
<path d="M112.3 172.38C102.133 154.389 90.339 134.394 69.2657 128.003C63.4062 126.232 57.2623 125.598 51.1646 126.134C49.2428 126.3 49.7227 129.262 51.641 129.097C61.862 128.248 72.0633 130.947 80.5275 136.739C88.6724 142.283 95.0141 149.991 100.382 158.164C103.669 163.171 106.614 168.39 109.56 173.602C110.501 175.267 113.253 174.065 112.3 172.38Z" fill="#F2F2F2"/>
</svg>
