<svg xmlns="http://www.w3.org/2000/svg" width="28.97" height="41.84" viewBox="0 0 28.97 41.84">
  <defs>
    <style>
      .cls-1 {
        fill: #313a44;
        fill-rule: evenodd;
      }
    </style>
  </defs>
  <path class="cls-1" d="M1241.48,1073.16a14.5,14.5,0,0,0-14.48,14.49c0,9.22,13.16,26.26,13.72,26.98a0.966,0.966,0,0,0,1.52,0c0.56-.72,13.72-17.76,13.72-26.98A14.5,14.5,0,0,0,1241.48,1073.16Zm0,39.27c-2.62-3.53-12.55-17.39-12.55-24.78a12.55,12.55,0,1,1,25.1,0C1254.03,1095.04,1244.1,1108.9,1241.48,1112.43Zm0-35.4a10.544,10.544,0,0,0-6.08,1.92l-0.08-.09-1.33,1.22-0.21.24,0.01,0.01A10.617,10.617,0,1,0,1241.48,1077.03Zm0,1.93a8.735,8.735,0,0,1,8.62,7.62h-7.69l-5.69-6.19A8.579,8.579,0,0,1,1241.48,1078.96Zm-8.69,8.69a8.626,8.626,0,0,1,2.31-5.89l5.38,5.87-5.62,5.62A8.668,8.668,0,0,1,1232.79,1087.65Zm8.69,8.68a8.6,8.6,0,0,1-5.06-1.63l5.99-5.99h7.69A8.735,8.735,0,0,1,1241.48,1096.33Zm-0.96,11.59h1.93v-1.93h-1.93v1.93Zm0-2.57h1.93v-1.94h-1.93v1.94Zm0-2.58h1.93v-1.93h-1.93v1.93Zm3.21,12.23h12.23v-1.93h-12.23V1115Zm-16.73,0h12.23v-1.93H1227V1115Z" transform="translate(-1227 -1073.16)"/>
</svg>
