<svg xmlns="http://www.w3.org/2000/svg" width="19.38" height="26.59" viewBox="0 0 19.38 26.59">
  <defs>
    <style>
      .cls-1 {
        fill: #ffce00;
        fill-rule: evenodd;
      }
    </style>
  </defs>
  <path class="cls-1" d="M1048.69,4830.98a9.789,9.789,0,0,0-9.69,9.87c0,5.09,7.87,14.57,8.77,15.63l0.92,1.09,0.91-1.09c0.9-1.06,8.77-10.54,8.77-15.63A9.787,9.787,0,0,0,1048.69,4830.98Zm0,22.77c-2.65-3.32-7.27-9.76-7.27-12.9a7.266,7.266,0,1,1,14.53,0C1055.95,4843.98,1051.33,4850.43,1048.69,4853.75Zm-0.03-17.87a4.941,4.941,0,1,0,4.85,4.94A4.892,4.892,0,0,0,1048.66,4835.88Zm0,7.41a2.47,2.47,0,1,1,2.43-2.47A2.452,2.452,0,0,1,1048.66,4843.29Z" transform="translate(-1039 -4830.97)"/>
</svg>
