<svg width="17" height="15" viewBox="0 0 17 15" fill="none" xmlns="http://www.w3.org/2000/svg">
<path d="M8.40862 0C5.28321 0 2.74048 2.36566 2.74048 5.27344C2.74048 6.25588 3.03299 7.21465 3.58657 8.04645L8.08598 14.7923C8.17216 14.9215 8.32401 15 8.48731 15C8.48857 15 8.4898 15 8.49106 15C8.65578 14.9988 8.80794 14.9179 8.89255 14.7864L13.2773 7.9752C13.8003 7.16098 14.0768 6.22673 14.0768 5.27344C14.0768 2.36566 11.534 0 8.40862 0ZM12.4666 7.52396L8.48017 13.7164L4.3895 7.58338C3.92871 6.89104 3.67887 6.09229 3.67887 5.27344C3.67887 2.85029 5.80411 0.873047 8.40862 0.873047C11.0131 0.873047 13.1352 2.85029 13.1352 5.27344C13.1352 6.068 12.9019 6.84633 12.4666 7.52396Z" fill="#0052CC"/>
<path d="M8.40863 2.63672C6.84592 2.63672 5.57455 3.81955 5.57455 5.27344C5.57455 6.71804 6.82523 7.91016 8.40863 7.91016C10.0115 7.91016 11.2427 6.70216 11.2427 5.27344C11.2427 3.81955 9.97133 2.63672 8.40863 2.63672ZM8.40863 7.03711C7.36137 7.03711 6.51295 6.24513 6.51295 5.27344C6.51295 4.30418 7.36682 3.50977 8.40863 3.50977C9.45043 3.50977 10.3012 4.30418 10.3012 5.27344C10.3012 6.23095 9.47247 7.03711 8.40863 7.03711Z" fill="#0052CC"/>
</svg>
