<svg xmlns="http://www.w3.org/2000/svg" width="23" height="22.97" viewBox="0 0 23 22.97">
  <defs>
    <style>
      .cls-1 {
        fill: #fe0000;
        fill-rule: evenodd;
      }
    </style>
  </defs>
  <path class="cls-1" d="M713.015,3069.65l-0.771-.94c-0.7-.87-4.216-5.31-4.216-7.79a4.987,4.987,0,1,1,9.972,0c0,2.48-3.512,6.92-4.215,7.79Zm0-11.77a3.021,3.021,0,0,0-2.987,3.04c0,1.09,1.562,3.59,2.987,5.5,1.423-1.91,2.985-4.41,2.985-5.5A3.02,3.02,0,0,0,713.015,3057.88Zm0.985,3.06a1,1,0,1,1-1-1.02A1,1,0,0,1,714,3060.94Zm-7,1.01h-9a3.03,3.03,0,0,1-3-3.05v-9.16a3.03,3.03,0,0,1,3-3.05h14a3.03,3.03,0,0,1,3,3.05v5.09h-2v-5.09a1.012,1.012,0,0,0-1-1.02H698a1.012,1.012,0,0,0-1,1.02v9.16a1.012,1.012,0,0,0,1,1.02h9v2.03ZM705,3056.8a2.657,2.657,0,0,1-1.885-.78l-7.683-7.62,1.4-1.46,7.686,7.63a0.7,0.7,0,0,0,.967,0l7.8-7.57,1.381,1.47-7.79,7.56A2.654,2.654,0,0,1,705,3056.8Z" transform="translate(-695 -3046.69)"/>
</svg>
