<svg width="281" height="51" viewBox="0 0 281 51" fill="none" xmlns="http://www.w3.org/2000/svg">
<mask id="mask0_57_159" style="mask-type:alpha" maskUnits="userSpaceOnUse" x="-1" y="-1" width="49" height="52">
<path d="M23.495 23.2734C22.0843 23.2732 20.7052 23.6911 19.5319 24.4748C18.3588 25.2584 17.4444 26.3723 16.9043 27.6757C16.3644 28.9791 16.2229 30.4132 16.498 31.7969C16.7732 33.1806 17.4525 34.4516 18.4501 35.4492C19.4477 36.4468 20.7187 37.1262 22.1024 37.4013C23.4861 37.6765 24.9203 37.5352 26.2237 36.9951C27.527 36.455 28.6409 35.5405 29.4246 34.3675C30.2082 33.1944 30.6262 31.815 30.6259 30.4043C30.6239 28.5137 29.8718 26.7013 28.5351 25.3643C27.1983 24.0275 25.3857 23.2755 23.495 23.2734ZM23.495 36.8913C22.2121 36.8916 20.9577 36.5113 19.8907 35.7988C18.8237 35.0861 17.9921 34.0732 17.5007 32.8879C17.0096 31.7026 16.8808 30.3982 17.131 29.1397C17.3811 27.8812 17.9988 26.7253 18.9058 25.8179C19.8132 24.9106 20.9689 24.2925 22.2274 24.042C23.4859 23.7916 24.7902 23.9199 25.9755 24.411C27.1611 24.9019 28.1742 25.7333 28.887 26.8002C29.6 27.867 29.9805 29.1211 29.9805 30.4043C29.9787 32.1239 29.295 33.7728 28.0791 34.9889C26.8632 36.2048 25.2148 36.889 23.495 36.8913Z" fill="white"/>
<path d="M34.4923 40.9004C36.0227 40.8984 37.49 40.2892 38.572 39.2069C39.654 38.1246 40.2627 36.6573 40.2643 35.1267V26.6211C40.261 23.8404 39.1547 21.1743 37.1886 19.2081C35.2222 17.2417 32.5563 16.1355 29.7754 16.1322H28.9864V13.8231C29.5739 13.6114 30.0822 13.2238 30.4417 12.713C30.8013 12.2022 30.9946 11.593 30.9954 10.9685V7.86548C30.9946 7.06066 30.6746 6.289 30.1054 5.72007C29.5364 5.15088 28.7648 4.83084 27.9602 4.83008H19.0284C18.2236 4.83084 17.4522 5.15088 16.883 5.72007C16.3141 6.289 15.9941 7.06066 15.993 7.86548V10.9685C15.9943 11.593 16.1879 12.202 16.5474 12.7125C16.9068 13.2233 17.4147 13.6109 18.002 13.8231V16.1322H8.06831C5.92927 16.1347 3.87847 16.9857 2.366 18.4982C0.853523 20.0107 0.00255011 22.0615 0 24.2005V35.1267C0.00178508 36.6573 0.610241 38.1246 1.69251 39.2069C2.77452 40.2892 4.2416 40.8984 5.77218 40.9004H34.4923ZM17.2842 10.9685V7.86548C17.2844 7.40289 17.4683 6.95942 17.7955 6.63224C18.1224 6.30532 18.5659 6.12146 19.0284 6.12095H27.9602C28.4226 6.12146 28.866 6.30532 29.1932 6.63224C29.5201 6.95942 29.704 7.40289 29.7045 7.86548V10.9685C29.704 11.4311 29.5201 11.8748 29.1932 12.202C28.8663 12.5294 28.4228 12.7135 27.9602 12.7145H19.0284C18.5659 12.7135 18.1224 12.5294 17.7952 12.202C17.4683 11.8748 17.2844 11.4311 17.2842 10.9685ZM19.2932 14.0054H27.6955V16.1322H19.2932V14.0054ZM1.61371 35.1267V24.2005C1.61371 22.4886 2.29383 20.8468 3.50411 19.6363C4.71465 18.426 6.35642 17.7459 8.06831 17.7459H9.86436C10.7487 18.2575 11.8573 19.1821 11.8573 20.5972C11.8573 21.8881 10.9989 22.8563 10.1709 23.7859L10.1683 23.7889C9.41094 24.6414 8.69615 25.446 8.69615 26.4436V39.2867H5.77218C4.66926 39.2854 3.61224 38.8468 2.83241 38.0667C2.05284 37.2869 1.61448 36.2294 1.61371 35.1267ZM9.34158 39.2867V26.4436C9.34158 25.69 9.94978 25.0058 10.6534 24.215L10.6564 24.2117C11.5222 23.2363 12.5027 22.1316 12.5027 20.5972C12.5027 19.3063 11.7961 18.3801 11.0165 17.7459H29.7754C32.1286 17.7485 34.3845 18.6843 36.0484 20.3483C37.7121 22.012 38.648 24.2681 38.6506 26.6211V35.1267C38.6498 36.2294 38.2114 37.2869 37.4319 38.0667C36.6523 38.8468 35.595 39.2854 34.4923 39.2867H29.0751C31.0017 38.0762 32.4823 36.2717 33.2935 34.1459C34.105 32.0204 34.2032 29.6883 33.573 27.5019C32.9432 25.3157 31.6194 23.3934 29.8014 22.025C27.9832 20.6569 25.7697 19.9171 23.4942 19.9171C21.219 19.9171 19.0052 20.6569 17.1873 22.025C15.3693 23.3934 14.0453 25.3157 13.4154 27.5019C12.7855 29.6883 12.8834 32.0204 13.6949 34.1459C14.5063 36.2717 15.9869 38.0762 17.9133 39.2867H9.34158ZM23.495 39.2867C21.7397 39.2867 20.0238 38.7662 18.5643 37.7911C17.1046 36.8159 15.9673 35.4297 15.2953 33.8081C14.6236 32.1862 14.4479 30.4019 14.7904 28.68C15.1329 26.9584 15.9783 25.3771 17.2194 24.136C18.4605 22.8946 20.0419 22.0495 21.7637 21.707C23.4853 21.3645 25.2699 21.5402 26.8915 22.2119C28.5131 22.8836 29.8993 24.0212 30.8745 25.4809C31.8497 26.9403 32.3704 28.6563 32.3704 30.4116C32.3661 32.764 31.4297 35.0191 29.766 36.6825C28.1025 38.346 25.8477 39.2826 23.495 39.2867Z" fill="white"/>
<path d="M34.4923 40.9004C36.0227 40.8984 37.49 40.2892 38.572 39.2069C39.654 38.1246 40.2627 36.6573 40.2643 35.1267V26.6211C40.261 23.8404 39.1547 21.1743 37.1886 19.2081C35.2222 17.2417 32.5563 16.1355 29.7754 16.1322H28.9864V13.8231C29.5739 13.6114 30.0822 13.2238 30.4417 12.713C30.8013 12.2022 30.9946 11.593 30.9954 10.9685V7.86548C30.9946 7.06066 30.6746 6.289 30.1054 5.72007C29.5364 5.15088 28.7648 4.83084 27.9602 4.83008H19.0284C18.2236 4.83084 17.4522 5.15088 16.883 5.72007C16.3141 6.289 15.9941 7.06066 15.993 7.86548V10.9685C15.9943 11.593 16.1879 12.202 16.5474 12.7125C16.9068 13.2233 17.4147 13.6109 18.002 13.8231V16.1322H8.06831C5.92927 16.1347 3.87847 16.9857 2.366 18.4982C0.853523 20.0107 0.00255011 22.0615 0 24.2005V35.1267C0.00178508 36.6573 0.610241 38.1246 1.69251 39.2069C2.77452 40.2892 4.2416 40.8984 5.77218 40.9004H34.4923ZM17.2842 10.9685V7.86548C17.2844 7.40289 17.4683 6.95942 17.7955 6.63224C18.1224 6.30532 18.5659 6.12146 19.0284 6.12095H27.9602C28.4226 6.12146 28.866 6.30532 29.1932 6.63224C29.5201 6.95942 29.704 7.40289 29.7045 7.86548V10.9685C29.704 11.4311 29.5201 11.8748 29.1932 12.202C28.8663 12.5294 28.4228 12.7135 27.9602 12.7145H19.0284C18.5659 12.7135 18.1224 12.5294 17.7952 12.202C17.4683 11.8748 17.2844 11.4311 17.2842 10.9685ZM19.2932 14.0054H27.6955V16.1322H19.2932V14.0054ZM1.61371 35.1267V24.2005C1.61371 22.4886 2.29383 20.8468 3.50411 19.6363C4.71465 18.426 6.35642 17.7459 8.06831 17.7459H9.86436C10.7487 18.2575 11.8573 19.1821 11.8573 20.5972C11.8573 21.8881 10.9989 22.8563 10.1709 23.7858L10.1683 23.7889C9.41094 24.6414 8.69615 25.446 8.69615 26.4436V39.2867H5.77218C4.66926 39.2854 3.61224 38.8468 2.83241 38.0667C2.05284 37.2869 1.61448 36.2294 1.61371 35.1267ZM9.34158 39.2867V26.4436C9.34158 25.69 9.94978 25.0058 10.6534 24.215L10.6564 24.2117C11.5222 23.2363 12.5027 22.1316 12.5027 20.5972C12.5027 19.3063 11.7961 18.3801 11.0165 17.7459H29.7754C32.1286 17.7485 34.3845 18.6843 36.0484 20.3483C37.7121 22.012 38.648 24.2681 38.6506 26.6211V35.1267C38.6498 36.2294 38.2114 37.2869 37.4319 38.0667C36.6523 38.8468 35.595 39.2854 34.4923 39.2867H29.0751C31.0017 38.0762 32.4823 36.2717 33.2935 34.1459C34.105 32.0204 34.2032 29.6883 33.573 27.5019C32.9432 25.3157 31.6194 23.3934 29.8014 22.025C27.9832 20.6569 25.7697 19.9171 23.4942 19.9171C21.219 19.9171 19.0052 20.6569 17.1873 22.025C15.3693 23.3934 14.0453 25.3157 13.4154 27.5019C12.7855 29.6883 12.8834 32.0204 13.6949 34.1459C14.5063 36.2717 15.9869 38.0762 17.9133 39.2867H9.34158ZM23.495 39.2867C21.7397 39.2867 20.0238 38.7662 18.5643 37.7911C17.1046 36.8159 15.9673 35.4297 15.2953 33.8081C14.6236 32.1862 14.4479 30.4019 14.7904 28.68C15.1329 26.9584 15.9783 25.3771 17.2194 24.136C18.4605 22.8946 20.0419 22.0495 21.7637 21.707C23.4853 21.3645 25.2699 21.5402 26.8915 22.2119C28.5131 22.8836 29.8993 24.0212 30.8745 25.4809C31.8497 26.9403 32.3704 28.6563 32.3704 30.4116C32.3661 32.764 31.4297 35.0191 29.766 36.6825C28.1025 38.346 25.8477 39.2826 23.495 39.2867Z" stroke="black"/>
<path d="M27.5905 11.728C27.8751 11.728 28.1483 11.615 28.3495 11.4138C28.5507 11.2126 28.6636 10.9395 28.6636 10.6549V8.178C28.6634 7.89366 28.5502 7.62106 28.3489 7.42037C28.1477 7.21942 27.8749 7.10645 27.5905 7.10645H19.398C19.1137 7.10645 18.8411 7.21942 18.6399 7.42037C18.4387 7.62106 18.3255 7.89366 18.325 8.178V10.6549C18.325 10.9395 18.4379 11.2126 18.6391 11.4138C18.8406 11.615 19.1134 11.728 19.398 11.728H27.5905ZM18.9704 10.6549V8.178C18.9709 8.06478 19.016 7.95665 19.0961 7.87658C19.1764 7.79676 19.2848 7.75213 19.398 7.75213H27.5905C27.7038 7.75213 27.8124 7.79676 27.8925 7.87658C27.9725 7.95665 28.0179 8.06478 28.0182 8.178V10.6549C28.0182 10.7684 27.9733 10.8773 27.893 10.9574C27.8129 11.0377 27.704 11.0826 27.5905 11.0826H19.398C19.2846 11.0826 19.1759 11.0377 19.0956 10.9574C19.0155 10.8773 18.9704 10.7684 18.9704 10.6549Z" fill="white"/>
<path d="M2.61259 16.3995C2.73627 16.4651 2.875 16.4967 3.01475 16.4911C3.1573 16.487 3.29628 16.4454 3.41741 16.3702C3.53854 16.295 3.63749 16.1892 3.7043 16.0632C5.90097 11.8246 9.3602 8.37356 13.6038 6.18683C13.7079 6.1445 13.8017 6.08075 13.8798 6.00017C13.9578 5.91933 14.018 5.82319 14.0567 5.71787C14.0953 5.61255 14.1116 5.50034 14.1044 5.38839C14.0973 5.27619 14.0669 5.16704 14.0152 5.06733C13.9634 4.96788 13.8912 4.88015 13.8038 4.81003C13.7161 4.7399 13.6148 4.68864 13.5064 4.65982C13.3978 4.63101 13.2846 4.62514 13.1736 4.64274C13.063 4.66008 12.9569 4.70063 12.8625 4.76132C8.3246 7.10309 4.62616 10.7969 2.27853 15.3318C2.18545 15.5185 2.16811 15.734 2.23033 15.9331C2.29255 16.132 2.42975 16.2993 2.61259 16.3995Z" fill="white"/>
<path d="M43.9593 13.9885C41.5512 10.2664 38.1488 7.29269 34.1378 5.40484C34.0449 5.35001 33.9419 5.31508 33.8351 5.30233C33.7282 5.28958 33.6201 5.29926 33.5171 5.33063C33.4143 5.36225 33.3189 5.41479 33.2376 5.48517C33.1562 5.55555 33.0904 5.64226 33.0443 5.73942C32.9984 5.83683 32.9731 5.94266 32.9703 6.05002C32.9675 6.15764 32.9871 6.26474 33.028 6.36419C33.0688 6.4639 33.1299 6.55367 33.2075 6.62839C33.2853 6.70285 33.3776 6.76048 33.4786 6.7972C37.2757 8.59427 40.486 11.43 42.7378 14.9762C44.9898 18.5224 46.1909 22.6339 46.2026 26.8347C46.2026 39.0421 36.2727 48.9718 24.0671 48.9718C18.4642 48.9792 13.0687 46.8539 8.97577 43.0275C8.90208 42.9555 8.8146 42.8989 8.71872 42.8612C8.62283 42.8234 8.52032 42.8053 8.4173 42.8076C8.31427 42.8102 8.21278 42.8331 8.11868 42.8752C8.02483 42.9175 7.94017 42.978 7.86979 43.0535C7.7994 43.1287 7.74483 43.2174 7.70939 43.3141C7.67368 43.4107 7.65787 43.5138 7.66272 43.6168C7.66731 43.7196 7.69256 43.8205 7.73693 43.9136C7.7813 44.0067 7.84378 44.0901 7.92079 44.1587C12.2996 48.2524 18.0725 50.5266 24.0671 50.5189C37.1267 50.5189 47.7498 39.8946 47.7498 26.8347C47.7543 22.2764 46.4377 17.8142 43.9593 13.9885Z" fill="white"/>
<path d="M23.5054 2.66344L23.5049 1" stroke="white" stroke-width="2.5" stroke-linecap="round"/>
<path d="M19.9763 2.9937L19.6611 1.36035" stroke="white" stroke-width="2.5" stroke-linecap="round"/>
<path d="M16.5054 3.76974L15.8223 2.25293" stroke="white" stroke-width="2.5" stroke-linecap="round"/>
<path d="M27.1792 2.89066L27.4309 1.24609" stroke="white" stroke-width="2.5" stroke-linecap="round"/>
<path d="M30.5911 3.76337L31.1623 2.20117" stroke="white" stroke-width="2.5" stroke-linecap="round"/>
<path d="M8.53338 20.8209C8.53338 21.0713 8.38114 21.3291 8.07104 21.536C7.76248 21.7418 7.32157 21.8772 6.82175 21.8772C6.32192 21.8772 5.88101 21.7418 5.57244 21.536C5.26235 21.3291 5.11011 21.0713 5.11011 20.8209C5.11011 20.5707 5.26235 20.3127 5.57244 20.1059C5.88101 19.9003 6.32192 19.7646 6.82175 19.7646C7.32157 19.7646 7.76248 19.9003 8.07104 20.1059C8.38114 20.3127 8.53338 20.5707 8.53338 20.8209Z" stroke="black" stroke-width="2"/>
<path d="M14.5431 21.7737C15.1063 21.7737 15.5628 21.3172 15.5628 20.7541C15.5628 20.1909 15.1063 19.7344 14.5431 19.7344C13.98 19.7344 13.5234 20.1909 13.5234 20.7541C13.5234 21.3172 13.98 21.7737 14.5431 21.7737Z" stroke="black" stroke-width="2"/>
</mask>
<g mask="url(#mask0_57_159)">
<path d="M0 0.680889L0 50.5186H47.7496V0.680889H0Z" fill="url(#paint0_linear_57_159)"/>
</g>
<path d="M67.3676 35.6051C66.1164 35.6051 64.8737 35.4422 63.6396 35.1164C62.4055 34.7734 61.3599 34.2933 60.5029 33.676L62.1227 30.4867C62.8083 30.9839 63.6053 31.3783 64.5138 31.6698C65.4222 31.9613 66.3392 32.1071 67.2648 32.1071C68.3103 32.1071 69.1331 31.9013 69.733 31.4898C70.3329 31.0783 70.6328 30.5124 70.6328 29.7922C70.6328 29.1063 70.3672 28.5662 69.8358 28.1718C69.3045 27.7775 68.4474 27.5803 67.2648 27.5803H65.3622V24.8282L70.3757 19.1439L70.8385 20.6357H61.4028V17.292H74.0009V19.9927L69.0131 25.6769L66.9048 24.4681H68.1132C70.3243 24.4681 71.9955 24.9653 73.1267 25.9599C74.258 26.9544 74.8236 28.2319 74.8236 29.7922C74.8236 30.8039 74.558 31.7556 74.0266 32.6472C73.4953 33.5217 72.6811 34.2333 71.5841 34.782C70.4871 35.3307 69.0816 35.6051 67.3676 35.6051ZM84.7939 35.6051C83.1484 35.6051 81.7172 35.2621 80.5003 34.5763C79.3005 33.8904 78.3749 32.8873 77.7236 31.5669C77.0722 30.2466 76.7466 28.6177 76.7466 26.68C76.7466 24.6053 77.1322 22.8477 77.9035 21.4073C78.692 19.967 79.7718 18.8696 81.143 18.1151C82.5314 17.3606 84.1254 16.9834 85.9252 16.9834C86.885 16.9834 87.802 17.0863 88.6762 17.292C89.5503 17.4978 90.3045 17.8065 90.9387 18.218L89.3961 21.2787C88.899 20.9358 88.3677 20.7043 87.802 20.5843C87.2364 20.4471 86.6451 20.3785 86.028 20.3785C84.4683 20.3785 83.2341 20.8501 82.3257 21.7931C81.4173 22.7362 80.9631 24.1337 80.9631 25.9856C80.9631 26.2942 80.9631 26.6372 80.9631 27.0144C80.9802 27.3916 81.0316 27.7689 81.1173 28.1461L79.9604 27.0659C80.286 26.3971 80.706 25.8398 81.2202 25.394C81.7344 24.931 82.3429 24.5881 83.0456 24.3652C83.7655 24.1251 84.5539 24.0051 85.411 24.0051C86.5765 24.0051 87.6221 24.2366 88.5476 24.6996C89.4732 25.1625 90.2102 25.8141 90.7587 26.6543C91.3244 27.4945 91.6072 28.4805 91.6072 29.6122C91.6072 30.8296 91.2987 31.8927 90.6816 32.8015C90.0817 33.6932 89.2675 34.3876 88.2391 34.8849C87.2278 35.365 86.0794 35.6051 84.7939 35.6051ZM84.5625 32.4929C85.1453 32.4929 85.6595 32.39 86.1051 32.1842C86.5679 31.9613 86.9279 31.6441 87.185 31.2326C87.4421 30.8211 87.5706 30.3495 87.5706 29.818C87.5706 28.9949 87.2878 28.3433 86.7222 27.8632C86.1737 27.3659 85.4367 27.1173 84.5111 27.1173C83.8941 27.1173 83.3541 27.2373 82.8913 27.4774C82.4286 27.7003 82.06 28.0175 81.7858 28.429C81.5287 28.8234 81.4001 29.2864 81.4001 29.818C81.4001 30.3324 81.5287 30.7953 81.7858 31.2069C82.0429 31.6012 82.4028 31.9185 82.8656 32.1585C83.3284 32.3814 83.894 32.4929 84.5625 32.4929ZM100.83 35.6051C99.3562 35.6051 98.0364 35.245 96.8708 34.5248C95.7053 33.7875 94.7883 32.7244 94.1198 31.3355C93.4514 29.9466 93.1171 28.2661 93.1171 26.2942C93.1171 24.3223 93.4514 22.6419 94.1198 21.253C94.7883 19.8641 95.7053 18.8096 96.8708 18.0894C98.0364 17.3521 99.3562 16.9834 100.83 16.9834C102.321 16.9834 103.641 17.3521 104.79 18.0894C105.955 18.8096 106.872 19.8641 107.541 21.253C108.209 22.6419 108.543 24.3223 108.543 26.2942C108.543 28.2661 108.209 29.9466 107.541 31.3355C106.872 32.7244 105.955 33.7875 104.79 34.5248C103.641 35.245 102.321 35.6051 100.83 35.6051ZM100.83 32.0814C101.533 32.0814 102.141 31.8842 102.656 31.4898C103.187 31.0954 103.598 30.4695 103.89 29.6122C104.198 28.7548 104.353 27.6489 104.353 26.2942C104.353 24.9396 104.198 23.8336 103.89 22.9763C103.598 22.1189 103.187 21.4931 102.656 21.0987C102.141 20.7043 101.533 20.5071 100.83 20.5071C100.145 20.5071 99.5362 20.7043 99.0048 21.0987C98.4906 21.4931 98.0792 22.1189 97.7707 22.9763C97.4793 23.8336 97.3336 24.9396 97.3336 26.2942C97.3336 27.6489 97.4793 28.7548 97.7707 29.6122C98.0792 30.4695 98.4906 31.0954 99.0048 31.4898C99.5362 31.8842 100.145 32.0814 100.83 32.0814ZM114.938 25.8827C114.098 25.8827 113.335 25.6941 112.65 25.3169C111.964 24.9225 111.415 24.3909 111.004 23.7222C110.61 23.0534 110.413 22.3076 110.413 21.4845C110.413 20.6614 110.61 19.9155 111.004 19.2468C111.415 18.5781 111.964 18.0465 112.65 17.6521C113.335 17.2577 114.098 17.0606 114.938 17.0606C115.778 17.0606 116.532 17.2577 117.2 17.6521C117.886 18.0465 118.426 18.5781 118.82 19.2468C119.231 19.9155 119.437 20.6614 119.437 21.4845C119.437 22.3076 119.231 23.0534 118.82 23.7222C118.426 24.3738 117.886 24.8968 117.2 25.2911C116.532 25.6855 115.778 25.8827 114.938 25.8827ZM114.938 23.9022C115.383 23.9022 115.786 23.7993 116.146 23.5936C116.506 23.3707 116.789 23.0792 116.995 22.7191C117.2 22.359 117.303 21.9475 117.303 21.4845C117.303 21.0215 117.2 20.61 116.995 20.2499C116.789 19.8727 116.506 19.5812 116.146 19.3754C115.786 19.1696 115.383 19.0668 114.938 19.0668C114.475 19.0668 114.064 19.1696 113.704 19.3754C113.344 19.5812 113.061 19.8641 112.855 20.2242C112.65 20.5843 112.547 21.0044 112.547 21.4845C112.547 21.9475 112.65 22.359 112.855 22.7191C113.061 23.0792 113.344 23.3707 113.704 23.5936C114.064 23.7993 114.475 23.9022 114.938 23.9022Z" fill="black"/>
<path d="M137.913 35.2964V17.292H139.481L147.709 31.3354H146.886L155.036 17.292H156.604V35.2964H154.779V20.147H155.216L147.709 33.0073H146.809L139.25 20.147H139.738V35.2964H137.913ZM164.165 25.3426H173.678V26.9629H164.165V25.3426ZM164.371 33.6503H175.195V35.2964H162.468V17.292H174.809V18.9381H164.371V33.6503ZM179.667 35.2964V17.292H181.235L189.463 31.3354H188.64L196.79 17.292H198.359V35.2964H196.533V20.147H196.97L189.463 33.0073H188.563L181.004 20.147H181.493V35.2964H179.667ZM212.09 35.4507C210.736 35.4507 209.476 35.2278 208.311 34.782C207.162 34.319 206.16 33.676 205.303 32.8529C204.463 32.0127 203.803 31.0439 203.323 29.9465C202.86 28.832 202.629 27.6145 202.629 26.2942C202.629 24.9739 202.86 23.765 203.323 22.6676C203.803 21.5531 204.463 20.5842 205.303 19.7612C206.16 18.921 207.162 18.278 208.311 17.8322C209.459 17.3692 210.719 17.1377 212.09 17.1377C213.444 17.1377 214.695 17.3692 215.844 17.8322C216.992 18.278 217.986 18.9124 218.826 19.7355C219.683 20.5585 220.343 21.5273 220.806 22.6419C221.286 23.7564 221.526 24.9739 221.526 26.2942C221.526 27.6145 221.286 28.832 220.806 29.9465C220.343 31.0611 219.683 32.0299 218.826 32.8529C217.986 33.676 216.992 34.319 215.844 34.782C214.695 35.2278 213.444 35.4507 212.09 35.4507ZM212.09 33.7532C213.17 33.7532 214.164 33.5731 215.072 33.213C215.998 32.8358 216.795 32.3128 217.464 31.6441C218.149 30.9582 218.681 30.1694 219.058 29.2778C219.435 28.369 219.623 27.3745 219.623 26.2942C219.623 25.2139 219.435 24.228 219.058 23.3363C218.681 22.4276 218.149 21.6388 217.464 20.9701C216.795 20.2842 215.998 19.7612 215.072 19.4011C214.164 19.0239 213.17 18.8353 212.09 18.8353C211.01 18.8353 210.008 19.0239 209.082 19.4011C208.156 19.7612 207.351 20.2842 206.665 20.9701C205.997 21.6388 205.465 22.4276 205.071 23.3363C204.694 24.228 204.506 25.2139 204.506 26.2942C204.506 27.3573 204.694 28.3433 205.071 29.2521C205.465 30.1609 205.997 30.9582 206.665 31.6441C207.351 32.3128 208.156 32.8358 209.082 33.213C210.008 33.5731 211.01 33.7532 212.09 33.7532ZM225.791 35.2964V17.292H232.527C234.052 17.292 235.363 17.5407 236.46 18.0379C237.557 18.518 238.397 19.2211 238.98 20.147C239.58 21.0558 239.88 22.1618 239.88 23.4649C239.88 24.7338 239.58 25.8312 238.98 26.7572C238.397 27.666 237.557 28.369 236.46 28.8663C235.363 29.3464 234.052 29.5864 232.527 29.5864H226.845L227.693 28.7119V35.2964H225.791ZM238.08 35.2964L233.452 28.7634H235.509L240.163 35.2964H238.08ZM227.693 28.8663L226.845 27.966H232.475C234.275 27.966 235.638 27.5717 236.563 26.7829C237.506 25.9941 237.977 24.8882 237.977 23.4649C237.977 22.0246 237.506 20.91 236.563 20.1213C235.638 19.3325 234.275 18.9381 232.475 18.9381H226.845L227.693 18.0379V28.8663ZM244.37 35.2964V17.292H246.273V35.2964H244.37ZM253.825 25.3426H263.338V26.9629H253.825V25.3426ZM254.031 33.6503H264.855V35.2964H252.128V17.292H264.469V18.9381H254.031V33.6503ZM274.289 35.4507C272.953 35.4507 271.667 35.2364 270.433 34.8077C269.216 34.3619 268.273 33.796 267.605 33.1102L268.35 31.6441C268.985 32.2614 269.833 32.7844 270.896 33.213C271.976 33.6246 273.107 33.8303 274.289 33.8303C275.421 33.8303 276.338 33.6932 277.04 33.4188C277.76 33.1273 278.283 32.7415 278.609 32.2614C278.952 31.7813 279.123 31.2497 279.123 30.6667C279.123 29.9637 278.917 29.3978 278.506 28.9691C278.112 28.5405 277.589 28.2061 276.938 27.966C276.286 27.7088 275.566 27.4859 274.778 27.2973C273.99 27.1087 273.201 26.9115 272.413 26.7057C271.624 26.4828 270.896 26.1913 270.227 25.8312C269.576 25.4712 269.045 24.9996 268.633 24.4166C268.239 23.8165 268.042 23.0363 268.042 22.076C268.042 21.1844 268.273 20.3699 268.736 19.6326C269.216 18.8781 269.944 18.278 270.921 17.8322C271.898 17.3692 273.15 17.1377 274.675 17.1377C275.686 17.1377 276.689 17.2834 277.683 17.5749C278.677 17.8493 279.534 18.2351 280.254 18.7324L279.612 20.2499C278.84 19.7355 278.017 19.3582 277.143 19.1182C276.286 18.8781 275.455 18.7581 274.649 18.7581C273.57 18.7581 272.678 18.9038 271.976 19.1953C271.273 19.4868 270.75 19.8812 270.407 20.3785C270.082 20.8586 269.919 21.4073 269.919 22.0246C269.919 22.7276 270.116 23.2935 270.51 23.7222C270.921 24.1508 271.453 24.4852 272.104 24.7253C272.773 24.9653 273.501 25.1797 274.289 25.3683C275.078 25.5569 275.858 25.7627 276.629 25.9856C277.418 26.2085 278.137 26.5 278.789 26.8601C279.457 27.203 279.989 27.666 280.383 28.249C280.794 28.832 281 29.595 281 30.5381C281 31.4126 280.76 32.2271 280.28 32.9816C279.8 33.7189 279.063 34.319 278.069 34.782C277.092 35.2278 275.832 35.4507 274.289 35.4507Z" fill="black"/>
<defs>
<linearGradient id="paint0_linear_57_159" x1="0" y1="25.5996" x2="47.7496" y2="25.5996" gradientUnits="userSpaceOnUse">
<stop stop-color="#926329"/>
<stop offset="0.5" stop-color="#FAF3A0"/>
<stop offset="1" stop-color="#926329"/>
</linearGradient>
</defs>
</svg>
