<svg width="188" height="26" viewBox="0 0 188 26" fill="none" xmlns="http://www.w3.org/2000/svg">
<path d="M1.91815 6.6V22H4.51415V6.6H1.91815ZM3.45815 8.888H6.56015C7.45482 8.888 8.17348 9.10067 8.71615 9.526C9.25882 9.93667 9.53015 10.5527 9.53015 11.374C9.53015 12.1953 9.25882 12.8187 8.71615 13.244C8.17348 13.6693 7.45482 13.882 6.56015 13.882H3.45815V16.17H6.56015C7.67482 16.17 8.64282 15.9793 9.46415 15.598C10.3001 15.202 10.9455 14.6447 11.4001 13.926C11.8548 13.2073 12.0821 12.3567 12.0821 11.374C12.0821 10.3913 11.8548 9.548 11.4001 8.844C10.9455 8.12533 10.3001 7.57533 9.46415 7.194C8.64282 6.798 7.67482 6.6 6.56015 6.6H3.45815V8.888ZM14.6369 6.6V22H23.3489V19.668H17.2329V6.6H14.6369ZM36.4707 6.6V16.94L25.2287 5.83V22H27.7807V11.66L39.0227 22.77V6.6H36.4707ZM44.3077 14.3C44.3077 13.244 44.5277 12.3053 44.9677 11.484C45.4223 10.648 46.0457 9.99533 46.8377 9.526C47.6297 9.05667 48.5317 8.822 49.5437 8.822C50.585 8.822 51.4943 9.05667 52.2717 9.526C53.0637 9.99533 53.6797 10.648 54.1197 11.484C54.5597 12.3053 54.7797 13.244 54.7797 14.3C54.7797 15.356 54.5523 16.302 54.0977 17.138C53.6577 17.9593 53.0417 18.6047 52.2497 19.074C51.4723 19.5433 50.5703 19.778 49.5437 19.778C48.5317 19.778 47.6297 19.5433 46.8377 19.074C46.0457 18.6047 45.4223 17.9593 44.9677 17.138C44.5277 16.302 44.3077 15.356 44.3077 14.3ZM41.5577 14.3C41.5577 15.444 41.7557 16.5073 42.1517 17.49C42.5477 18.4727 43.0977 19.3233 43.8017 20.042C44.5203 20.7607 45.371 21.3253 46.3537 21.736C47.3363 22.132 48.3997 22.33 49.5437 22.33C50.7023 22.33 51.7657 22.132 52.7337 21.736C53.7163 21.3253 54.567 20.7607 55.2857 20.042C56.0043 19.3233 56.5617 18.4727 56.9577 17.49C57.3537 16.5073 57.5517 15.444 57.5517 14.3C57.5517 13.1413 57.3537 12.078 56.9577 11.11C56.5617 10.142 55.997 9.306 55.2637 8.602C54.545 7.88333 53.7017 7.326 52.7337 6.93C51.7657 6.534 50.7023 6.336 49.5437 6.336C48.4143 6.336 47.3583 6.534 46.3757 6.93C45.4077 7.326 44.557 7.88333 43.8237 8.602C43.105 9.306 42.5477 10.142 42.1517 11.11C41.7557 12.078 41.5577 13.1413 41.5577 14.3ZM60.0764 6.6V22H62.6724V6.6H60.0764ZM61.6164 8.888H64.7184C65.613 8.888 66.3317 9.10067 66.8744 9.526C67.417 9.93667 67.6884 10.5527 67.6884 11.374C67.6884 12.1953 67.417 12.8187 66.8744 13.244C66.3317 13.6693 65.613 13.882 64.7184 13.882H61.6164V16.17H64.7184C65.833 16.17 66.801 15.9793 67.6224 15.598C68.4584 15.202 69.1037 14.6447 69.5584 13.926C70.013 13.2073 70.2404 12.3567 70.2404 11.374C70.2404 10.3913 70.013 9.548 69.5584 8.844C69.1037 8.12533 68.4584 7.57533 67.6224 7.194C66.801 6.798 65.833 6.6 64.7184 6.6H61.6164V8.888ZM75.9631 14.652L80.8691 22H83.9931L78.7791 14.652H75.9631ZM72.7951 6.6V22H75.3911V6.6H72.7951ZM74.3351 8.844H77.4371C78.0238 8.844 78.5371 8.94667 78.9771 9.152C79.4318 9.35733 79.7838 9.65067 80.0331 10.032C80.2824 10.4133 80.4071 10.8827 80.4071 11.44C80.4071 11.9827 80.2824 12.452 80.0331 12.848C79.7838 13.2293 79.4318 13.5227 78.9771 13.728C78.5371 13.9333 78.0238 14.036 77.4371 14.036H74.3351V16.17H77.5471C78.6618 16.17 79.6298 15.972 80.4511 15.576C81.2871 15.18 81.9324 14.6227 82.3871 13.904C82.8418 13.1853 83.0691 12.342 83.0691 11.374C83.0691 10.406 82.8418 9.57 82.3871 8.866C81.9324 8.14733 81.2871 7.59 80.4511 7.194C79.6298 6.798 78.6618 6.6 77.5471 6.6H74.3351V8.844ZM87.7271 18.04H95.8671L95.3611 15.84H88.2111L87.7271 18.04ZM91.7531 10.956L94.1951 16.676L94.2611 17.314L96.3511 22H99.2771L91.7531 5.742L84.2291 22H87.1551L89.2891 17.182L89.3331 16.61L91.7531 10.956ZM94.8551 1.122L92.8531 0.132L89.5531 3.652L90.8951 4.422L94.8551 1.122ZM102.317 14.3C102.317 13.2 102.559 12.2467 103.043 11.44C103.541 10.6187 104.187 9.988 104.979 9.548C105.785 9.09333 106.658 8.866 107.597 8.866C108.33 8.866 108.99 8.96133 109.577 9.152C110.163 9.34267 110.691 9.60667 111.161 9.944C111.645 10.2667 112.063 10.6333 112.415 11.044V7.964C111.769 7.436 111.073 7.03267 110.325 6.754C109.577 6.47533 108.638 6.336 107.509 6.336C106.379 6.336 105.323 6.52667 104.341 6.908C103.373 7.28933 102.529 7.83933 101.811 8.558C101.092 9.27667 100.527 10.1273 100.117 11.11C99.7205 12.078 99.5225 13.1413 99.5225 14.3C99.5225 15.4587 99.7205 16.5293 100.117 17.512C100.527 18.48 101.092 19.3233 101.811 20.042C102.529 20.7607 103.373 21.3107 104.341 21.692C105.323 22.0733 106.379 22.264 107.509 22.264C108.638 22.264 109.577 22.1247 110.325 21.846C111.073 21.5673 111.769 21.164 112.415 20.636V17.556C112.063 17.9667 111.645 18.3407 111.161 18.678C110.691 19.0007 110.163 19.2573 109.577 19.448C108.99 19.6387 108.33 19.734 107.597 19.734C106.658 19.734 105.785 19.514 104.979 19.074C104.187 18.6193 103.541 17.9813 103.043 17.16C102.559 16.3387 102.317 15.3853 102.317 14.3ZM117.219 22H124.985V19.712H117.219V22ZM117.219 8.888H124.985V6.6H117.219V8.888ZM117.219 14.872H124.545V12.628H117.219V14.872ZM115.613 6.6V22H118.165V6.6H115.613ZM128.314 20.878C128.314 21.2887 128.46 21.648 128.754 21.956C129.062 22.264 129.428 22.418 129.854 22.418C130.308 22.418 130.682 22.264 130.976 21.956C131.269 21.648 131.416 21.2887 131.416 20.878C131.416 20.4527 131.269 20.0933 130.976 19.8C130.682 19.492 130.308 19.338 129.854 19.338C129.428 19.338 129.062 19.492 128.754 19.8C128.46 20.0933 128.314 20.4527 128.314 20.878ZM136.885 14.3C136.885 13.2 137.127 12.2467 137.611 11.44C138.11 10.6187 138.755 9.988 139.547 9.548C140.354 9.09333 141.226 8.866 142.165 8.866C142.898 8.866 143.558 8.96133 144.145 9.152C144.732 9.34267 145.26 9.60667 145.729 9.944C146.213 10.2667 146.631 10.6333 146.983 11.044V7.964C146.338 7.436 145.641 7.03267 144.893 6.754C144.145 6.47533 143.206 6.336 142.077 6.336C140.948 6.336 139.892 6.52667 138.909 6.908C137.941 7.28933 137.098 7.83933 136.379 8.558C135.66 9.27667 135.096 10.1273 134.685 11.11C134.289 12.078 134.091 13.1413 134.091 14.3C134.091 15.4587 134.289 16.5293 134.685 17.512C135.096 18.48 135.66 19.3233 136.379 20.042C137.098 20.7607 137.941 21.3107 138.909 21.692C139.892 22.0733 140.948 22.264 142.077 22.264C143.206 22.264 144.145 22.1247 144.893 21.846C145.641 21.5673 146.338 21.164 146.983 20.636V17.556C146.631 17.9667 146.213 18.3407 145.729 18.678C145.26 19.0007 144.732 19.2573 144.145 19.448C143.558 19.6387 142.898 19.734 142.165 19.734C141.226 19.734 140.354 19.514 139.547 19.074C138.755 18.6193 138.11 17.9813 137.611 17.16C137.127 16.3387 136.885 15.3853 136.885 14.3ZM149.112 8.998H156.152L148.43 22H159.826V19.668H152.632L160.398 6.6H149.112V8.998Z" fill="black"/>
<rect x="172" y="4" width="4" height="20" fill="#0052CC"/>
<rect x="184" y="4" width="4" height="20" fill="#0052CC" fill-opacity="0.3"/>
<rect x="178" y="4" width="4" height="20" fill="#0052CC" fill-opacity="0.7"/>
</svg>
