<svg width="259" height="48" viewBox="0 0 259 48" fill="none" xmlns="http://www.w3.org/2000/svg">
<path d="M62.5556 33.0985C61.4119 33.0985 60.276 32.9496 59.1479 32.6518C58.0199 32.3384 57.0642 31.8995 56.2808 31.3353L57.7614 28.42C58.3881 28.8745 59.1166 29.235 59.947 29.5015C60.7773 29.7679 61.6155 29.9011 62.4616 29.9011C63.4173 29.9011 64.1693 29.7131 64.7177 29.3369C65.266 28.9607 65.5402 28.4435 65.5402 27.7852C65.5402 27.1583 65.2974 26.6646 64.8117 26.3041C64.326 25.9436 63.5426 25.7634 62.4616 25.7634H60.7225V23.2478L65.3052 18.052L65.7282 19.4156H57.1034V16.3593H68.6188V18.8278L64.0596 24.0236L62.1326 22.9186H63.2371C65.2582 22.9186 66.7857 23.3731 67.8198 24.2822C68.8538 25.1913 69.3708 26.3589 69.3708 27.7852C69.3708 28.71 69.128 29.5798 68.6423 30.3949C68.1566 31.1942 67.4124 31.8447 66.4097 32.3462C65.407 32.8478 64.1223 33.0985 62.5556 33.0985ZM78.4843 33.0985C76.9803 33.0985 75.672 32.7851 74.5597 32.1581C73.4629 31.5312 72.6169 30.6143 72.0216 29.4074C71.4262 28.2006 71.1285 26.7116 71.1285 24.9405C71.1285 23.044 71.481 21.4375 72.1861 20.1209C72.9068 18.8043 73.8938 17.8012 75.1472 17.1116C76.4162 16.422 77.8733 16.0771 79.5184 16.0771C80.3957 16.0771 81.2339 16.1712 82.033 16.3593C82.832 16.5474 83.5214 16.8295 84.101 17.2056L82.691 20.0034C82.2366 19.6899 81.7509 19.4783 81.2339 19.3686C80.7169 19.2432 80.1764 19.1805 79.6124 19.1805C78.1866 19.1805 77.0586 19.6115 76.2282 20.4736C75.3979 21.3356 74.9827 22.613 74.9827 24.3057C74.9827 24.5878 74.9827 24.9013 74.9827 25.2461C74.9983 25.5909 75.0453 25.9358 75.1237 26.2806L74.0661 25.2931C74.3638 24.6819 74.7477 24.1725 75.2177 23.765C75.6877 23.3418 76.2439 23.0283 76.8863 22.8246C77.5443 22.6051 78.265 22.4954 79.0483 22.4954C80.1137 22.4954 81.0694 22.707 81.9155 23.1302C82.7615 23.5534 83.4352 24.149 83.9365 24.917C84.4536 25.685 84.7121 26.5862 84.7121 27.6207C84.7121 28.7335 84.4301 29.7052 83.866 30.5359C83.3177 31.3509 82.5735 31.9857 81.6334 32.4403C80.7091 32.8791 79.6594 33.0985 78.4843 33.0985ZM78.2728 30.2538C78.8055 30.2538 79.2755 30.1598 79.6829 29.9717C80.1059 29.7679 80.4349 29.478 80.6699 29.1018C80.9049 28.7256 81.0224 28.2946 81.0224 27.8087C81.0224 27.0564 80.7639 26.4608 80.2469 26.022C79.7455 25.5674 79.0718 25.3402 78.2258 25.3402C77.6618 25.3402 77.1683 25.4499 76.7452 25.6693C76.3222 25.8731 75.9854 26.163 75.7347 26.5392C75.4997 26.8997 75.3822 27.3229 75.3822 27.8087C75.3822 28.2789 75.4997 28.7021 75.7347 29.0783C75.9697 29.4388 76.2987 29.7287 76.7217 29.9482C77.1448 30.1519 77.6618 30.2538 78.2728 30.2538ZM93.1425 33.0985C91.7952 33.0985 90.5888 32.7694 89.5234 32.1111C88.458 31.4371 87.6198 30.4654 87.0088 29.1958C86.3978 27.9263 86.0923 26.3903 86.0923 24.5878C86.0923 22.7854 86.3978 21.2494 87.0088 19.9798C87.6198 18.7103 88.458 17.7464 89.5234 17.0881C90.5888 16.4141 91.7952 16.0771 93.1425 16.0771C94.5056 16.0771 95.712 16.4141 96.7617 17.0881C97.8271 17.7464 98.6653 18.7103 99.2763 19.9798C99.8873 21.2494 100.193 22.7854 100.193 24.5878C100.193 26.3903 99.8873 27.9263 99.2763 29.1958C98.6653 30.4654 97.8271 31.4371 96.7617 32.1111C95.712 32.7694 94.5056 33.0985 93.1425 33.0985ZM93.1425 29.8776C93.7849 29.8776 94.3411 29.6974 94.8111 29.3369C95.2968 28.9764 95.6728 28.4043 95.9392 27.6207C96.2212 26.837 96.3622 25.826 96.3622 24.5878C96.3622 23.3496 96.2212 22.3387 95.9392 21.555C95.6728 20.7714 95.2968 20.1993 94.8111 19.8388C94.3411 19.4783 93.7849 19.298 93.1425 19.298C92.5159 19.298 91.9597 19.4783 91.474 19.8388C91.004 20.1993 90.6279 20.7714 90.3459 21.555C90.0796 22.3387 89.9464 23.3496 89.9464 24.5878C89.9464 25.826 90.0796 26.837 90.3459 27.6207C90.6279 28.4043 91.004 28.9764 91.474 29.3369C91.9597 29.6974 92.5159 29.8776 93.1425 29.8776ZM106.038 24.2117C105.27 24.2117 104.573 24.0393 103.946 23.6945C103.319 23.334 102.818 22.8481 102.442 22.2368C102.082 21.6256 101.902 20.9438 101.902 20.1914C101.902 19.4391 102.082 18.7573 102.442 18.146C102.818 17.5348 103.319 17.0489 103.946 16.6884C104.573 16.3279 105.27 16.1477 106.038 16.1477C106.805 16.1477 107.495 16.3279 108.106 16.6884C108.732 17.0489 109.226 17.5348 109.586 18.146C109.962 18.7573 110.15 19.4391 110.15 20.1914C110.15 20.9438 109.962 21.6256 109.586 22.2368C109.226 22.8324 108.732 23.3105 108.106 23.6709C107.495 24.0314 106.805 24.2117 106.038 24.2117ZM106.038 22.4014C106.445 22.4014 106.813 22.3074 107.142 22.1193C107.471 21.9155 107.73 21.6491 107.918 21.3199C108.106 20.9908 108.2 20.6146 108.2 20.1914C108.2 19.7682 108.106 19.3921 107.918 19.0629C107.73 18.7181 107.471 18.4517 107.142 18.2636C106.813 18.0755 106.445 17.9815 106.038 17.9815C105.615 17.9815 105.239 18.0755 104.91 18.2636C104.581 18.4517 104.322 18.7103 104.134 19.0394C103.946 19.3686 103.852 19.7526 103.852 20.1914C103.852 20.6146 103.946 20.9908 104.134 21.3199C104.322 21.6491 104.581 21.9155 104.91 22.1193C105.239 22.3074 105.615 22.4014 106.038 22.4014Z" fill="white"/>
<path d="M127.038 32.816V16.3588H128.472L135.992 29.1954H135.24L142.69 16.3588H144.123V32.816H142.455V18.9685H142.854L135.992 30.7236H135.17L128.26 18.9685H128.707V32.816H127.038ZM151.035 23.7175H159.73V25.1987H151.035V23.7175ZM151.223 31.3113H161.117V32.816H149.484V16.3588H160.764V17.8635H151.223V31.3113ZM165.204 32.816V16.3588H166.638L174.158 29.1954H173.406L180.856 16.3588H182.289V32.816H180.621V18.9685H181.02L174.158 30.7236H173.336L166.426 18.9685H166.873V32.816H165.204ZM194.841 32.957C193.603 32.957 192.452 32.7533 191.386 32.3458C190.337 31.9226 189.42 31.3348 188.637 30.5825C187.869 29.8145 187.266 28.929 186.827 27.9259C186.404 26.9071 186.193 25.7943 186.193 24.5874C186.193 23.3805 186.404 22.2756 186.827 21.2725C187.266 20.2537 187.869 19.3681 188.637 18.6158C189.42 17.8478 190.337 17.2601 191.386 16.8525C192.436 16.4294 193.588 16.2178 194.841 16.2178C196.079 16.2178 197.222 16.4294 198.272 16.8525C199.322 17.2601 200.23 17.84 200.998 18.5923C201.782 19.3446 202.385 20.2302 202.808 21.249C203.246 22.2677 203.466 23.3805 203.466 24.5874C203.466 25.7943 203.246 26.9071 202.808 27.9259C202.385 28.9446 201.782 29.8302 200.998 30.5825C200.23 31.3348 199.322 31.9226 198.272 32.3458C197.222 32.7533 196.079 32.957 194.841 32.957ZM194.841 31.4054C195.828 31.4054 196.737 31.2408 197.567 30.9117C198.413 30.5668 199.142 30.0888 199.753 29.4775C200.379 28.8506 200.865 28.1296 201.21 27.3146C201.554 26.4839 201.727 25.5748 201.727 24.5874C201.727 23.6 201.554 22.6988 201.21 21.8837C200.865 21.053 200.379 20.3321 199.753 19.7208C199.142 19.0939 198.413 18.6158 197.567 18.2867C196.737 17.9419 195.828 17.7694 194.841 17.7694C193.854 17.7694 192.937 17.9419 192.091 18.2867C191.245 18.6158 190.509 19.0939 189.882 19.7208C189.271 20.3321 188.786 21.053 188.425 21.8837C188.081 22.6988 187.908 23.6 187.908 24.5874C187.908 25.5592 188.081 26.4604 188.425 27.2911C188.786 28.1218 189.271 28.8506 189.882 29.4775C190.509 30.0888 191.245 30.5668 192.091 30.9117C192.937 31.2408 193.854 31.4054 194.841 31.4054ZM207.364 32.816V16.3588H213.521C214.916 16.3588 216.114 16.5861 217.117 17.0406C218.12 17.4795 218.887 18.1221 219.42 18.9685C219.968 19.7992 220.243 20.8101 220.243 22.0013C220.243 23.1611 219.968 24.1642 219.42 25.0106C218.887 25.8413 218.12 26.4839 217.117 26.9384C216.114 27.3773 214.916 27.5967 213.521 27.5967H208.328L209.103 26.7974V32.816H207.364ZM218.597 32.816L214.367 26.8444H216.247L220.501 32.816H218.597ZM209.103 26.9384L208.328 26.1156H213.474C215.119 26.1156 216.365 25.7551 217.211 25.0341C218.073 24.3131 218.503 23.3022 218.503 22.0013C218.503 20.6847 218.073 19.6659 217.211 18.945C216.365 18.224 215.119 17.8635 213.474 17.8635H208.328L209.103 17.0406V26.9384ZM224.347 32.816V16.3588H226.086V32.816H224.347ZM232.989 23.7175H241.685V25.1987H232.989V23.7175ZM233.177 31.3113H243.071V32.816H231.438V16.3588H242.719V17.8635H233.177V31.3113ZM251.695 32.957C250.473 32.957 249.298 32.7611 248.17 32.3693C247.058 31.9618 246.196 31.4445 245.585 30.8176L246.266 29.4775C246.846 30.0418 247.622 30.5198 248.593 30.9117C249.58 31.2878 250.614 31.4759 251.695 31.4759C252.729 31.4759 253.567 31.3505 254.21 31.0997C254.868 30.8333 255.346 30.4806 255.643 30.0418C255.957 29.6029 256.113 29.117 256.113 28.5841C256.113 27.9415 255.925 27.4243 255.549 27.0325C255.189 26.6406 254.711 26.335 254.116 26.1156C253.52 25.8805 252.862 25.6767 252.142 25.5043C251.421 25.3319 250.7 25.1517 249.98 24.9636C249.259 24.7598 248.593 24.4934 247.982 24.1642C247.387 23.8351 246.901 23.4041 246.525 22.8712C246.165 22.3226 245.984 21.6094 245.984 20.7317C245.984 19.9167 246.196 19.1722 246.619 18.4983C247.058 17.8086 247.723 17.2601 248.617 16.8525C249.51 16.4294 250.653 16.2178 252.048 16.2178C252.972 16.2178 253.889 16.351 254.797 16.6174C255.706 16.8682 256.489 17.2209 257.147 17.6754L256.56 19.0625C255.855 18.5923 255.103 18.2475 254.304 18.0281C253.52 17.8086 252.761 17.6989 252.024 17.6989C251.037 17.6989 250.222 17.8321 249.58 18.0986C248.938 18.365 248.46 18.7255 248.146 19.1801C247.849 19.6189 247.7 20.1205 247.7 20.6847C247.7 21.3273 247.88 21.8446 248.24 22.2364C248.617 22.6282 249.102 22.9339 249.698 23.1533C250.309 23.3727 250.974 23.5686 251.695 23.741C252.416 23.9134 253.129 24.1015 253.834 24.3053C254.554 24.509 255.212 24.7755 255.808 25.1046C256.419 25.4181 256.904 25.8413 257.265 26.3742C257.641 26.9071 257.829 27.6045 257.829 28.4666C257.829 29.2659 257.61 30.0104 257.171 30.7001C256.732 31.374 256.058 31.9226 255.15 32.3458C254.257 32.7533 253.105 32.957 251.695 32.957Z" fill="white"/>
<mask id="mask0_57_115" style="mask-type:alpha" maskUnits="userSpaceOnUse" x="-1" y="-1" width="47" height="49">
<path d="M22.3999 21.7344C21.0549 21.7341 19.7401 22.1328 18.6215 22.8802C17.5031 23.6276 16.6312 24.69 16.1163 25.9331C15.6016 27.1763 15.4667 28.5441 15.729 29.8638C15.9913 31.1836 16.639 32.3958 17.5901 33.3472C18.5412 34.2987 19.753 34.9467 21.0722 35.2091C22.3914 35.4715 23.7587 35.3368 25.0013 34.8217C26.244 34.3065 27.3059 33.4343 28.0531 32.3155C28.8002 31.1967 29.1987 29.8811 29.1984 28.5356C29.1965 26.7324 28.4795 25.0038 27.205 23.7286C25.9306 22.4536 24.2024 21.7363 22.3999 21.7344ZM22.3999 34.7227C21.1767 34.7229 19.9808 34.3603 18.9635 33.6807C17.9463 33.0009 17.1535 32.0348 16.685 30.9043C16.2167 29.7738 16.0939 28.5298 16.3324 27.3295C16.5709 26.1292 17.1598 25.0266 18.0246 24.1613C18.8896 23.2959 19.9915 22.7063 21.1913 22.4675C22.3911 22.2286 23.6347 22.3509 24.7648 22.8194C25.8951 23.2876 26.861 24.0805 27.5405 25.0981C28.2203 26.1156 28.583 27.3117 28.583 28.5356C28.5814 30.1756 27.9295 31.7483 26.7703 32.9082C25.6111 34.0679 24.0395 34.7205 22.3999 34.7227Z" fill="white"/>
<path d="M32.8847 38.5463C34.3437 38.5443 35.7427 37.9633 36.7742 36.9311C37.8058 35.8988 38.3862 34.4993 38.3876 33.0395V24.9271C38.3845 22.275 37.3298 19.7321 35.4553 17.8569C33.5805 15.9814 31.0389 14.9263 28.3876 14.9231H27.6354V12.7208C28.1956 12.5189 28.6801 12.1492 29.0229 11.662C29.3657 11.1749 29.55 10.5938 29.5507 9.99813V7.03864C29.55 6.27103 29.2449 5.53501 28.7022 4.99242C28.1598 4.44953 27.4241 4.14428 26.6571 4.14355H18.1416C17.3742 4.14428 16.6388 4.44953 16.0961 4.99242C15.5538 5.53501 15.2486 6.27103 15.2477 7.03864V9.99813C15.2488 10.5938 15.4334 11.1746 15.7762 11.6615C16.1188 12.1487 16.6031 12.5184 17.163 12.7208V14.9231H7.69225C5.65291 14.9256 3.6977 15.7372 2.25572 17.1798C0.81374 18.6223 0.00243126 20.5783 0 22.6184V33.0395C0.00170188 34.4993 0.5818 35.8988 1.61362 36.9311C2.64521 37.9633 4.04391 38.5443 5.50314 38.5463H32.8847ZM16.4786 9.99813V7.03864C16.4788 6.59743 16.6541 6.17444 16.9661 5.86239C17.2777 5.55059 17.7005 5.37524 18.1416 5.37475H26.6571C27.0979 5.37524 27.5206 5.55059 27.8326 5.86239C28.1442 6.17444 28.3196 6.59743 28.32 7.03864V9.99813C28.3196 10.4393 28.1442 10.8626 27.8326 11.1746C27.5209 11.4869 27.0981 11.6625 26.6571 11.6635H18.1416C17.7005 11.6625 17.2777 11.4869 16.9658 11.1746C16.6541 10.8626 16.4788 10.4393 16.4786 9.99813ZM18.3939 12.8947H26.4047V14.9231H18.3939V12.8947ZM1.5385 33.0395V22.6184C1.5385 20.9857 2.18691 19.4198 3.34079 18.2652C4.49491 17.1109 6.06016 16.4623 7.69225 16.4623H9.40459C10.2477 16.9501 11.3046 17.8321 11.3046 19.1817C11.3046 20.4129 10.4863 21.3364 9.69683 22.2229L9.69438 22.2259C8.97232 23.0389 8.29084 23.8063 8.29084 24.7578V37.0072H5.50314C4.45163 37.006 3.44388 36.5876 2.7004 35.8436C1.95716 35.0998 1.53923 34.0912 1.5385 33.0395ZM8.90617 37.0072V24.7578C8.90617 24.0391 9.48606 23.3865 10.1568 22.6323L10.1598 22.6291C10.9852 21.6988 11.92 20.6452 11.92 19.1817C11.92 17.9505 11.2463 17.0672 10.503 16.4623H28.3876C30.6312 16.4647 32.7819 17.3573 34.3683 18.9443C35.9544 20.5311 36.8467 22.6829 36.8491 24.9271V33.0395C36.8484 34.0912 36.4305 35.0998 35.6872 35.8436C34.944 36.5876 33.936 37.006 32.8847 37.0072H27.72C29.5568 35.8526 30.9684 34.1315 31.7418 32.1041C32.5154 30.0768 32.609 27.8526 32.0082 25.7672C31.4077 23.682 30.1456 21.8486 28.4124 20.5435C26.6789 19.2386 24.5686 18.533 22.3992 18.533C20.23 18.533 18.1194 19.2386 16.3862 20.5435C14.6529 21.8486 13.3906 23.682 12.7901 25.7672C12.1896 27.8526 12.283 30.0768 13.0566 32.1041C13.8302 34.1315 15.2418 35.8526 17.0784 37.0072H8.90617ZM22.3999 37.0072C20.7265 37.0072 19.0905 36.5108 17.6991 35.5807C16.3074 34.6506 15.2231 33.3285 14.5824 31.7818C13.942 30.2349 13.7745 28.5331 14.1011 26.8908C14.4276 25.2489 15.2336 23.7407 16.4168 22.5569C17.6001 21.3729 19.1077 20.5668 20.7493 20.2402C22.3907 19.9136 24.0921 20.0812 25.6381 20.7218C27.1841 21.3624 28.5058 22.4475 29.4355 23.8397C30.3652 25.2316 30.8617 26.8682 30.8617 28.5423C30.8575 30.786 29.9648 32.9368 28.3786 34.5234C26.7927 36.1099 24.643 37.0033 22.3999 37.0072Z" fill="white"/>
<path d="M32.8847 38.5463C34.3437 38.5443 35.7427 37.9633 36.7742 36.9311C37.8058 35.8988 38.3861 34.4993 38.3876 33.0395V24.9271C38.3845 22.275 37.3298 19.7321 35.4553 17.8569C33.5805 15.9814 31.0389 14.9263 28.3876 14.9231H27.6354V12.7208C28.1956 12.5189 28.6801 12.1492 29.0229 11.662C29.3657 11.1749 29.55 10.5938 29.5507 9.99813V7.03864C29.55 6.27103 29.2449 5.53501 28.7022 4.99242C28.1598 4.44953 27.4241 4.14428 26.6571 4.14355H18.1416C17.3742 4.14428 16.6388 4.44953 16.0961 4.99242C15.5538 5.53501 15.2486 6.27103 15.2477 7.03864V9.99813C15.2488 10.5938 15.4334 11.1746 15.7762 11.6615C16.1188 12.1487 16.6031 12.5184 17.163 12.7208V14.9231H7.69225C5.65291 14.9256 3.6977 15.7372 2.25572 17.1798C0.81374 18.6223 0.00243126 20.5783 0 22.6184V33.0395C0.00170188 34.4993 0.5818 35.8988 1.61362 36.9311C2.64521 37.9633 4.04391 38.5443 5.50314 38.5463H32.8847ZM16.4786 9.99813V7.03864C16.4788 6.59743 16.6541 6.17444 16.9661 5.86239C17.2777 5.55059 17.7005 5.37524 18.1416 5.37475H26.6571C27.0979 5.37524 27.5206 5.55059 27.8326 5.86239C28.1442 6.17444 28.3196 6.59743 28.32 7.03864V9.99813C28.3196 10.4393 28.1442 10.8626 27.8326 11.1746C27.5209 11.4869 27.0981 11.6625 26.6571 11.6635H18.1416C17.7005 11.6625 17.2777 11.4869 16.9658 11.1746C16.6541 10.8626 16.4788 10.4393 16.4786 9.99813ZM18.3939 12.8947H26.4047V14.9231H18.3939V12.8947ZM1.5385 33.0395V22.6184C1.5385 20.9857 2.18691 19.4198 3.34079 18.2652C4.49491 17.1109 6.06016 16.4623 7.69225 16.4623H9.40459C10.2477 16.9501 11.3046 17.8321 11.3046 19.1817C11.3046 20.4129 10.4863 21.3364 9.69683 22.2229L9.69438 22.2259C8.97232 23.0389 8.29084 23.8063 8.29084 24.7578V37.0072H5.50314C4.45163 37.006 3.44388 36.5876 2.7004 35.8436C1.95716 35.0998 1.53923 34.0912 1.5385 33.0395ZM8.90617 37.0072V24.7578C8.90617 24.0391 9.48606 23.3865 10.1568 22.6323L10.1598 22.6291C10.9852 21.6988 11.92 20.6452 11.92 19.1817C11.92 17.9505 11.2463 17.0672 10.503 16.4623H28.3876C30.6312 16.4647 32.7819 17.3573 34.3683 18.9443C35.9544 20.5311 36.8467 22.6829 36.8491 24.9271V33.0395C36.8484 34.0912 36.4305 35.0998 35.6872 35.8436C34.944 36.5876 33.936 37.006 32.8847 37.0072H27.72C29.5568 35.8526 30.9684 34.1315 31.7418 32.1041C32.5154 30.0768 32.609 27.8526 32.0082 25.7672C31.4077 23.682 30.1456 21.8486 28.4124 20.5435C26.6789 19.2386 24.5686 18.533 22.3992 18.533C20.23 18.533 18.1194 19.2386 16.3862 20.5435C14.6529 21.8486 13.3906 23.682 12.7901 25.7672C12.1896 27.8526 12.283 30.0768 13.0566 32.1041C13.8302 34.1315 15.2418 35.8526 17.0784 37.0072H8.90617ZM22.3999 37.0072C20.7265 37.0072 19.0905 36.5108 17.6991 35.5807C16.3074 34.6506 15.2231 33.3285 14.5824 31.7818C13.942 30.2349 13.7745 28.5331 14.1011 26.8908C14.4276 25.2489 15.2336 23.7407 16.4168 22.5569C17.6001 21.3729 19.1077 20.5668 20.7493 20.2402C22.3907 19.9136 24.0921 20.0812 25.6381 20.7218C27.1841 21.3624 28.5058 22.4475 29.4355 23.8397C30.3652 25.2316 30.8617 26.8682 30.8617 28.5423C30.8575 30.786 29.9648 32.9368 28.3786 34.5234C26.7927 36.1099 24.643 37.0033 22.3999 37.0072Z" stroke="black"/>
<path d="M26.3045 10.7224C26.5759 10.7224 26.8362 10.6146 27.0281 10.4227C27.2199 10.2308 27.3276 9.97034 27.3276 9.69889V7.33646C27.3274 7.06531 27.2194 6.80528 27.0276 6.61387C26.8357 6.42221 26.5756 6.31445 26.3045 6.31445H18.4938C18.2228 6.31445 17.9629 6.42221 17.771 6.61387C17.5792 6.80528 17.4713 7.06531 17.4708 7.33646V9.69889C17.4708 9.97034 17.5785 10.2308 17.7703 10.4227C17.9624 10.6146 18.2226 10.7224 18.4938 10.7224H26.3045ZM18.0861 9.69889V7.33646C18.0866 7.22851 18.1297 7.12536 18.206 7.049C18.2826 6.97289 18.3859 6.93032 18.4938 6.93032H26.3045C26.4125 6.93032 26.516 6.97289 26.5924 7.049C26.6687 7.12536 26.712 7.22851 26.7122 7.33646V9.69889C26.7122 9.80714 26.6694 9.91098 26.5929 9.98733C26.5165 10.064 26.4127 10.1068 26.3045 10.1068H18.4938C18.3857 10.1068 18.2821 10.064 18.2055 9.98733C18.1292 9.91098 18.0861 9.80714 18.0861 9.69889Z" fill="white"/>
<path d="M2.49077 15.1778C2.60869 15.2403 2.74095 15.2705 2.87418 15.2651C3.01009 15.2612 3.14259 15.2216 3.25808 15.1498C3.37356 15.0781 3.4679 14.9771 3.53159 14.857C5.62589 10.8144 8.9239 7.52289 12.9697 5.43724C13.0689 5.39688 13.1584 5.3361 13.2328 5.2592C13.3072 5.18211 13.3646 5.09042 13.4015 4.98996C13.4382 4.88952 13.4538 4.7825 13.447 4.67573C13.4402 4.56871 13.4113 4.46461 13.3619 4.36951C13.3126 4.27466 13.2437 4.19099 13.1603 4.1241C13.0767 4.05721 12.9802 4.00833 12.8769 3.98084C12.7733 3.95336 12.6654 3.94776 12.5596 3.96454C12.4541 3.98108 12.3529 4.01976 12.2629 4.07765C7.93657 6.31114 4.41049 9.83424 2.17227 14.1594C2.08353 14.3375 2.067 14.543 2.12632 14.7329C2.18565 14.9227 2.31645 15.0822 2.49077 15.1778Z" fill="white"/>
<path d="M41.9103 12.8777C39.6144 9.32764 36.3707 6.49143 32.5465 4.69086C32.458 4.63857 32.3598 4.60525 32.2579 4.59309C32.1561 4.58093 32.053 4.59017 31.9547 4.62008C31.8568 4.65025 31.7659 4.70035 31.6883 4.76748C31.6107 4.83461 31.548 4.91732 31.504 5.00999C31.4602 5.1029 31.4362 5.2038 31.4335 5.30622C31.4308 5.40888 31.4495 5.511 31.4884 5.60588C31.5273 5.70095 31.5857 5.78656 31.6596 5.85783C31.7337 5.92885 31.8218 5.98385 31.918 6.01887C35.5382 7.73281 38.5989 10.4375 40.7457 13.8197C42.8927 17.2019 44.0379 21.1234 44.0491 25.13C44.0491 36.773 34.582 46.2436 22.9452 46.2436C17.6035 46.2507 12.4594 44.2236 8.5573 40.5741C8.48704 40.5055 8.40362 40.4515 8.31221 40.4155C8.2208 40.3795 8.12307 40.3622 8.02486 40.3644C7.92664 40.3669 7.82985 40.3888 7.74016 40.4289C7.65066 40.4693 7.56997 40.5269 7.50284 40.5989C7.43577 40.6707 7.38372 40.7553 7.34994 40.8475C7.31587 40.9397 7.30083 41.0379 7.30544 41.1362C7.30979 41.2342 7.33388 41.3305 7.37618 41.4193C7.41849 41.5081 7.47807 41.5876 7.55146 41.653C11.7262 45.5574 17.2301 47.7265 22.9452 47.7192C35.3962 47.7192 45.5241 37.5861 45.5241 25.13C45.5284 20.7824 44.2732 16.5265 41.9103 12.8777Z" fill="white"/>
<path d="M22.4099 2.07677L22.4094 0.490234" stroke="white" stroke-width="2.5" stroke-linecap="round"/>
<path d="M19.0453 2.39182L18.7448 0.833984" stroke="white" stroke-width="2.5" stroke-linecap="round"/>
<path d="M15.7362 3.13223L15.0848 1.68555" stroke="white" stroke-width="2.5" stroke-linecap="round"/>
<path d="M25.9124 2.29315L26.1523 0.724609" stroke="white" stroke-width="2.5" stroke-linecap="round"/>
<path d="M29.1653 3.12572L29.7099 1.63574" stroke="white" stroke-width="2.5" stroke-linecap="round"/>
<path d="M8.13574 19.3951C8.13574 19.634 7.99057 19.8799 7.69495 20.0771C7.40075 20.2734 6.98042 20.4026 6.50389 20.4026C6.02736 20.4026 5.60699 20.2734 5.31278 20.0771C5.01716 19.8799 4.87201 19.634 4.87201 19.3951C4.87201 19.1565 5.01716 18.9104 5.31278 18.7131C5.60699 18.5171 6.02736 18.3877 6.50389 18.3877C6.98042 18.3877 7.40075 18.5171 7.69495 18.7131C7.99057 18.9104 8.13574 19.1565 8.13574 19.3951Z" stroke="black" stroke-width="2"/>
<path d="M13.8652 20.3035C14.4021 20.3035 14.8374 19.868 14.8374 19.3309C14.8374 18.7938 14.4021 18.3584 13.8652 18.3584C13.3283 18.3584 12.8931 18.7938 12.8931 19.3309C12.8931 19.868 13.3283 20.3035 13.8652 20.3035Z" stroke="black" stroke-width="2"/>
</mask>
<g mask="url(#mask0_57_115)">
<path d="M0 0.185547V47.7191H45.5241V0.185547H0Z" fill="white"/>
<path d="M0 0.185547V47.7191H45.5241V0.185547H0Z" fill="white"/>
</g>
<defs>
<linearGradient id="paint0_linear_57_115" x1="0" y1="23.9522" x2="45.5241" y2="23.9522" gradientUnits="userSpaceOnUse">
<stop stop-color="#1FDAFE"/>
<stop offset="1" stop-color="#fff"/>
</linearGradient>
<linearGradient id="paint1_linear_57_115" x1="0" y1="23.9522" x2="45.5241" y2="23.9522" gradientUnits="userSpaceOnUse">
<stop stop-color="#1FDAFE"/>
<stop offset="1" stop-color="#fff"/>
</linearGradient>
</defs>
</svg>
