<svg xmlns="http://www.w3.org/2000/svg" width="27.312" height="6.5" viewBox="0 0 27.312 6.5">
  <defs>
    <style>
      .cls-1 {
        fill: #585858;
        fill-rule: evenodd;
      }
    </style>
  </defs>
  <path id="Tvar_2_kopie_9_copy_30" data-name="Tvar 2 kopie 9 copy 30" class="cls-1" d="M889.293,323.251l0.024-.023-3.3-3.036a0.781,0.781,0,0,0-1.028,0l-0.022.019a0.617,0.617,0,0,0,0,.933l1.531,1.434H862.725a0.7,0.7,0,0,0-.726.659v0.029a0.7,0.7,0,0,0,.726.659H886.5l-1.531,1.433a0.616,0.616,0,0,0,0,.932l0.022,0.02a0.784,0.784,0,0,0,1.028,0l3.3-3.037Z" transform="translate(-862 -320)"/>
</svg>
