<svg xmlns="http://www.w3.org/2000/svg" width="21.656" height="21.69" viewBox="0 0 21.656 21.69">
  <defs>
    <style>
      .cls-1 {
        fill: #fe0000;
        fill-rule: evenodd;
      }
    </style>
  </defs>
  <path class="cls-1" d="M281.194,3060.49a10.809,10.809,0,1,0-3.383,11.4l-1.266-1.5a8.875,8.875,0,1,1,2.771-9.33,17.167,17.167,0,0,1,.388,2.96v1.93a1.243,1.243,0,0,1-2.485,0l-0.016-2.04a6.342,6.342,0,0,0-6.353-6.6,6.2,6.2,0,0,0-1.355.15,6.36,6.36,0,0,0-4.875,7.57,6.4,6.4,0,0,0,6.22,5.02,6.183,6.183,0,0,0,1.354-.14,6.366,6.366,0,0,0,3.588-2.21,3.2,3.2,0,0,0,5.883-1.75v-2.04A20.943,20.943,0,0,0,281.194,3060.49Zm-9.415,7.5a4.251,4.251,0,0,1-.939.1,4.43,4.43,0,0,1-4.3-3.47,4.421,4.421,0,0,1,3.373-5.25,4.977,4.977,0,0,1,.94-0.1A4.41,4.41,0,0,1,271.779,3067.99Z" transform="translate(-260 -3052.75)"/>
</svg>
