<svg width="17" height="13" viewBox="0 0 17 13" fill="none" xmlns="http://www.w3.org/2000/svg">
<path d="M16.8591 1.40021C16.7067 0.98919 16.4352 0.635154 16.0809 0.385076C15.7265 0.134997 15.3059 0.000698911 14.8749 0L2.12491 0C1.6866 0.00119006 1.25937 0.140547 0.901767 0.398976C0.544168 0.657404 0.273693 1.02226 0.127407 1.44354C0.0418026 1.67458 -0.00141565 1.9197 -9.25881e-05 2.16667V10.8333C0.000235216 11.2646 0.126805 11.686 0.36341 12.0436C0.600016 12.4011 0.935891 12.6785 1.32803 12.8402C1.58082 12.9462 1.85158 13.0005 2.12491 13H14.8749C15.1347 13.0015 15.3921 12.9499 15.6319 12.8483C16.1005 12.6729 16.4917 12.3317 16.7343 11.8869C16.9093 11.5644 17.0007 11.2018 16.9999 10.8333V2.16667C16.9997 1.90452 16.9519 1.64468 16.8591 1.40021ZM1.41569 2.16667C1.41639 1.9751 1.49133 1.79159 1.62419 1.65613C1.75704 1.52067 1.93703 1.44426 2.12491 1.44354H14.8749C15.0628 1.44426 15.2428 1.52067 15.3756 1.65613C15.5085 1.79159 15.5834 1.9751 15.5841 2.16667V2.30479L9.93694 6.63813L8.76553 7.56167L8.49991 7.76479L8.23428 7.55354L7.04959 6.65167L1.41569 2.33188V2.16667ZM1.41569 10.8333V4.13833L5.87288 7.55354L1.43163 10.9552C1.42179 10.9153 1.41645 10.8744 1.41569 10.8333ZM3.00944 11.5565L7.05491 8.45813L8.07491 9.24354C8.19705 9.33843 8.34635 9.38982 8.49991 9.38982C8.65346 9.38982 8.80277 9.33843 8.92491 9.24354L9.93694 8.46354L13.9532 11.5565H3.00944ZM15.5841 10.8333C15.5841 10.8847 15.577 10.9357 15.5629 10.985L11.1137 7.55354L15.5841 4.10854V10.8333Z" fill="#35353D"/>
</svg>
