<svg xmlns="http://www.w3.org/2000/svg" width="25.62" height="26.438" viewBox="0 0 25.62 26.438">
  <defs>
    <style>
      .cls-1 {
        fill: #fe0000;
        fill-rule: evenodd;
      }
    </style>
  </defs>
  <path class="cls-1" d="M1431.18,49a10.8,10.8,0,1,1-4.19,20.755l-0.7-.294-0.72.242-2.81.941-0.01-3.449-0.01-.635-0.37-.517A10.786,10.786,0,0,1,1431.18,49m0-2a12.792,12.792,0,0,0-10.44,20.21l0.03,6.221,5.44-1.824A12.808,12.808,0,1,0,1431.18,47h0ZM1436,57.114h-9.63v1.794H1436V57.114h0Zm0,4.4h-9.63v1.794H1436V61.518h0Z" transform="translate(-1418.38 -47)"/>
</svg>
