<svg xmlns="http://www.w3.org/2000/svg" width="163.089" height="63.959" viewBox="0 0 163.089 63.959">
  <g id="Group_1" data-name="Group 1" transform="translate(-97.868 -71.241)">
    <path id="Path_1" data-name="Path 1" d="M136.545,102.189,139.6,93.4l2.853,8.792h-5.909m5.8-12.846h-5.255L131.074,106l-5.349-7.411,7.564-9.25h-5.166l-6.91,8.936V89.4h-.023v-.057H116.9l-7.516,14.721-7.279-14.721H97.868v20.641h4.138V97.576l5.509,12.408h3.655l5.619-12.447v12.447h4.424V99.477l7.223,10.507h5.51l-.057-.079,1.515-4.375h8.164l1.484,4.455h4.453Z" transform="translate(0 3.04)" fill="#e71d2a"/>
    <path id="Path_2" data-name="Path 2" d="M116.287,88.719h-.633V71.241h63v17.33h-.632v-16.7H116.287V88.719" transform="translate(2.987 0)" fill="#e71d2a"/>
    <path id="Path_3" data-name="Path 3" d="M178.637,128.6H115.781V110.523h.631V127.97H178v-17.3h.632V128.6" transform="translate(3.009 6.598)" fill="#e71d2a"/>
    <path id="Path_4" data-name="Path 4" d="M155.375,89.343h4.205l9.925,12.991V89.343h4.4v20.641h-4.136L159.543,96.759v13.225h-4.168V89.343" transform="translate(9.659 3.04)" fill="#e71d2a"/>
    <path id="Path_5" data-name="Path 5" d="M179.183,105.648a4.245,4.245,0,0,0,3.74,1.655,4.187,4.187,0,0,0,3.854-1.912c.684-1.028,1.4-2.627,1.4-5.909a11.868,11.868,0,0,0-.514-3.683c-.857-2.541-2.6-3.655-4.71-3.655a4.686,4.686,0,0,0-3.8,1.741c-1.171,1.427-1.514,3.655-1.514,5.994a9.516,9.516,0,0,0,1.542,5.767m3.74-16.671c2.2,0,5.224.514,7.252,2.8a11.863,11.863,0,0,1,2.627,7.765c0,3-.916,6.195-2.6,8.079a9.82,9.82,0,0,1-7.336,2.941,9.978,9.978,0,0,1-7.308-2.826c-2.256-2.4-2.543-5.823-2.543-7.707C173.016,94.543,175.5,88.977,182.923,88.977Z" transform="translate(12.622 2.979)" fill="#e71d2a"/>
    <path id="Path_6" data-name="Path 6" d="M195.278,103.438c0,.971-.058,3.911,3.739,3.911,2.4,0,3.913-1.142,3.913-2.884,0-1.827-1.286-2.141-3.913-2.769-4.91-1.226-7.593-2.684-7.593-6.251,0-3.4,2.427-6.4,8.165-6.4,2.141,0,4.681.486,6.222,2.427a5.943,5.943,0,0,1,1.171,3.825h-4.254a3.063,3.063,0,0,0-3.34-3.139c-2.054,0-3.4,1.113-3.4,2.8,0,1.912,1.512,2.255,4.483,3,3.568.856,7.079,1.828,7.079,5.853,0,3.712-3.083,6.709-8.792,6.709-7.907,0-7.965-5.082-7.992-7.08h4.509" transform="translate(15.603 2.991)" fill="#e71d2a"/>
    <path id="Path_7" data-name="Path 7" d="M206.886,89.4h4.424v8.878l6.909-8.935h5.167l-7.564,9.25,8.221,11.388h-5.509l-7.223-10.5v10.5h-4.424V89.4" transform="translate(18.31 3.04)" fill="#e71d2a"/>
    <path id="Path_8" data-name="Path 8" d="M226.733,105.648a4.242,4.242,0,0,0,3.74,1.655,4.185,4.185,0,0,0,3.853-1.912c.686-1.028,1.4-2.627,1.4-5.909a11.868,11.868,0,0,0-.514-3.683,4.769,4.769,0,0,0-4.71-3.655,4.688,4.688,0,0,0-3.8,1.741c-1.169,1.427-1.513,3.655-1.513,5.994a9.508,9.508,0,0,0,1.542,5.767m3.74-16.671c2.2,0,5.224.514,7.251,2.8a11.867,11.867,0,0,1,2.626,7.765c0,3-.913,6.195-2.6,8.079a9.817,9.817,0,0,1-7.336,2.941,9.976,9.976,0,0,1-7.308-2.826c-2.257-2.4-2.54-5.823-2.54-7.707C220.567,94.543,223.049,88.977,230.472,88.977Z" transform="translate(20.608 2.979)" fill="#e71d2a"/>
  </g>
</svg>
