<svg xmlns="http://www.w3.org/2000/svg" width="20.094" height="20.09" viewBox="0 0 20.094 20.09">
  <defs>
    <style>
      .cls-1 {
        fill: #fe0000;
        fill-rule: evenodd;
      }
    </style>
  </defs>
  <path class="cls-1" d="M274.306,3104.82h-0.837a8.381,8.381,0,0,1-8.366-8.37v-0.84h1.673v0.84a6.7,6.7,0,0,0,6.693,6.69h0.837v1.68Zm-7.53-7.53H265.94v-1.68h0.822c0.018-.15.016-0.42,0.015-0.61v-3.8c0-.19,0-0.45-0.015-0.61h-3.333a0.842,0.842,0,0,0-.837.84v3.35h-1.673v-3.35a2.509,2.509,0,0,1,2.51-2.51h3.347a1.626,1.626,0,0,1,1.192.44,2.43,2.43,0,0,1,.482,1.85v3.78a2.409,2.409,0,0,1-.482,1.85A1.592,1.592,0,0,1,266.776,3097.29ZM278.489,3109h-3.346v-1.67h3.346a0.841,0.841,0,0,0,.837-0.84v-3.33a5.887,5.887,0,0,0-.609-0.02h-3.8a5.9,5.9,0,0,0-.609.02v0.82h-1.674v-0.84a1.6,1.6,0,0,1,.445-1.19,2.413,2.413,0,0,1,1.851-.48H278.7a2.417,2.417,0,0,1,1.851.48,1.6,1.6,0,0,1,.444,1.19v3.35A2.515,2.515,0,0,1,278.489,3109Zm-0.836,0h-2.51a14.239,14.239,0,0,1-14.224-14.22v-2.51h1.673v2.51a12.565,12.565,0,0,0,12.551,12.55h2.51V3109ZM281,3098.54h-1.673a7.961,7.961,0,0,0-7.949-7.95v-1.67A9.635,9.635,0,0,1,281,3098.54Zm-4.183,0h-1.674a3.769,3.769,0,0,0-3.765-3.76v-1.68A5.445,5.445,0,0,1,276.817,3098.54Z" transform="translate(-260.906 -3088.91)"/>
</svg>
