<svg width="15" height="15" viewBox="0 0 15 15" fill="none" xmlns="http://www.w3.org/2000/svg">
<path fill-rule="evenodd" clip-rule="evenodd" d="M13.525 10.2166L11.4083 9.97497C10.9 9.91663 10.4 10.0916 10.0416 10.45L8.50831 11.9833C6.14997 10.7833 4.21664 8.8583 3.01664 6.49163L4.55831 4.94997C4.91664 4.59163 5.09164 4.09163 5.03331 3.5833L4.79164 1.4833C4.69164 0.641634 3.98331 0.00830078 3.13331 0.00830078H1.69164C0.749973 0.00830078 -0.0333605 0.791634 0.0249729 1.7333C0.466639 8.84997 6.15831 14.5333 13.2666 14.975C14.2083 15.0333 14.9916 14.25 14.9916 13.3083V11.8666C15 11.025 14.3666 10.3166 13.525 10.2166Z" fill="#1D1D1D"/>
</svg>
