<svg xmlns="http://www.w3.org/2000/svg" width="40.562" height="40.56" viewBox="0 0 40.562 40.56">
  <defs>
    <style>
      .cls-1 {
        fill: #313a44;
        fill-rule: evenodd;
      }
    </style>
  </defs>
  <path class="cls-1" d="M861.253,1075.45v-0.03h-1.59l-0.342.02v0.01A20.288,20.288,0,1,0,861.253,1075.45Zm0,1.93a18.394,18.394,0,0,1,17.359,17.36h-3.056a15.391,15.391,0,0,0-14.3-14.3v-3.06Zm-0.966,4.96a13.37,13.37,0,1,1-13.37,13.37A13.387,13.387,0,0,1,860.287,1082.34Zm-0.966-4.96v3.06a15.249,15.249,0,0,0-9.144,3.8l-2.16-2.17A18.358,18.358,0,0,1,859.321,1077.38Zm-17.391,18.33a18.282,18.282,0,0,1,4.721-12.27l2.16,2.16a15.268,15.268,0,0,0,0,20.22l-2.16,2.16A18.264,18.264,0,0,1,841.93,1095.71Zm18.357,18.36a18.308,18.308,0,0,1-12.27-4.72l2.16-2.16a15.287,15.287,0,0,0,20.219,0l2.16,2.16A18.306,18.306,0,0,1,860.287,1114.07Zm13.636-6.09-2.161-2.16a15.29,15.29,0,0,0,3.794-9.14h3.056A18.319,18.319,0,0,1,873.923,1107.98Zm-26.383-23.21h-1.932v1.93h1.932v-1.93Zm-1.247,2.49h-1.932v1.94h1.932v-1.94Zm-1.246,2.5h-1.932v1.93h1.932v-1.93Zm-0.624,2.49h-1.932v1.93h1.932v-1.93Zm0,2.49h-1.932v1.94h1.932v-1.94Zm0,2.5h-1.932v1.93h1.932v-1.93Zm0.624,2.49h-1.932v1.93h1.932v-1.93Zm1.246,2.49h-1.932v1.94h1.932v-1.94Zm-0.685,2.5v1.93h1.932v-1.93h-1.932Zm14.679-2.43a6.58,6.58,0,1,0-6.576-6.58A6.584,6.584,0,0,0,860.287,1102.29Zm0-11.22a4.64,4.64,0,1,1-4.644,4.64A4.646,4.646,0,0,1,860.287,1091.07Zm-10.1-1.01-0.286.59a11.531,11.531,0,0,0-.993,3.05l-0.112.64,1.2,0.75c-0.015.21-.022,0.42-0.022,0.62s0.007,0.41.022,0.62l-1.2.75,0.112,0.64a11.414,11.414,0,0,0,.993,3.05l0.286,0.59,1.407-.1a10.46,10.46,0,0,0,.731,1l-0.531,1.31,0.469,0.46a11.722,11.722,0,0,0,2.587,1.88l0.575,0.31,1.092-.91a10.341,10.341,0,0,0,1.178.38l0.342,1.37,0.646,0.09a10.76,10.76,0,0,0,3.205,0l0.646-.09,0.342-1.37a10.277,10.277,0,0,0,1.178-.38l1.092,0.91,0.576-.31a11.716,11.716,0,0,0,2.586-1.88l0.469-.46-0.531-1.31a10.46,10.46,0,0,0,.731-1l1.407,0.1,0.286-.59a11.381,11.381,0,0,0,.994-3.05l0.112-.64-1.2-.75c0.014-.21.022-0.42,0.022-0.62s-0.008-.41-0.022-0.62l1.2-.75-0.112-.64a11.5,11.5,0,0,0-.994-3.05l-0.286-.59-1.407.1a11.89,11.89,0,0,0-.731-1l0.531-1.31-0.469-.46a11.716,11.716,0,0,0-2.586-1.88l-0.576-.31-1.092.91a10.152,10.152,0,0,0-1.178-.38l-0.342-1.37-0.646-.09a10.753,10.753,0,0,0-3.2,0l-0.647.09-0.342,1.37a10.215,10.215,0,0,0-1.178.38l-1.092-.91-0.575.31a11.722,11.722,0,0,0-2.587,1.88l-0.469.46,0.532,1.31a11.475,11.475,0,0,0-.732,1Zm2.475,2.11,0.3-.53a8.619,8.619,0,0,1,1.191-1.63l0.417-.45-0.487-1.21a10.757,10.757,0,0,1,1.121-.82l1,0.84,0.557-.26a8.1,8.1,0,0,1,1.914-.62l0.6-.12,0.314-1.26c0.249-.02.474-0.03,0.7-0.03s0.446,0.01.694,0.03l0.315,1.26,0.6,0.12a8.1,8.1,0,0,1,1.913.62l0.558,0.26,1-.84a10.448,10.448,0,0,1,1.121.82L866,1089.56l0.417,0.45a8.394,8.394,0,0,1,1.191,1.63l0.3,0.53,1.288-.09a9.73,9.73,0,0,1,.431,1.33l-1.1.68,0.074,0.61a7.646,7.646,0,0,1,0,2.02l-0.074.61,1.1,0.69a10.063,10.063,0,0,1-.431,1.32l-1.288-.09-0.3.53a8.394,8.394,0,0,1-1.191,1.63l-0.417.45,0.486,1.21a10.448,10.448,0,0,1-1.121.82l-1-.84-0.556.26a8.582,8.582,0,0,1-1.914.63l-0.6.11-0.315,1.26c-0.248.02-.473,0.03-0.694,0.03s-0.446-.01-0.7-0.03l-0.314-1.26-0.6-.11a8.565,8.565,0,0,1-1.914-.63l-0.557-.26-1,.84a10.549,10.549,0,0,1-1.121-.82l0.487-1.21-0.417-.45a8.394,8.394,0,0,1-1.191-1.63l-0.3-.53-1.288.09a10.058,10.058,0,0,1-.43-1.32l1.1-.69-0.074-.61a7.646,7.646,0,0,1,0-2.02l0.074-.61-1.1-.68a9.726,9.726,0,0,1,.43-1.33Z" transform="translate(-840 -1075.44)"/>
</svg>
