<svg version="1.2" xmlns="http://www.w3.org/2000/svg" viewBox="0 0 27 27" width="27" height="27">
	<title>Artboard 1</title>
	<defs>
		<clipPath clipPathUnits="userSpaceOnUse" id="cp1">
			<path d="m-1423-55h1920v1080h-1920z"/>
		</clipPath>
	</defs>
	<style>
		.s0 { fill: #cacaca } 
	</style>
	<g id="Artboard 1" clip-path="url(#cp1)">
		<path id="-e-sign " fill-rule="evenodd" class="s0" d="m10.5 1c2.5 0 4.5 2 4.5 4.5 0 2.5-2 4.5-4.5 4.5-2.5 0-4.5-2-4.5-4.5 0-2.5 2-4.5 4.5-4.5zm0 2c-1.4 0-2.5 1.1-2.5 2.5 0 1.4 1.1 2.5 2.5 2.5 1.4 0 2.5-1.1 2.5-2.5 0-1.4-1.1-2.5-2.5-2.5zm7.7 7.6l7.7 7.7-1.4 1.4-0.3-0.3v5.6h-12.1v-5.6l-0.3 0.3-1.4-1.4zm4 6.8l-4-4-4.1 4v5.6h8.1zm-4 1.6h2v2h-2zm-14.2-2h5.3l-2 2h-5.3v-3c0-2.8 2.2-5 5-5h7.1q0.6 0 1.1 0.1l-1.8 1.9h-6.4c-1.7 0-3 1.3-3 3z"/>
	</g>
</svg>