<svg version="1.2" xmlns="http://www.w3.org/2000/svg" viewBox="0 0 26 27" width="26" height="27">
	<title>Artboard 1</title>
	<defs>
		<clipPath clipPathUnits="userSpaceOnUse" id="cp1">
			<path d="m-1569-55h1920v1080h-1920z"/>
		</clipPath>
	</defs>
	<style>
		.s0 { fill: #c8c8c8 } 
	</style>
	<g id="Artboard 1" clip-path="url(#cp1)">
		<g id="Top-staty">
			<path id="-e- sign up" fill-rule="evenodd" class="s0" d="m9.4 1c2.4 0 4.4 2 4.4 4.5 0 2.5-2 4.5-4.4 4.5-2.5 0-4.5-2-4.5-4.5 0-2.5 2-4.5 4.5-4.5zm0 2c-1.4 0-2.5 1.1-2.5 2.5 0 1.4 1.1 2.5 2.5 2.5 1.3 0 2.4-1.1 2.4-2.5 0-1.4-1.1-2.5-2.4-2.5zm10.3 7.6l4.3 4.4-9.8 10h-4.3v-4.4zm-6.3 12.4l-1.6-1.6v1.6zm7.9-8l-1.6-1.6-6.5 6.6 1.6 1.6zm-10.2 2l-2 2h-8v-3c0-2.8 2.2-5 4.9-5h6.8c1.2 0 2.2 0.4 3.1 1.1l-1.4 1.4c-0.5-0.3-1-0.5-1.7-0.5h-6.8c-1.7 0-3 1.3-3 3v1z"/>
		</g>
	</g>
</svg>