<svg xmlns="http://www.w3.org/2000/svg" width="39.188" height="36.47" viewBox="0 0 39.188 36.47">
  <defs>
    <style>
      .cls-1 {
        fill: #313a44;
        fill-rule: evenodd;
      }
    </style>
  </defs>
  <path class="cls-1" d="M406.148,1108.03h28.9a3.93,3.93,0,0,0,3.945-3.91v-22.68a3.93,3.93,0,0,0-3.945-3.91h-28.9a3.93,3.93,0,0,0-3.945,3.91v22.68A3.93,3.93,0,0,0,406.148,1108.03Zm6.353-27.46v-1.19h4.155v1.19h1.867v-1.19h4.155v1.19h1.867v-1.19H428.7v1.19h1.867v-1.19h4.486a2.069,2.069,0,0,1,2.078,2.06v4.45h-1.2v1.85h1.2v4.12h-1.2v1.85h1.2v4.11h-1.2v1.85h1.2v4.45a2.069,2.069,0,0,1-2.078,2.06h-4.486v-1.19H428.7v1.19h-4.155v-1.19h-1.867v1.19h-4.155v-1.19h-1.867v1.19H412.5v-1.19h-1.867v1.19h-4.486a2.069,2.069,0,0,1-2.078-2.06v-4.45h1.2v-1.85h-1.2v-4.11h1.2v-1.85h-1.2v-4.12h1.2v-1.85h-1.2v-4.45a2.069,2.069,0,0,1,2.078-2.06h4.486v1.19H412.5Zm12.044,31.58v-3.58h-1.867v4.5a0.935,0.935,0,0,0,.934.93H440.2v-1.85H424.545Zm-7.889,0H401V1114h16.59a0.935,0.935,0,0,0,.934-0.93v-4.5h-1.867v3.58Zm3.011,1.85h1.867v-5.43h-1.867V1114Zm-12.917-32.89a0.934,0.934,0,0,0-.933.93v3.58a0.926,0.926,0,0,0,.933.92h3.613a0.926,0.926,0,0,0,.933-0.92v-3.58a0.934,0.934,0,0,0-.933-0.93H406.75Zm0.933,3.58v-1.73h1.747v1.73h-1.747Zm5.089,1.85h3.613a0.926,0.926,0,0,0,.933-0.92v-3.58a0.934,0.934,0,0,0-.933-0.93h-3.613a0.934,0.934,0,0,0-.933.93v3.58A0.926,0.926,0,0,0,412.772,1086.54Zm2.68-3.58v1.73h-1.747v-1.73h1.747Zm3.342,3.58h3.613a0.926,0.926,0,0,0,.933-0.92v-3.58a0.934,0.934,0,0,0-.933-0.93h-3.613a0.934,0.934,0,0,0-.933.93v3.58A0.926,0.926,0,0,0,418.794,1086.54Zm2.68-3.58v1.73h-1.747v-1.73h1.747Zm3.342,3.58h3.613a0.926,0.926,0,0,0,.933-0.92v-3.58a0.934,0.934,0,0,0-.933-0.93h-3.613a0.934,0.934,0,0,0-.933.93v3.58A0.926,0.926,0,0,0,424.816,1086.54Zm2.68-3.58v1.73h-1.747v-1.73H427.5Zm3.342,3.58h3.613a0.926,0.926,0,0,0,.933-0.92v-3.58a0.934,0.934,0,0,0-.933-0.93h-3.613a0.934,0.934,0,0,0-.933.93v3.58A0.926,0.926,0,0,0,430.838,1086.54Zm2.68-3.58v1.73h-1.747v-1.73h1.747Zm-23.155,4.12H406.75a0.934,0.934,0,0,0-.933.93v3.58a0.926,0.926,0,0,0,.933.92h3.613a0.926,0.926,0,0,0,.933-0.92v-3.58A0.934,0.934,0,0,0,410.363,1087.08Zm-2.68,3.58v-1.73h1.747v1.73h-1.747Zm5.089,1.85h3.613a0.926,0.926,0,0,0,.933-0.92v-3.58a0.934,0.934,0,0,0-.933-0.93h-3.613a0.934,0.934,0,0,0-.933.93v3.58A0.926,0.926,0,0,0,412.772,1092.51Zm2.68-3.58v1.73h-1.747v-1.73h1.747Zm3.342,3.58h3.613a0.926,0.926,0,0,0,.933-0.92v-3.58a0.934,0.934,0,0,0-.933-0.93h-3.613a0.934,0.934,0,0,0-.933.93v3.58A0.926,0.926,0,0,0,418.794,1092.51Zm2.68-3.58v1.73h-1.747v-1.73h1.747Zm3.342,3.58h3.613a0.926,0.926,0,0,0,.933-0.92v-3.58a0.934,0.934,0,0,0-.933-0.93h-3.613a0.934,0.934,0,0,0-.933.93v3.58A0.926,0.926,0,0,0,424.816,1092.51Zm2.68-3.58v1.73h-1.747v-1.73H427.5Zm3.342,3.58h3.613a0.926,0.926,0,0,0,.933-0.92v-3.58a0.934,0.934,0,0,0-.933-0.93h-3.613a0.934,0.934,0,0,0-.933.93v3.58A0.926,0.926,0,0,0,430.838,1092.51Zm2.68-3.58v1.73h-1.747v-1.73h1.747Zm-23.155,4.12H406.75a0.926,0.926,0,0,0-.933.92v3.59a0.926,0.926,0,0,0,.933.92h3.613a0.926,0.926,0,0,0,.933-0.92v-3.59A0.926,0.926,0,0,0,410.363,1093.05Zm-2.68,3.58v-1.73h1.747v1.73h-1.747Zm5.089,1.85h3.613a0.926,0.926,0,0,0,.933-0.92v-3.59a0.926,0.926,0,0,0-.933-0.92h-3.613a0.926,0.926,0,0,0-.933.92v3.59A0.926,0.926,0,0,0,412.772,1098.48Zm2.68-3.58v1.73h-1.747v-1.73h1.747Zm3.342,3.58h3.613a0.926,0.926,0,0,0,.933-0.92v-3.59a0.926,0.926,0,0,0-.933-0.92h-3.613a0.926,0.926,0,0,0-.933.92v3.59A0.926,0.926,0,0,0,418.794,1098.48Zm2.68-3.58v1.73h-1.747v-1.73h1.747Zm3.342,3.58h3.613a0.926,0.926,0,0,0,.933-0.92v-3.59a0.926,0.926,0,0,0-.933-0.92h-3.613a0.926,0.926,0,0,0-.933.92v3.59A0.926,0.926,0,0,0,424.816,1098.48Zm2.68-3.58v1.73h-1.747v-1.73H427.5Zm3.342,3.58h3.613a0.926,0.926,0,0,0,.933-0.92v-3.59a0.926,0.926,0,0,0-.933-0.92h-3.613a0.926,0.926,0,0,0-.933.92v3.59A0.926,0.926,0,0,0,430.838,1098.48Zm2.68-3.58v1.73h-1.747v-1.73h1.747Zm-23.155,4.12H406.75a0.926,0.926,0,0,0-.933.92v3.58a0.934,0.934,0,0,0,.933.93h3.613a0.934,0.934,0,0,0,.933-0.93v-3.58A0.926,0.926,0,0,0,410.363,1099.02Zm-2.68,3.58v-1.73h1.747v1.73h-1.747Zm5.089,1.85h3.613a0.934,0.934,0,0,0,.933-0.93v-3.58a0.926,0.926,0,0,0-.933-0.92h-3.613a0.926,0.926,0,0,0-.933.92v3.58A0.934,0.934,0,0,0,412.772,1104.45Zm2.68-3.58v1.73h-1.747v-1.73h1.747Zm3.342,3.58h3.613a0.934,0.934,0,0,0,.933-0.93v-3.58a0.926,0.926,0,0,0-.933-0.92h-3.613a0.926,0.926,0,0,0-.933.92v3.58A0.934,0.934,0,0,0,418.794,1104.45Zm2.68-3.58v1.73h-1.747v-1.73h1.747Zm3.342,3.58h3.613a0.934,0.934,0,0,0,.933-0.93v-3.58a0.926,0.926,0,0,0-.933-0.92h-3.613a0.926,0.926,0,0,0-.933.92v3.58A0.934,0.934,0,0,0,424.816,1104.45Zm2.68-3.58v1.73h-1.747v-1.73H427.5Zm3.342,3.58h3.613a0.934,0.934,0,0,0,.933-0.93v-3.58a0.926,0.926,0,0,0-.933-0.92h-3.613a0.926,0.926,0,0,0-.933.92v3.58A0.934,0.934,0,0,0,430.838,1104.45Zm2.68-3.58v1.73h-1.747v-1.73h1.747Z" transform="translate(-401 -1077.53)"/>
</svg>
