<svg width="8" height="10" viewBox="0 0 8 10" fill="none" xmlns="http://www.w3.org/2000/svg">
<path d="M5.5625 9.375H2.4375C2.0231 9.375 1.62567 9.21038 1.33265 8.91735C1.03962 8.62433 0.875 8.2269 0.875 7.8125V7.5C0.875 6.75408 1.17132 6.03871 1.69876 5.51126C2.22621 4.98382 2.94158 4.6875 3.6875 4.6875H4.3125C5.05842 4.6875 5.77379 4.98382 6.30124 5.51126C6.82868 6.03871 7.125 6.75408 7.125 7.5V7.8125C7.125 8.2269 6.96038 8.62433 6.66735 8.91735C6.37433 9.21038 5.9769 9.375 5.5625 9.375ZM3.6875 5.3125C3.10734 5.3125 2.55094 5.54297 2.1407 5.9532C1.73047 6.36344 1.5 6.91984 1.5 7.5V7.8125C1.5 8.06114 1.59877 8.2996 1.77459 8.47541C1.9504 8.65123 2.18886 8.75 2.4375 8.75H5.5625C5.81114 8.75 6.0496 8.65123 6.22541 8.47541C6.40123 8.2996 6.5 8.06114 6.5 7.8125V7.5C6.5 6.91984 6.26953 6.36344 5.8593 5.9532C5.44906 5.54297 4.89266 5.3125 4.3125 5.3125H3.6875Z" fill="black"/>
<path d="M4 4.375C3.62916 4.375 3.26665 4.26503 2.95831 4.05901C2.64996 3.85298 2.40964 3.56014 2.26773 3.21753C2.12581 2.87492 2.08868 2.49792 2.16103 2.13421C2.23338 1.77049 2.41195 1.4364 2.67418 1.17418C2.9364 0.911952 3.27049 0.733376 3.63421 0.661028C3.99792 0.588681 4.37492 0.625812 4.71753 0.767727C5.06014 0.909641 5.35298 1.14996 5.55901 1.45831C5.76503 1.76665 5.875 2.12916 5.875 2.5C5.875 2.99728 5.67746 3.4742 5.32583 3.82583C4.9742 4.17746 4.49728 4.375 4 4.375ZM4 1.25C3.75277 1.25 3.5111 1.32331 3.30554 1.46066C3.09998 1.59802 2.93976 1.79324 2.84515 2.02165C2.75054 2.25005 2.72579 2.50139 2.77402 2.74386C2.82225 2.98634 2.9413 3.20907 3.11612 3.38388C3.29093 3.5587 3.51366 3.67775 3.75614 3.72598C3.99861 3.77421 4.24995 3.74946 4.47835 3.65485C4.70676 3.56024 4.90199 3.40002 5.03934 3.19446C5.17669 2.9889 5.25 2.74723 5.25 2.5C5.25 2.16848 5.1183 1.85054 4.88388 1.61612C4.64946 1.3817 4.33152 1.25 4 1.25Z" fill="black"/>
</svg>
