<svg width="70" height="67" viewBox="0 0 70 67" fill="none" xmlns="http://www.w3.org/2000/svg">
<path d="M63.4375 25.0392C63.434 22.2732 62.2806 19.6214 60.2301 17.6656C58.1797 15.7097 55.3997 14.6095 52.5 14.6062H45.9375V12.5196C45.9375 10.8594 45.2461 9.26716 44.0154 8.09322C42.7847 6.91928 41.1155 6.25977 39.375 6.25977H30.625C28.8845 6.25977 27.2153 6.91928 25.9846 8.09322C24.7539 9.26716 24.0625 10.8594 24.0625 12.5196V14.6062H17.5C14.6003 14.6095 11.8203 15.7097 9.76986 17.6656C7.71943 19.6214 6.56597 22.2732 6.5625 25.0392V28.4049C6.56818 30.6479 7.33567 32.8288 8.75 34.6208V50.0784C8.75347 52.8444 9.90693 55.4961 11.9574 57.452C14.0078 59.4078 16.7878 60.5081 19.6875 60.5114H50.3125C53.2122 60.5081 55.9922 59.4078 58.0426 57.452C60.0931 55.4961 61.2465 52.8444 61.25 50.0784V34.6208C62.6643 32.8288 63.4318 30.6479 63.4375 28.4049V25.0392ZM28.4375 12.5196C28.4375 11.9662 28.668 11.4354 29.0782 11.0441C29.4884 10.6528 30.0448 10.433 30.625 10.433H39.375C39.9552 10.433 40.5116 10.6528 40.9218 11.0441C41.332 11.4354 41.5625 11.9662 41.5625 12.5196V14.6062H28.4375V12.5196ZM10.9375 25.0392C10.9375 23.379 11.6289 21.7868 12.8596 20.6128C14.0903 19.4389 15.7595 18.7794 17.5 18.7794H52.5C54.2405 18.7794 55.9097 19.4389 57.1404 20.6128C58.3711 21.7868 59.0625 23.379 59.0625 25.0392V28.4049C59.0664 29.8877 58.5166 31.3234 57.5117 32.4547C56.5068 33.5861 55.1125 34.3392 53.5784 34.5791L43.4853 36.1816C43.187 35.3676 42.6316 34.6617 41.8956 34.161C41.1596 33.6603 40.279 33.3894 39.375 33.3856H30.625C29.721 33.3894 28.8404 33.6603 28.1044 34.161C27.3684 34.6617 26.813 35.3676 26.5147 36.1816L16.4216 34.5791C14.8875 34.3392 13.4932 33.5861 12.4883 32.4547C11.4834 31.3234 10.9336 29.8877 10.9375 28.4049V25.0392ZM39.375 37.5588V41.732H30.625V37.5588H39.375ZM50.3125 56.3382H19.6875C17.947 56.3382 16.2778 55.6787 15.0471 54.5047C13.8164 53.3308 13.125 51.7386 13.125 50.0784V37.9302C13.9485 38.2853 14.8147 38.5425 15.7041 38.696L26.25 40.3652V41.732C26.25 42.8388 26.7109 43.9002 27.5314 44.6829C28.3519 45.4655 29.4647 45.9052 30.625 45.9052H39.375C40.5353 45.9052 41.6481 45.4655 42.4686 44.6829C43.2891 43.9002 43.75 42.8388 43.75 41.732V40.3694L54.2959 38.7001C55.1855 38.5453 56.0517 38.2868 56.875 37.9302V50.0784C56.875 51.7386 56.1836 53.3308 54.9529 54.5047C53.7222 55.6787 52.053 56.3382 50.3125 56.3382Z" fill="black"/>
</svg>
