<svg width="20" height="19" viewBox="0 0 20 19" fill="none" xmlns="http://www.w3.org/2000/svg">
<path d="M16.1875 2.61749H13.3687C13.211 1.88898 12.7894 1.23402 12.1754 0.763573C11.5615 0.293128 10.7929 0.0361328 10 0.0361328C9.20707 0.0361328 8.43852 0.293128 7.82457 0.763573C7.21063 1.23402 6.78904 1.88898 6.63125 2.61749H3.8125C2.90082 2.61749 2.02648 2.95702 1.38182 3.56138C0.737164 4.16575 0.375 4.98544 0.375 5.84014V10.3519C0.375 10.5228 0.447433 10.6867 0.576364 10.8076C0.705295 10.9285 0.880164 10.9964 1.0625 10.9964H1.75V14.8636C1.75 15.7183 2.11216 16.538 2.75682 17.1423C3.40148 17.7467 4.27582 18.0862 5.1875 18.0862H14.8125C15.7242 18.0862 16.5985 17.7467 17.2432 17.1423C17.8878 16.538 18.25 15.7183 18.25 14.8636V10.9964H18.9375C19.1198 10.9964 19.2947 10.9285 19.4236 10.8076C19.5526 10.6867 19.625 10.5228 19.625 10.3519V5.84014C19.625 4.98544 19.2628 4.16575 18.6182 3.56138C17.9735 2.95702 17.0992 2.61749 16.1875 2.61749ZM10 1.32843C10.4267 1.32822 10.843 1.45208 11.1914 1.68295C11.5399 1.91383 11.8034 2.24034 11.9456 2.61749H8.05438C8.19661 2.24034 8.46011 1.91383 8.80857 1.68295C9.15704 1.45208 9.5733 1.32822 10 1.32843ZM16.875 14.8636C16.875 15.3764 16.6577 15.8682 16.2709 16.2308C15.8841 16.5935 15.3595 16.7972 14.8125 16.7972H5.1875C4.64049 16.7972 4.11589 16.5935 3.72909 16.2308C3.3423 15.8682 3.125 15.3764 3.125 14.8636V10.9964H8.06125C8.20577 11.3697 8.46937 11.6922 8.81624 11.9201C9.16311 12.148 9.57642 12.2703 10 12.2703C10.4236 12.2703 10.8369 12.148 11.1838 11.9201C11.5306 11.6922 11.7942 11.3697 11.9387 10.9964H16.875V14.8636ZM9.3125 10.3519C9.3125 10.2244 9.35282 10.0998 9.42836 9.99378C9.50391 9.88779 9.61128 9.80518 9.73691 9.75639C9.86253 9.70761 10.0008 9.69485 10.1341 9.71972C10.2675 9.74459 10.39 9.80597 10.4861 9.89611C10.5823 9.98625 10.6478 10.1011 10.6743 10.2261C10.7008 10.3511 10.6872 10.4807 10.6352 10.5985C10.5831 10.7163 10.495 10.8169 10.382 10.8878C10.2689 10.9586 10.136 10.9964 10 10.9964C9.81766 10.9964 9.6428 10.9285 9.51386 10.8076C9.38493 10.6867 9.3125 10.5228 9.3125 10.3519ZM18.25 9.70733H11.9387C11.7942 9.33405 11.5306 9.01154 11.1838 8.78362C10.8369 8.5557 10.4236 8.43343 10 8.43343C9.57642 8.43343 9.16311 8.5557 8.81624 8.78362C8.46937 9.01154 8.20577 9.33405 8.06125 9.70733H1.75V5.84014C1.75 5.32732 1.9673 4.83551 2.35409 4.47289C2.74089 4.11027 3.26549 3.90655 3.8125 3.90655H16.1875C16.7345 3.90655 17.2591 4.11027 17.6459 4.47289C18.0327 4.83551 18.25 5.32732 18.25 5.84014V9.70733Z" fill="#0052CC"/>
</svg>
