<svg xmlns="http://www.w3.org/2000/svg" width="26.03" height="26.031" viewBox="0 0 26.03 26.031">
  <defs>
    <style>
      .cls-1 {
        fill: #bfbfbf;
        fill-rule: evenodd;
      }
    </style>
  </defs>
  <path class="cls-1" d="M1654.24,53.9l5.31-3.121-5.31-3.12V53.9Zm2.24-16.584a13.016,13.016,0,1,0,13.01,13.016A13.019,13.019,0,0,0,1656.48,37.319Zm8.04,16.357a2.741,2.741,0,0,1-2.8,2.8h-10.64a2.737,2.737,0,0,1-2.79-2.8v-5.8a2.735,2.735,0,0,1,2.79-2.8h10.64a2.74,2.74,0,0,1,2.8,2.8v5.8Z" transform="translate(-1643.47 -37.313)"/>
</svg>
