<svg width="19" height="15" viewBox="0 0 19 15" fill="none" xmlns="http://www.w3.org/2000/svg">
<g clip-path="url(#clip0_50_7190)">
<path fill-rule="evenodd" clip-rule="evenodd" d="M5.89687 14.9998C12.9722 14.9998 16.8422 9.22815 16.8422 4.22359C16.8422 4.0593 16.8422 3.89624 16.8309 3.73379C17.5837 3.19844 18.2334 2.53374 18.75 1.77318C18.0487 2.07962 17.3034 2.28059 16.5412 2.36919C17.3438 1.89569 17.9447 1.15179 18.2325 0.274008C17.4769 0.715205 16.6509 1.02658 15.7894 1.19366C14.3325 -0.33116 11.8959 -0.405038 10.3463 1.02932C9.34781 1.95417 8.92313 3.33311 9.23344 4.6484C6.14062 4.49518 3.25875 3.05716 1.305 0.691489C0.284063 2.42212 0.80625 4.63527 2.49656 5.74657C1.88438 5.72903 1.28531 5.56676 0.75 5.27325V5.32131C0.750938 7.12395 2.04187 8.67612 3.83625 9.03332C3.27 9.18561 2.67562 9.2077 2.1 9.09786C2.60344 10.6411 4.04812 11.6982 5.69344 11.7286C4.33125 12.7827 2.64844 13.3551 0.915938 13.3532C0.610313 13.3523 0.304688 13.3347 0 13.2988C1.75969 14.4101 3.80625 14.9998 5.89687 14.9971" fill="white"/>
</g>
<defs>
<clipPath id="clip0_50_7190">
<rect width="18.75" height="15" fill="white"/>
</clipPath>
</defs>
</svg>
